<?xml version="1.0" encoding="UTF-8" standalone="no"?>
<svg width="935px" height="364px" viewBox="0 0 935 364" version="1.1" xmlns="http://www.w3.org/2000/svg" xmlns:xlink="http://www.w3.org/1999/xlink">
    <!-- Generator: Sketch 3.6.1 (26313) - http://www.bohemiancoding.com/sketch -->
    <title>山远景</title>
    <desc>Created with Sketch.</desc>
    <defs>
        <polygon id="path-1" points="232.467986 0.145403121 464.935965 364 0 364 "></polygon>
    </defs>
    <g id="Page-1" stroke="none" stroke-width="1" fill="none" fill-rule="evenodd">
        <g id="创图" transform="translate(-488.000000, -578.000000)">
            <g id="山远景" transform="translate(488.000000, 578.000000)">
                <g id="松树（后）" opacity="0.700000048" transform="translate(842.000000, 173.000000)">
                    <rect id="Rectangle-787" fill="#764802" x="41.2054795" y="100.1" width="12.8767123" height="81.9"></rect>
                    <g id="Group" transform="translate(0.901370, 0.052000)">
                        <g transform="translate(0.000000, 70.850000)" id="Shape">
                            <path d="M1.19238356,80.2126 L46.6600548,0.9256 L91.8521644,80.2126 L1.19238356,80.2126 Z" fill="#006158"></path>
                            <path d="M91.8521644,80.2126 L46.6600548,0.9256 L46.6600548,80.2126 L91.8521644,80.2126 Z" fill="#004A43"></path>
                        </g>
                        <g transform="translate(4.223562, 38.948000)" id="Shape">
                            <path d="M0.275561644,75.3922 L42.4364932,1.391 L84.5974247,75.3922 L0.275561644,75.3922 Z" fill="#008276"></path>
                            <path d="M84.5974247,75.3922 L42.4364932,1.391 L42.4364932,75.3922 L84.5974247,75.3922 Z" fill="#006E64"></path>
                        </g>
                        <g transform="translate(11.022466, 15.210000)" id="Shape">
                            <path d="M0.0901369863,62.1296 L35.637589,0.091 L70.9094795,62.1296 L0.0901369863,62.1296 Z" fill="#009C8D"></path>
                            <path d="M70.9094795,62.1296 L35.637589,0.091 L35.637589,62.1296 L70.9094795,62.1296 Z" fill="#008276"></path>
                        </g>
                        <g transform="translate(18.001644, 0.000000)" id="Shape">
                            <path d="M2.48005479,46.1812 L28.658411,0.5564 L54.5612055,46.1812 L2.48005479,46.1812 Z" fill="#00BBA9"></path>
                            <path d="M54.5612055,46.1812 L28.658411,0.5564 L28.658411,46.1812 L54.5612055,46.1812 Z" fill="#008579"></path>
                        </g>
                    </g>
                    <g id="Group-15" transform="translate(11.589041, 37.700000)">
                        <path d="M61.8751781,8.8114 L60.7729315,6.5858 L60.7729315,6.5858 L54.4350137,0.7436 L48.3726575,6.5858 L42.0347397,0.7436 L35.6968219,6.5858 L29.6344658,0.7436 L23.2965479,6.5858 L16.9586301,0.7436 L11.1718356,6.3076 L9.7940274,8.8114 L61.8751781,8.8114 Z" id="Shape" fill="#006E64"></path>
                        <path d="M70.1420274,37.7442 L63.2529863,31.902 L56.3639452,37.7442 L49.4749041,31.902 L42.585863,37.7442 L35.6968219,31.902 L35.6968219,31.902 L35.6968219,31.902 L28.8077808,37.7442 L22.1943014,31.902 L21.9187397,31.902 L21.9187397,31.902 L15.3052603,37.466 L15.3052603,37.7442 L15.3052603,37.7442 L8.41621918,31.902 L1.52717808,37.7442 L0.424931507,39.6916 L71.244274,39.6916 L70.9687123,38.857 L70.1420274,37.7442 Z" id="Shape" fill="#004A43"></path>
                        <path d="M76.7555068,74.4666 L76.7555068,74.4666 L70.6931507,68.6244 L64.3552329,74.4666 L58.0173151,68.6244 L51.9549589,74.4666 L45.6170411,68.6244 L45.6170411,68.6244 L45.6170411,68.6244 L39.5546849,74.4666 L33.2167671,68.6244 L33.2167671,68.6244 L33.2167671,68.6244 L26.8788493,74.4666 L20.8164932,68.6244 L14.4785753,74.4666 L8.14065753,68.6244 L2.35386301,74.1884 L0.976054795,76.6922 L26.0521644,76.6922 L53.0572055,76.6922 L78.1333151,76.6922 L76.7555068,74.4666 Z" id="Shape" fill="#003D37"></path>
                    </g>
                </g>
                <g id="山-（远景）" opacity="0.25">
                    <g id="Path-2762-+-Rectangle-239-Mask">
                        <mask id="mask-2" fill="white">
                            <use xlink:href="#path-1"></use>
                        </mask>
                        <use id="Mask" fill="#602200" xlink:href="#path-1"></use>
                        <path d="M148.937433,83.54731 L204.85472,64.8334481 L233.16142,83.54731 L255.195651,64.8334481 L294.332859,88.7298294 L342.898304,118.526869 L294.332865,16.5425816 L228.203578,-81.0264309 L148.937433,83.54731 Z" id="Path-2762" fill="#DBDBDB" mask="url(#mask-2)"></path>
                        <path d="M-10.4894172,-19.3844195 L233.082011,-19.3844195 L233.082011,373.047103 L-19.1233766,373.047106 L-10.4894172,-19.3844195 Z" id="Rectangle-239" fill="#4A4A4A" opacity="0.481926306" mask="url(#mask-2)"></path>
                    </g>
                </g>
            </g>
        </g>
    </g>
</svg>