<?xml version="1.0" encoding="UTF-8" standalone="no"?>
<svg width="120px" height="212px" viewBox="0 0 120 212" version="1.1" xmlns="http://www.w3.org/2000/svg" xmlns:xlink="http://www.w3.org/1999/xlink">
    <!-- Generator: Sketch 3.6.1 (26313) - http://www.bohemiancoding.com/sketch -->
    <title>点击（上下动）</title>
    <desc>Created with Sketch.</desc>
    <defs></defs>
    <g id="Page-1" stroke="none" stroke-width="1" fill="none" fill-rule="evenodd">
        <g id="创图" transform="translate(-1255.000000, -680.000000)">
            <g id="点击（上下动）" transform="translate(1255.000000, 680.000000)">
                <path d="M59.697479,0.706666667 C26.7226891,0.706666667 0.100840336,27.4590476 0.100840336,60.3695238 C0.100840336,67.3352381 1.91596639,77.0266667 4.63865546,83.2857143 L59.697479,211.293333 L115.058824,82.68 C117.478992,77.0266667 119.394958,67.4361905 119.394958,60.3695238 C119.294118,27.4590476 92.6722689,0.706666667 59.697479,0.706666667 L59.697479,0.706666667 Z" id="Shape" fill="#417505"></path>
                <path d="M59.697479,0.706666667 L59.697479,0.706666667 L59.697479,211.293333 L115.058824,82.68 C117.478992,77.0266667 119.394958,67.4361905 119.394958,60.3695238 C119.294118,27.4590476 92.6722689,0.706666667 59.697479,0.706666667 L59.697479,0.706666667 Z" id="Shape" fill="#65BE00"></path>
                <path d="M59.697479,114.21619 C89.2524869,114.21619 113.383542,90.058323 113.383542,60.4704762 C113.383542,30.8826294 89.2524869,6.7247619 59.697479,6.7247619 C30.1424711,6.7247619 6.01141589,30.8826294 6.01141589,60.4704762 C6.01141589,90.058323 30.1424711,114.21619 59.697479,114.21619 L59.697479,114.21619 Z" id="Shape" fill="#FFFFFF"></path>
                <text id="请点击" font-family="PingFangSC-Light, PingFang SC" font-size="29" font-weight="300" line-spacing="35" fill="#5B5B5B">
                    <tspan x="16.5" y="57">请点击</tspan>
                    <tspan x="31" y="92">这里</tspan>
                </text>
            </g>
        </g>
    </g>
</svg>