<?xml version="1.0" encoding="UTF-8" standalone="no"?>
<svg width="145px" height="55px" viewBox="0 0 145 55" version="1.1" xmlns="http://www.w3.org/2000/svg" xmlns:xlink="http://www.w3.org/1999/xlink">
    <!-- Generator: Sketch 3.6.1 (26313) - http://www.bohemiancoding.com/sketch -->
    <title>飞机（动）</title>
    <desc>Created with Sketch.</desc>
    <defs>
        <path d="M0.571222784,35.1500277 C0.571222784,35.1500277 0.986657537,38.3454848 11.6841024,38.6074075 C21.1871724,39.1836374 16.8251075,39.0788684 21.5506778,39.1312529 C21.6545365,39.1312529 21.7583952,39.1836374 21.8103245,39.1836374 L25.4453786,39.1836374 L53.9026591,39.1836374 L88.0721675,55.0561537 L104.637628,55.0561537 L85.0602655,39.1836374 L101.573797,39.1836374 C103.910617,39.4455602 121.774312,39.1836374 127.278822,38.4502539 L132.679474,26.1398865 L135.535588,19.6965878 L136.002952,18.5965124 L137.301186,19.2251269 L143.584636,19.2251269 L138.132055,13.8295191 L138.651349,12.6770592 L143.376919,2.04299714 L143.896212,0.471460878 L132.471757,0.471460878 L126.603741,6.07660688 L122.916757,9.58637119 L115.698579,16.4487462 L73.5838805,16.4487462 L78.5171682,7.59575859 L66.261843,7.59575859 L52.9160016,16.4487462 L31.2095358,16.4487462 C29.0804327,16.4487462 25.964672,17.0773607 22.7450527,18.1250515 C24.8222264,17.9155134 26.5878241,18.072667 26.5878241,20.0632796 C26.5878241,23.5206594 23.8355689,26.2970401 20.4082322,26.2970401 L14.1767109,26.2970401 L12.3072545,26.2970401 C11.7879611,26.2970401 11.2686677,26.3494246 10.7493742,26.4018092 C10.1262221,26.5065783 8.56834177,26.9256546 6.59502669,27.7638073 C-0.415434752,30.9068798 0.363505408,33.5784914 0.571222784,35.1500277 L0.571222784,35.1500277 Z M87.8644501,21.844354 L96.4327919,21.844354 L97.6271668,26.3494246 L89.058825,26.3494246 L87.8644501,21.844354 L87.8644501,21.844354 Z M73.6358098,21.844354 L82.2041516,21.844354 L83.3985265,26.3494246 L74.8301848,26.3494246 L73.6358098,21.844354 L73.6358098,21.844354 Z M59.4071696,21.844354 L67.9755113,21.844354 L69.1698863,26.3494246 L60.6015445,26.3494246 L59.4071696,21.844354 L59.4071696,21.844354 Z M45.1785293,21.844354 L53.7468711,21.844354 L54.941246,26.3494246 L46.3729042,26.3494246 L45.1785293,21.844354 L45.1785293,21.844354 Z" id="path-1"></path>
    </defs>
    <g id="Page-1" stroke="none" stroke-width="1" fill="none" fill-rule="evenodd">
        <g id="创图" transform="translate(-628.000000, -284.000000)">
            <g id="飞机（动）" transform="translate(628.501653, 283.858675)">
                <rect id="Rectangle-793" fill="#155D8E" x="41.0241818" y="19.3822806" width="61.276626" height="9.42921757"></rect>
                <g id="Group">
                    <g id="Rectangle-792">
                        <mask id="mask-2" fill="white">
                            <use xlink:href="#path-1"></use>
                        </mask>
                        <use id="Mask" fill="#D9D9D9" xlink:href="#path-1"></use>
                        <rect fill="#9B9B9B" mask="url(#mask-2)" x="-5.71222784" y="32.4784161" width="152.152978" height="41.9076336"></rect>
                    </g>
                    <path d="M106.351297,32.5831851 C107.078307,33.6832605 107.545671,35.5167195 107.545671,37.6121012 C107.545671,38.1883311 107.493742,38.7121766 107.441813,39.1836374 C107.286025,40.5980201 106.87059,41.8028645 106.351297,42.6410172 C116.010155,42.4838636 123.332192,40.9123273 126.188306,39.1836374 C126.551811,38.9740993 126.863387,38.7121766 127.071105,38.5026384 C127.382681,38.1883311 127.538469,37.8740239 127.538469,37.6121012 L127.538469,37.5597166 C127.382681,35.3071813 118.814339,32.7927233 106.351297,32.5831851 L106.351297,32.5831851 Z" id="Shape" fill="#359EE6"></path>
                    <path d="M107.961106,39.1836374 C108.013036,38.7121766 108.064965,38.1883311 108.064965,37.6121012 C108.064965,35.2024122 107.389883,33.4737224 106.714802,32.8451079 C106.559014,32.6879542 106.351297,32.5831851 106.195509,32.5831851 L106.143579,32.5831851 C105.935862,32.6355697 105.728144,32.7403388 105.572356,33.0022615 C104.949204,33.7356451 104.377982,35.3595659 104.377982,37.6121012 C104.377982,38.1883311 104.429911,38.7121766 104.48184,39.1836374 C104.689558,40.5980201 105.104992,41.6457109 105.572356,42.2219409 C105.780074,42.4838636 105.987791,42.5886327 106.143579,42.6410172 L106.195509,42.6410172 C106.351297,42.6410172 106.559014,42.5362481 106.714802,42.3790945 C107.234095,41.9076336 107.753389,40.8075582 107.961106,39.1836374 L107.961106,39.1836374 Z" id="Shape" fill="#8BCDFB"></path>
                    <path d="M73.7396685,16.4487462 L78.6210269,7.59575859 L66.3657017,7.59575859 L53.0198603,16.4487462" id="Shape" fill="#359EE6"></path>
                </g>
                <path d="M23.0046994,18.1250515 C25.1338025,17.9155134 26.8994002,18.1250515 26.8994002,20.0632796 C26.8994002,23.4682748 24.0432863,26.3494246 20.5640202,26.3494246 L14.2805696,26.3494246 L12.4630426,26.3494246 C11.8918198,26.3494246 11.2167383,26.4541937 10.7493742,26.5065783 C10.7493742,26.5065783 14.0728522,19.4346651 23.0046994,18.1250515 L23.0046994,18.1250515 Z" id="Shape" fill="#8BCDFB"></path>
            </g>
        </g>
    </g>
</svg>