<?xml version="1.0" encoding="UTF-8" standalone="no"?>
<svg width="123px" height="257px" viewBox="0 0 123 257" version="1.1" xmlns="http://www.w3.org/2000/svg" xmlns:xlink="http://www.w3.org/1999/xlink">
    <!-- Generator: Sketch 3.6.1 (26313) - http://www.bohemiancoding.com/sketch -->
    <title>猫咪气球</title>
    <desc>Created with Sketch.</desc>
    <defs>
        <rect id="path-1" x="0" y="0" width="104" height="82" rx="93"></rect>
    </defs>
    <g id="Page-1" stroke="none" stroke-width="1" fill="none" fill-rule="evenodd">
        <g id="东伶珑" transform="translate(-203.000000, -467.000000)">
            <g id="动物气球（分开动）" transform="translate(204.000000, 382.000000)">
                <g id="猫咪气球" transform="translate(0.000000, 81.000000)">
                    <path d="M82.5722995,99.5997081 C82.5722995,108.999177 82.8959692,118.722765 83.5433086,128.122233 C84.5143178,147.245289 88.3983545,166.044226 89.6930334,185.167283 C91.311382,211.420971 83.2196389,242.212333 66.0651435,262.955987 C65.7414738,263.280107 66.712483,263.604226 67.0361527,263.280107 C82.8959692,244.48117 90.0167031,218.227482 90.9877123,194.242632 C91.6350518,173.823097 86.4563362,153.403562 84.8379875,132.984027 C84.1906481,121.315721 83.5433086,109.647416 83.5433086,98.3032297 C83.5433086,97.3308709 82.5722995,98.9514689 82.5722995,99.5997081 L82.5722995,99.5997081 Z" id="Shape" fill="#102F41" transform="translate(78.521693, 180.707181) scale(-1, 1) rotate(10.000000) translate(-78.521693, -180.707181) "></path>
                    <path d="M109.388411,3.46767711 C101.967018,0.101291563 80.7619705,15.7262608 78,24.1618725 L111.022024,40.4413153 C111.022024,40.4413153 116.809803,6.83406266 109.388411,3.46767711 Z" id="Path-597" fill="#FFD84D" transform="translate(95.585491, 21.720658) rotate(8.000000) translate(-95.585491, -21.720658) "></path>
                    <g id="Rectangle-362-+-Rectangle-362-Copy-2-+-Rectangle-362-Copy-Mask" transform="translate(9.000000, 19.000000)">
                        <mask id="mask-2" fill="white">
                            <use xlink:href="#path-1"></use>
                        </mask>
                        <use id="Mask" fill="#FFD84D" xlink:href="#path-1"></use>
                        <rect id="Rectangle-362" fill="#A58718" mask="url(#mask-2)" x="59" y="-5" width="9" height="24" rx="93"></rect>
                        <rect id="Rectangle-362-Copy-2" fill="#A58718" mask="url(#mask-2)" x="48" y="-5" width="9" height="28" rx="93"></rect>
                        <rect id="Rectangle-362-Copy" fill="#A58718" mask="url(#mask-2)" x="37" y="-5" width="9" height="24" rx="93"></rect>
                    </g>
                    <circle id="Oval-228" fill="#FD9898" cx="30.5" cy="77.5" r="7.5"></circle>
                    <circle id="Oval-228-Copy" fill="#FD9898" cx="88.5" cy="76.5" r="7.5"></circle>
                    <path d="M39.8226818,4.3329824 C32.4012893,0.966596852 11.1962417,16.5915661 8.43427119,25.0271778 L41.4562957,41.3066206 C41.4562957,41.3066206 47.2440742,7.69936795 39.8226818,4.3329824 Z" id="Path-597-Copy-2" fill="#FFD84D" transform="translate(26.019763, 22.585963) scale(-1, 1) rotate(8.000000) translate(-26.019763, -22.585963) "></path>
                    <circle id="Oval-225" fill="#4A4A4A" cx="38" cy="60" r="5"></circle>
                    <circle id="Oval-225-Copy" fill="#4A4A4A" cx="82" cy="60" r="5"></circle>
                    <circle id="Oval-225-Copy-2" fill="#4A4A4A" cx="60.5" cy="63.5" r="4.5"></circle>
                    <path d="M102.406752,15.4327086 C99.0261933,13.8992682 89.366968,21.0166819 88.108848,24.8592328 L103.150888,32.2747693 C103.150888,32.2747693 105.78731,16.966149 102.406752,15.4327086 Z" id="Path-597-Copy" fill="#FFF2C2" transform="translate(96.119310, 23.747222) rotate(8.000000) translate(-96.119310, -23.747222) "></path>
                    <path d="M32.4067516,15.8449515 C29.0261933,14.3115111 19.366968,21.4289248 18.108848,25.2714757 L33.1508879,32.6870123 C33.1508879,32.6870123 35.78731,17.3783919 32.4067516,15.8449515 Z" id="Path-597-Copy-3" fill="#FFF2C2" transform="translate(26.119310, 24.159465) scale(-1, 1) rotate(8.000000) translate(-26.119310, -24.159465) "></path>
                    <path d="M47.3551907,74.0809302 C47.3551907,74.0809302 48.5163035,83.1086079 60.6569981,83.1086084 C72.7976928,83.108609 73.9588056,73.0929081 73.9588056,73.0929081" id="Path-601" stroke="#4A4A4A" stroke-width="3" stroke-linecap="round"></path>
                    <path d="M101.330571,65.5 L119.705347,63.6486902" id="Path-602" stroke="#4A4A4A" stroke-width="3" stroke-linecap="round"></path>
                    <path d="M1.55123094,65.8513098 L19.9260078,64" id="Path-602-Copy-2" stroke="#4A4A4A" stroke-width="3" stroke-linecap="round" transform="translate(10.738619, 64.925655) scale(-1, 1) translate(-10.738619, -64.925655) "></path>
                    <path d="M101,73.5 L117.832222,78.9808083" id="Path-602-Copy" stroke="#4A4A4A" stroke-width="3" stroke-linecap="round"></path>
                    <path d="M0.551230939,74 L17.3834529,79.4808083" id="Path-602-Copy-3" stroke="#4A4A4A" stroke-width="3" stroke-linecap="round" transform="translate(8.967342, 76.740404) scale(-1, 1) translate(-8.967342, -76.740404) "></path>
                </g>
            </g>
        </g>
    </g>
</svg>