<?xml version="1.0" encoding="UTF-8" standalone="no"?>
<svg width="155px" height="321px" viewBox="0 0 155 321" version="1.1" xmlns="http://www.w3.org/2000/svg" xmlns:xlink="http://www.w3.org/1999/xlink">
    <!-- Generator: Sketch 3.6.1 (26313) - http://www.bohemiancoding.com/sketch -->
    <title>水母</title>
    <desc>Created with Sketch.</desc>
    <defs>
        <linearGradient x1="50%" y1="100%" x2="50%" y2="1.50271046%" id="linearGradient-1">
            <stop stop-color="#E3330E" stop-opacity="0.996376812" offset="0%"></stop>
            <stop stop-color="#FF8B09" stop-opacity="0.153674139" offset="100%"></stop>
        </linearGradient>
    </defs>
    <g id="Page-1" stroke="none" stroke-width="1" fill="none" fill-rule="evenodd">
        <g id="东伶珑" transform="translate(-266.000000, -389.000000)">
            <g id="动物气球（分开动）" transform="translate(204.000000, 382.000000)">
                <g id="水母" transform="translate(147.696815, 166.719151) rotate(-6.000000) translate(-147.696815, -166.719151) translate(67.196815, 7.719151)">
                    <path d="M52.3078482,190.603875 C57.1628941,207.751351 57.4900295,226.501209 58.7847084,244.308203 C60.403057,267.391344 53.9298859,294.693667 46.8091519,316.457772 C46.8091519,316.787531 47.7801611,316.787531 48.1038308,316.457772 C54.900895,295.682945 61.0503965,270.029417 60.403057,248.265313 C59.7557176,229.7988 59.4285822,210.059665 54.2498666,192.252671 C43.8924354,155.649405 28.1016321,121.643986 32.9566779,83.0621648 C32.9566779,82.7324057 31.661999,82.7324057 31.661999,83.0621648 C26.8069532,120.984468 41.950417,154.660127 52.3078482,190.603875 Z" id="Shape" fill="#102F41" transform="translate(45.588870, 199.759968) scale(-1, 1) rotate(-11.000000) translate(-45.588870, -199.759968) "></path>
                    <path d="M79.2613515,79.8499357 C77.7699235,78.8487329 74.2286423,78.6184192 74.2286423,78.6184192 C74.2286423,78.6184192 39.9611457,84.700561 36.426226,101.877003 C32.8913064,119.053446 35.2881568,117.326635 43.090367,118.146679 C50.8925772,118.966723 38.8440589,99.937125 76.9452311,84.0578602 C73.7324561,83.5375863 80.8373366,80.907902 79.2613515,79.8499357 Z" id="Path-450" fill="#E78904"></path>
                    <path d="M47.8697133,77.869026 C47.8697133,77.869026 -3.60896579e-07,86.219396 4.12114787e-13,107.552978 C3.60897403e-07,128.886559 13.235148,119.48707 14.4830139,116.780519 C15.7308798,114.073967 6.30486543,94.437193 51.7144075,84.2870795 C97.1239496,74.1369661 47.8697133,77.869026 47.8697133,77.869026 Z" id="Path-451" fill="url(#linearGradient-1)"></path>
                    <path d="M88.5151012,82.3078712 C88.5151012,82.3078712 76.302969,99.9670738 92.3691664,125.667159 C108.435364,151.367243 93.8013992,155.685734 91.1352998,158.972758 C88.4692004,162.259781 92.3691665,171.26256 103.151373,166.249773 C113.93358,161.236987 114.401498,141.8173 98.728098,123.99444 C83.0546979,106.17158 94.8483019,84.967508 94.8483019,84.967508 L88.5151012,82.3078712 Z" id="Path-452" fill="#E78904"></path>
                    <path d="M99.5304608,88.7345079 C96.8096827,98.1873347 99.3282439,101.809196 111.787528,106.525227 C124.712244,111.417431 130.168213,116.991826 132.497694,121.639083 C134.827175,126.28634 133.651483,132.000306 127.857092,128.876735 C122.0627,125.753164 119.550497,116.8105 112.067444,113.535206 C104.58439,110.259912 87.2569749,103.258642 91.4262761,92.2821921 C95.5955773,81.3057426 93.9686391,84.9019171 93.9686391,84.9019171 L99.5304608,88.7345079 Z" id="Path-453" fill="#E78904"></path>
                    <path d="M100.37636,85.1326898 C100.37636,85.1326898 111.690808,96.496446 117.482394,112.356244 C121.966981,124.636928 122.632292,142.651969 121.336793,147.735046 C120.041295,152.818123 114.106816,151.701432 114.106816,146.557145 C114.106816,140.650605 115.569201,130.740619 109.331256,112.356244 C103.09331,93.9718698 91.1766517,82.6927725 91.1766517,82.6927725 L100.37636,85.1326898 Z" id="Path-454" fill="#E78904"></path>
                    <path d="M85.6769077,79.992517 C85.6769077,79.992517 69.1765801,118.065337 71.8116543,130.78915 C74.4467285,143.512964 55.8532784,158.086721 65.9946569,162.154323 C76.1360354,166.221926 83.8720543,148.53491 81.0401127,134.551363 C78.2081711,120.567816 83.8831498,89.1510902 92.8516781,83.5393795 C101.820206,77.9276688 85.6769077,79.992517 85.6769077,79.992517 Z" id="Path-455" fill="#E78904"></path>
                    <path d="M85.8225119,80.2723763 C84.1042017,79.0761245 78.7220938,78.7976018 78.7220938,78.7976018 C78.7220938,78.7976018 59.7767124,96.106792 57.3401303,110.538669 C54.9035482,124.970546 25.5550449,127.399732 30.5638725,141.370824 C35.5727001,155.341917 63.9940619,133.52951 69.245085,115.991552 C74.4961081,98.4535951 70.1488881,97.9194026 87.629723,86.3439074 C87.7872503,86.2395956 88.0171606,81.8002451 85.8225119,80.2723763 Z" id="Path-456" fill="#E78904"></path>
                    <path d="M36.904461,50.5867928 C36.904461,50.5867928 41.7867337,-12.0161505 112.869147,3.41788275 C183.95156,18.8519159 165.104663,119.395907 119.597676,96.7129023 C74.0906901,74.0298974 68.6488232,82.2618382 52.8646612,78.8845735 C37.0804993,75.5073088 36.904461,50.5867928 36.904461,50.5867928 Z" id="Path-168" fill="#FF9600"></path>
                    <g id="表情" transform="translate(53.000000, 35.000000)">
                        <ellipse id="Oval-128" fill-opacity="0.740432518" fill="#FFFFFF" cx="69.2398515" cy="19.8647158" rx="6.57203503" ry="6.56886778"></ellipse>
                        <ellipse id="Oval-128-Copy" fill-opacity="0.740432518" fill="#FFFFFF" cx="27.1788273" cy="6.72698025" rx="6.57203503" ry="6.56886778"></ellipse>
                        <path d="M36.2484906,25.1901903 C36.2484906,25.1901903 36.6482221,32.0295764 43.1929241,34.8772015 C49.7376261,37.7248266 55.7772114,31.3249342 55.7772114,31.3249342" id="Path-458" stroke="#FFFFFF" stroke-width="2" stroke-linecap="round" stroke-linejoin="bevel" opacity="0.796408582"></path>
                        <ellipse id="Oval-130" fill="#D4001A" cx="8.11992576" cy="21.8353761" rx="7.22923853" ry="7.22575456"></ellipse>
                        <ellipse id="Oval-130-Copy" fill="#D4001A" cx="72.525869" cy="38.9144324" rx="7.22923853" ry="7.22575456"></ellipse>
                    </g>
                </g>
            </g>
        </g>
    </g>
</svg>