<?xml version="1.0" encoding="UTF-8" standalone="no"?>
<svg width="207px" height="314px" viewBox="0 0 207 314" version="1.1" xmlns="http://www.w3.org/2000/svg" xmlns:xlink="http://www.w3.org/1999/xlink">
    <!-- Generator: Sketch 3.6.1 (26313) - http://www.bohemiancoding.com/sketch -->
    <title>点击热气球</title>
    <desc>Created with Sketch.</desc>
    <defs></defs>
    <g id="Page-1" stroke="none" stroke-width="1" fill="none" fill-rule="evenodd">
        <g id="东伶珑" transform="translate(-1085.000000, -307.000000)">
            <g id="点击热气球" transform="translate(1085.000000, 307.000000)">
                <g id="热气球">
                    <path d="M90.675,291.165414 L87.35,260.657143 L88.5375,260.657143 L91.8625,291.165414 L90.675,291.165414 L90.675,291.165414 L90.675,291.165414 Z M104.2125,291.165414 L104.2125,260.657143 L103.025,260.657143 L103.025,291.165414 L104.2125,291.165414 L104.2125,291.165414 L104.2125,291.165414 Z M116.5625,291.165414 L119.8875,260.657143 L118.7,260.657143 L115.375,291.165414 L116.5625,291.165414 L116.5625,291.165414 Z" id="Shape" stroke="#C7B299" stroke-width="0.95" fill="#FFCE85"></path>
                    <path d="M194.4625,45.4308271 C208.2375,70.6954887 209.6625,104.06391 199.2125,135.76391 C177.6,200.832331 122.5,247.786466 103.5,247.786466 C84.7375,247.786466 29.4,200.832331 7.7875,135.76391 C-2.425,104.540602 -1.475,71.887218 11.5875,46.8609023 C22.9875,24.6947368 54.575,-2 81.4125,0.860150376 C87.825,1.57518797 96.375,1.81353383 103.2625,4.19699248 C108.725,1.81353383 116.8,1.57518797 122.2625,0.621804511 C148.15,-4.14511278 183.0625,24.456391 194.4625,45.4308271 L194.4625,45.4308271 Z" id="Shape" fill="#D64752"></path>
                    <path d="M117.75,291.165414 C117.75,292.118797 117.9875,293.310526 117.9875,294.26391 C117.9875,302.367669 114.9,309.518045 110.625,313.331579 L96.6125,313.331579 C92.1,309.518045 89.25,302.606015 89.25,294.26391 C89.25,293.310526 89.25,292.118797 89.4875,291.165414 L117.75,291.165414 L117.75,291.165414 Z" id="Shape" fill="#855B5E"></path>
                    <path d="M162.4,21.5962406 C189,46.8609023 195.8875,92.3849624 183.775,135.76391 C165.725,200.832331 119.4125,247.786466 103.7375,247.786466 C87.825,247.786466 41.75,200.832331 23.7,135.76391 C11.825,92.8616541 18.2375,47.8142857 44.125,22.3112782 C56.475,10.1556391 72.625,-1.76165414 90.675,1.33684211 C94.7125,2.0518797 99.9375,2.0518797 103.975,3.48195489 C107.5375,1.33684211 112.2875,1.33684211 116.325,0.621804511 C132.95,-2 151.95,11.5857143 162.4,21.5962406 L162.4,21.5962406 Z" id="Shape" fill="#ED8E98"></path>
                    <path d="M149.3375,27.0781955 C164.775,53.0578947 168.1,95.4834586 160.2625,135.76391 C147.4375,200.832331 114.9,247.786466 103.7375,247.786466 C92.575,247.786466 59.8,200.832331 47.2125,135.76391 C39.1375,95.0067669 42.9375,52.1045113 58.6125,26.3631579 C67.6375,11.5857143 84.5,-2 99.7,1.33684211 C100.8875,1.57518797 102.3125,2.0518797 103.5,2.76691729 C104.6875,2.0518797 105.6375,1.57518797 107.0625,1.09849624 C122.7375,-3.66842105 141.025,13.2541353 149.3375,27.0781955 L149.3375,27.0781955 Z" id="Shape" fill="#D64752"></path>
                    <path d="M114.425,6.81879699 C128.2,24.6947368 132.7125,81.6593985 127.9625,135.76391 C122.5,200.832331 108.25,247.786466 103.5,247.786466 C98.75,247.786466 84.5,200.832331 79.0375,135.76391 C74.525,81.4210526 78.8,23.5030075 92.8125,6.58045113 C99.225,-1.04661654 108.4875,-0.808270677 114.425,6.81879699 L114.425,6.81879699 Z" id="Shape" fill="#ED8E98"></path>
                    <path d="M159.075,206.790977 L123.2125,252.791729 L84.025,252.791729 L48.1625,206.790977 L159.075,206.790977 Z" id="Shape" fill="#EFC12E"></path>
                    <rect id="Rectangle-path" fill="#855B5E" x="85.2125" y="252.791729" width="37.05" height="9.53383459"></rect>
                </g>
                <circle id="Oval-310" stroke="#F4F4F4" stroke-width="5" fill="#AC3740" cx="105" cy="96" r="75"></circle>
                <text id="请点击" font-family="PingFangSC-Light, PingFang SC" font-size="30" font-weight="300" line-spacing="35" fill="#FFFFFF">
                    <tspan x="58" y="96">请点击</tspan>
                    <tspan x="73" y="131">这里</tspan>
                </text>
            </g>
        </g>
    </g>
</svg>