<?xml version="1.0" encoding="UTF-8" standalone="no"?>
<svg width="125px" height="130px" viewBox="0 0 125 130" version="1.1" xmlns="http://www.w3.org/2000/svg" xmlns:xlink="http://www.w3.org/1999/xlink">
    <!-- Generator: Sketch 3.6.1 (26313) - http://www.bohemiancoding.com/sketch -->
    <title>飞船（左右移动）</title>
    <desc>Created with Sketch.</desc>
    <defs></defs>
    <g id="Page-1" stroke="none" stroke-width="1" fill="none" fill-rule="evenodd">
        <g id="玩聚号" transform="translate(-987.000000, -313.000000)">
            <g id="飞船（左右移动）" transform="translate(1049.500000, 378.000000) scale(-1, 1) translate(-1049.500000, -378.000000) translate(987.000000, 313.000000)">
                <path d="M85.147439,108.3984 L96.5016057,108.3984 L96.5016057,122.9404 L81.3046443,124.9124 L85.147439,108.3984 Z" id="Fill-1" fill="#9F9FA0"></path>
                <g id="Group-71">
                    <path d="M101.996662,115.668 C101.996662,119.684 99.5355912,122.942 96.5018059,122.942 C93.4660182,122.942 91.0089525,119.684 91.0089525,115.668 C91.0089525,111.652 93.4660182,108.398 96.5018059,108.398 C99.5355912,108.398 101.996662,111.652 101.996662,115.668" id="Fill-4" fill="#848485"></path>
                    <path d="M99.2510362,115.668 C99.2510362,117.676 98.0194996,119.304 96.5016057,119.304 C94.9837118,119.304 93.7541777,117.676 93.7541777,115.668 C93.7541777,113.66 94.9837118,112.032 96.5016057,112.032 C98.0194996,112.032 99.2510362,113.66 99.2510362,115.668" id="Fill-8" fill="#4B4644"></path>
                    <path d="M37.0582378,106.0664 L37.0582378,81.3564 C37.0582378,81.0824 37.2825176,80.8584 37.5608649,80.8584 C37.8352072,80.8584 38.0614896,81.0824 38.0614896,81.3564 L38.0614896,106.0664 C38.0614896,106.3404 37.8352072,106.5664 37.5608649,106.5664 C37.2825176,106.5664 37.0582378,106.3404 37.0582378,106.0664" id="Fill-12" fill="#630F17"></path>
                    <path d="M50.0666685,106.0664 L50.0666685,81.3564 C50.0666685,81.0824 50.2909483,80.8584 50.5652906,80.8584 C50.8416354,80.8584 51.0679178,81.0824 51.0679178,81.3564 L51.0679178,106.0664 C51.0679178,106.3424 50.8416354,106.5664 50.5652906,106.5664 C50.2909483,106.5664 50.0666685,106.3424 50.0666685,106.0664" id="Fill-14" fill="#630F17"></path>
                    <path d="M89.3324607,106.0664 L62.5530478,106.0664 L35.7756375,106.0664 C35.7756375,106.0664 32.2071851,129.5004 62.5530478,129.5004 C92.9029156,129.5004 89.3324607,106.0664 89.3324607,106.0664" id="Fill-16" fill="#9F6918"></path>
                    <path d="M87.3005254,106.0644 L87.3005254,78.0764 C87.3005254,77.8004 87.5248053,77.5744 87.8011501,77.5744 C88.0794974,77.5744 88.3037772,77.8004 88.3037772,78.0764 L88.3037772,106.0644 C88.3037772,106.3404 88.0794974,106.5664 87.8011501,106.5664 C87.5248053,106.5664 87.3005254,106.3404 87.3005254,106.0644" id="Fill-21" fill="#630F17"></path>
                    <path d="M74.2940972,106.0664 L74.2940972,81.3564 C74.2940972,81.0824 74.5163746,80.8564 74.7967244,80.8564 C75.0690642,80.8564 75.297349,81.0824 75.297349,81.3564 L75.297349,106.0664 C75.297349,106.3404 75.0690642,106.5664 74.7967244,106.5664 C74.5163746,106.5664 74.2940972,106.3404 74.2940972,106.0664" id="Fill-23" fill="#630F17"></path>
                    <path d="M87.8011501,107.498 C83.3395833,137.408 48.7444187,125.204 48.7444187,125.204 L57.867802,108.532 L87.8011501,107.498 Z" id="Fill-25" fill="#89551A"></path>
                    <path d="M104.810773,22.5742 C104.810773,22.5742 118.327638,20.1022 122.663047,22.5742 C126.998457,25.0482 122.663047,43.7302 122.663047,43.7302 L104.810773,22.5742 Z" id="Fill-27" fill="#81B318"></path>
                    <path d="M106.78784,24.582 C106.78784,24.582 117.601332,22.604 121.071662,24.582 C124.539989,26.558 121.071662,41.506 121.071662,41.506 L106.78784,24.582 Z" id="Fill-32" fill="#78C423"></path>
                    <path d="M104.810773,64.8866 C104.810773,64.8866 118.327638,67.3586 122.663047,64.8866 C126.998457,62.4146 122.663047,43.7306 122.663047,43.7306 L104.810773,64.8866 Z" id="Fill-34" fill="#81B318"></path>
                    <path d="M106.78784,62.8828 C106.78784,62.8828 117.601332,64.8588 121.071662,62.8828 C124.539989,60.9028 121.071662,45.9568 121.071662,45.9568 L106.78784,62.8828 Z" id="Fill-38" fill="#78C423"></path>
                    <path d="M58.3952601,0.871 C9.93880071,0.871 0.503027631,43.731 0.503027631,43.731 C0.503027631,43.731 9.93880071,86.593 58.3952601,86.593 C95.6297178,86.593 124.447674,43.731 124.447674,43.731 C124.447674,43.731 95.6297178,0.871 58.3952601,0.871" id="Fill-40" fill="#95D328"></path>
                    <path d="M1.05812022,41.703 C65.2942681,60.895 122.663848,43.731 122.663848,43.731 C122.663848,43.731 95.7002058,83.327 59.8134296,84.969 C13.2473288,84.969 3.11468621,48.499 1.05812022,41.703" id="Fill-45" fill="#78C423"></path>
                    <path d="M0.182027116,44.1172 C-0.0322402263,43.9412 -0.0602752058,43.6252 0.115944665,43.4112 C11.3299364,29.8372 30.1133726,20.9492 53.8890377,20.9492 C74.3305427,20.9492 98.4666575,27.5152 124.707398,43.3052 C124.943693,43.4452 125.019788,43.7532 124.877611,43.9912 C124.733431,44.2272 124.425046,44.3012 124.188751,44.1592 C98.0781728,28.4452 74.1182779,21.9472 53.8890377,21.9492 C30.35968,21.9492 11.8846285,30.7352 0.886906599,44.0512 L0.888909098,44.0512 C0.788784171,44.1672 0.646606775,44.2312 0.500424383,44.2312 C0.388284465,44.2312 0.276144547,44.1932 0.182027116,44.1172" id="Fill-47" fill="#FEFEFE"></path>
                    <path d="M0.119549162,44.0546 C-0.0586732069,43.8446 -0.032640726,43.5266 0.175619121,43.3466 C0.387883965,43.1706 0.704278733,43.1946 0.882501102,43.4086 C13.6083793,58.4486 34.2661541,68.2646 58.1379391,68.2646 C78.7496565,68.2646 101.76237,60.9486 124.140291,43.3386 C124.35656,43.1686 124.670953,43.2026 124.841165,43.4226 C125.009375,43.6386 124.975333,43.9526 124.755058,44.1226 C102.224947,61.8566 78.9859513,69.2646 58.1379391,69.2646 C33.9918118,69.2646 13.0556897,59.3366 0.119549162,44.0546" id="Fill-49" fill="#FEFEFE"></path>
                    <path d="M0.342427249,44.205 C0.0800999412,44.117 -0.0600749559,43.833 0.0260324809,43.573 C0.112139918,43.313 0.396494709,43.169 0.658822016,43.257 C13.006228,47.381 35.7345863,48.913 58.3568122,48.907 C73.8721708,48.911 89.3554894,48.195 101.464598,47.129 C113.535659,46.087 122.396715,44.585 124.166924,43.319 C124.393206,43.165 124.705596,43.221 124.863793,43.449 C125.015983,43.675 124.957911,43.989 124.729626,44.143 C122.3847,45.695 113.731904,47.031 101.552708,48.125 C89.4095569,49.195 73.9022083,49.907 58.3568122,49.911 C35.6765138,49.905 12.9401455,48.399 0.342427249,44.205" id="Fill-51" fill="#FEFEFE"></path>
                    <path d="M24.5093805,77.2988 C24.2550632,77.1868 24.1409208,76.8908 24.2530607,76.6408 C27.7033657,68.7668 32.0848325,54.2588 32.08283,39.3728 C32.08283,29.1868 30.038279,18.8408 24.2951132,10.2808 L24.2991182,10.2808 C24.1409208,10.0528 24.2050007,9.7428 24.4332856,9.5888 C24.6615704,9.4328 24.9719577,9.4968 25.1281526,9.7268 C31.0175007,18.5088 33.0820767,29.0588 33.0860817,39.3728 C33.0800742,54.4508 28.6705725,69.0468 25.170205,77.0388 C25.0881026,77.2288 24.9038727,77.3408 24.7116329,77.3408 C24.6435479,77.3408 24.575463,77.3288 24.5093805,77.2988" id="Fill-53" fill="#FEFEFE"></path>
                    <path d="M93.7051165,74.746 C93.4407867,74.652 93.3066193,74.366 93.3987342,74.108 C96.0860872,66.582 98.0505383,54.008 98.0465333,41.564 C98.0525408,30.95 96.6187518,20.41 93.0723269,13.168 C92.9501745,12.918 93.0543045,12.622 93.3026143,12.5 C93.5509241,12.378 93.8492964,12.48 93.9734513,12.73 C97.6280111,20.214 99.0477826,30.86 99.0477826,41.564 C99.0477826,54.12 97.0833315,66.746 94.341911,74.444 C94.2678186,74.646 94.0755787,74.774 93.8693214,74.774 C93.8152539,74.774 93.7591839,74.766 93.7051165,74.746" id="Fill-55" fill="#FEFEFE"></path>
                </g>
            </g>
        </g>
    </g>
</svg>