<?xml version="1.0" encoding="UTF-8" standalone="no"?>
<svg width="1440px" height="327px" viewBox="0 0 1440 327" version="1.1" xmlns="http://www.w3.org/2000/svg" xmlns:xlink="http://www.w3.org/1999/xlink">
    <!-- Generator: Sketch 3.6.1 (26313) - http://www.bohemiancoding.com/sketch -->
    <title>远景</title>
    <desc>Created with Sketch.</desc>
    <defs></defs>
    <g id="Page-1" stroke="none" stroke-width="1" fill="none" fill-rule="evenodd">
        <g id="玩聚号" transform="translate(0.000000, -608.000000)">
            <g id="远景" transform="translate(-1.000000, 608.000000)">
                <path d="M1420.07878,248.28887 L1420.07878,139.897807 L1374.81902,139.897807 L1374.81902,197.009583 L1367.17507,197.009583 L1367.17507,153.64973 L1352.19086,153.64973 L1352.19086,197.009583 L1329.55927,197.009583 L1329.55927,155.030748 L1284.29951,155.030748 L1284.29951,206.046169 L1259.10449,206.046169 L1259.10449,163.118099 L1184.7308,163.118099 L1184.7308,206.046169 L1139.81764,206.046169 L1139.81764,139.897807 L1121.37091,139.897807 L1121.37091,95.2991504 L1113.0046,95.2991504 L1113.0046,139.897807 L1094.55788,139.897807 L1094.55788,245.730732 L1065.64126,157.030311 L1003.60084,169.176759 L1003.60084,126.803837 L988.61663,126.803837 L988.61663,172.110137 L969.337738,175.886518 L969.337738,143.538828 L954.350098,143.538828 L954.350098,178.819897 L940.187765,181.593926 L940.187765,132.117158 L909.267072,132.117158 L909.267072,187.647446 L868.689775,195.592583 L868.689775,135.110506 L850.548468,135.110506 L850.548468,123.286182 L829.10765,123.286182 L829.10765,99.3445393 L793.2334,99.3445393 L793.2334,87.0884331 L733.23823,87.0884331 L733.23823,41.6125048 L706.722033,41.6125048 L706.722033,0.504088697 L691.737825,0.504088697 L691.737825,41.6125048 L665.943985,41.6125048 L665.943985,99.3445393 L626.351566,99.3445393 L626.351566,139.897807 L583.811376,139.897807 L583.811376,115.95445 L538.551621,115.95445 L538.551621,147.104459 L515.947481,147.104459 L515.947481,194.107046 L411.12151,194.107046 L411.12151,99.3445393 L379.789021,99.3445393 L379.789021,194.107046 L359.523536,194.107046 L359.523536,112.611564 L328.189331,112.611564 L328.189331,194.107046 L253.336923,194.107046 L253.336923,123.286182 L216.781495,123.286182 L216.781495,51.8930357 L185.447291,51.8930357 L185.447291,123.286182 L162.817413,123.286182 L162.817413,82.7346282 L153.533141,82.7346282 L153.533141,76.2356193 L138.548933,76.2356193 L138.548933,82.7346282 L125.05062,82.7346282 L125.05062,64.8139495 L110.066412,64.8139495 L110.066412,82.7346282 L99.5707748,82.7346282 L99.5707748,52.3796474 L84.5865667,52.3796474 L84.5865667,82.7346282 L72.299619,82.7346282 L72.299619,152.152199 L57.0717653,152.152199 L57.0717653,84.2304455 L42.0875572,84.2304455 L42.0875572,152.152199 L34.4418878,152.152199 L34.4418878,248.28887 L0.000343162901,248.28887 L0.000343162901,325.550487 L1442.1493,325.550487 L1442.1493,248.28887 L1420.07878,248.28887 Z" id="Fill-1" fill="#EBEBEB"></path>
                <g id="房子2" transform="translate(219.361351, 24.285714)">
                    <path d="M34.639377,59.8180637 L55.5644019,64.769196 L55.5644019,48.5038565 L34.639377,48.5038565 L34.639377,59.8180637 Z" id="Path-237" fill="#ADADAD"></path>
                    <path d="M55.4184803,65.5886022 L90.0045284,73.0981488 L90.0045284,16.2269553 L55.4184803,0.753384482 L55.4184803,65.5886022 Z" id="Path-238" fill="#E7E7E7"></path>
                    <path d="M0.443598824,115.924674 L20.6448558,115.924674 L20.6448558,56.8396189 L91.0311482,72.5673599 L90.8837683,174.975383 L1.34684775,174.975383 L0.443598824,115.924674 Z" id="Rectangle-130" fill="#D8D8D8"></path>
                    <rect id="Rectangle-148-Copy" fill="#F7F7F7" x="27.4907551" y="119.333512" width="12.2453776" height="12.2333512"></rect>
                    <rect id="Rectangle-148-Copy-2" fill="#F7F7F7" x="47.8588214" y="119.333512" width="12.2453776" height="12.2333512"></rect>
                    <rect id="Rectangle-148-Copy-3" fill="#F7F7F7" x="71.2268878" y="119.333512" width="12.2453776" height="12.2333512"></rect>
                    <rect id="Rectangle-148-Copy-17" fill="#F7F7F7" x="47.8588214" y="99.4543161" width="12.2453776" height="12.2333512"></rect>
                    <rect id="Rectangle-148-Copy-16" fill="#F7F7F7" x="71.2268878" y="99.4543161" width="12.2453776" height="12.2333512"></rect>
                    <rect id="Rectangle-148-Copy-20" fill="#F7F7F7" x="47.8588214" y="81.1042893" width="12.2453776" height="12.2333512"></rect>
                    <rect id="Rectangle-148-Copy-19" fill="#F7F7F7" x="71.2268878" y="81.1042893" width="12.2453776" height="12.2333512"></rect>
                    <rect id="Rectangle-148-Copy-9" fill="#F7F7F7" x="6.12268878" y="140.741876" width="12.2453776" height="12.2333512"></rect>
                    <rect id="Rectangle-148-Copy-8" fill="#F7F7F7" x="27.4907551" y="140.741876" width="12.2453776" height="12.2333512"></rect>
                    <rect id="Rectangle-148-Copy-7" fill="#F7F7F7" x="47.8588214" y="140.741876" width="12.2453776" height="12.2333512"></rect>
                    <rect id="Rectangle-148-Copy-6" fill="#F7F7F7" x="71.2268878" y="140.741876" width="12.2453776" height="12.2333512"></rect>
                    <rect id="Rectangle-148-Copy-14" fill="#F7F7F7" x="6.12268878" y="160.621072" width="12.2453776" height="12.2333512"></rect>
                    <rect id="Rectangle-148-Copy-13" fill="#F7F7F7" x="27.4907551" y="160.621072" width="12.2453776" height="12.2333512"></rect>
                    <rect id="Rectangle-148-Copy-12" fill="#F7F7F7" x="47.8588214" y="160.621072" width="12.2453776" height="12.2333512"></rect>
                    <rect id="Rectangle-148-Copy-11" fill="#F7F7F7" x="71.2268878" y="160.621072" width="12.2453776" height="12.2333512"></rect>
                    <rect id="Rectangle-132" fill="#ADADAD" x="90.0749955" y="130.508525" width="34.5956011" height="36.7000535"></rect>
                    <rect id="Rectangle-131" fill="#A3A3A3" x="31.8730076" y="165.67941" width="92.6421123" height="9.17501338"></rect>
                </g>
                <g id="房子1" transform="translate(1035.000000, 87.000000)">
                    <path d="M5.84737838,240 L113.734459,240 L113.734459,51.8112 L5.84737838,51.8112 L5.84737838,240 Z" id="Fill-1" fill="#FAF1DA"></path>
                    <path d="M14.6001081,81.3136 L24.3143784,81.3136 L24.3143784,65.0624 L14.6001081,65.0624 L14.6001081,81.3136 Z" id="Fill-2" fill="#BCE4E8"></path>
                    <path d="M41.4897568,81.3136 L51.204027,81.3136 L51.204027,65.0624 L41.4897568,65.0624 L41.4897568,81.3136 Z" id="Fill-3" fill="#BCE4E8"></path>
                    <path d="M68.3778108,81.3136 L78.0920811,81.3136 L78.0920811,65.0624 L68.3778108,65.0624 L68.3778108,81.3136 Z" id="Fill-4" fill="#BCE4E8"></path>
                    <path d="M95.2690541,81.3136 L104.983324,81.3136 L104.983324,65.0624 L95.2690541,65.0624 L95.2690541,81.3136 Z" id="Fill-5" fill="#BCE4E8"></path>
                    <path d="M14.6001081,106.0448 L24.3143784,106.0448 L24.3143784,89.7968 L14.6001081,89.7968 L14.6001081,106.0448 Z" id="Fill-6" fill="#BCE4E8"></path>
                    <path d="M41.4897568,106.0448 L51.204027,106.0448 L51.204027,89.7968 L41.4897568,89.7968 L41.4897568,106.0448 Z" id="Fill-7" fill="#BCE4E8"></path>
                    <path d="M68.3778108,106.0448 L78.0920811,106.0448 L78.0920811,89.7968 L68.3778108,89.7968 L68.3778108,106.0448 Z" id="Fill-8" fill="#BCE4E8"></path>
                    <path d="M95.2690541,106.0448 L104.983324,106.0448 L104.983324,89.7968 L95.2690541,89.7968 L95.2690541,106.0448 Z" id="Fill-9" fill="#BCE4E8"></path>
                    <path d="M14.6001081,130.776 L24.3143784,130.776 L24.3143784,114.5264 L14.6001081,114.5264 L14.6001081,130.776 Z" id="Fill-10" fill="#BCE4E8"></path>
                    <path d="M41.4897568,130.776 L51.204027,130.776 L51.204027,114.5264 L41.4897568,114.5264 L41.4897568,130.776 Z" id="Fill-11" fill="#BCE4E8"></path>
                    <path d="M68.3778108,130.776 L78.0920811,130.776 L78.0920811,114.5264 L68.3778108,114.5264 L68.3778108,130.776 Z" id="Fill-12" fill="#BCE4E8"></path>
                    <path d="M95.2690541,130.776 L104.983324,130.776 L104.983324,114.5264 L95.2690541,114.5264 L95.2690541,130.776 Z" id="Fill-13" fill="#BCE4E8"></path>
                    <path d="M14.6001081,155.5072 L24.3143784,155.5072 L24.3143784,139.2592 L14.6001081,139.2592 L14.6001081,155.5072 Z" id="Fill-14" fill="#BCE4E8"></path>
                    <path d="M41.4897568,155.5072 L51.204027,155.5072 L51.204027,139.2592 L41.4897568,139.2592 L41.4897568,155.5072 Z" id="Fill-15" fill="#BCE4E8"></path>
                    <path d="M68.3778108,155.5072 L78.0920811,155.5072 L78.0920811,139.2592 L68.3778108,139.2592 L68.3778108,155.5072 Z" id="Fill-16" fill="#BCE4E8"></path>
                    <path d="M95.2690541,155.5072 L104.983324,155.5072 L104.983324,139.2592 L95.2690541,139.2592 L95.2690541,155.5072 Z" id="Fill-17" fill="#BCE4E8"></path>
                    <path d="M14.6001081,180.2384 L24.3143784,180.2384 L24.3143784,163.9904 L14.6001081,163.9904 L14.6001081,180.2384 Z" id="Fill-18" fill="#BCE4E8"></path>
                    <path d="M41.4897568,180.2384 L51.204027,180.2384 L51.204027,163.9904 L41.4897568,163.9904 L41.4897568,180.2384 Z" id="Fill-19" fill="#BCE4E8"></path>
                    <path d="M68.3778108,180.2384 L78.0920811,180.2384 L78.0920811,163.9904 L68.3778108,163.9904 L68.3778108,180.2384 Z" id="Fill-20" fill="#BCE4E8"></path>
                    <path d="M95.2690541,180.2384 L104.983324,180.2384 L104.983324,163.9904 L95.2690541,163.9904 L95.2690541,180.2384 Z" id="Fill-21" fill="#BCE4E8"></path>
                    <path d="M14.6001081,204.968 L24.3143784,204.968 L24.3143784,188.7184 L14.6001081,188.7184 L14.6001081,204.968 Z" id="Fill-22" fill="#BCE4E8"></path>
                    <path d="M41.4897568,204.968 L51.204027,204.968 L51.204027,188.7184 L41.4897568,188.7184 L41.4897568,204.968 Z" id="Fill-23" fill="#BCE4E8"></path>
                    <path d="M68.3778108,204.968 L78.0920811,204.968 L78.0920811,188.7184 L68.3778108,188.7184 L68.3778108,204.968 Z" id="Fill-24" fill="#BCE4E8"></path>
                    <path d="M95.2690541,204.968 L104.983324,204.968 L104.983324,188.7184 L95.2690541,188.7184 L95.2690541,204.968 Z" id="Fill-25" fill="#BCE4E8"></path>
                    <path d="M0,136.0656 L117.387676,136.0656 L117.387676,133.9696 L0,133.9696 L0,136.0656 Z" id="Fill-26" fill="#B8A36D"></path>
                    <path d="M0,51.8112 L117.387676,51.8112 L117.387676,45.6192 L0,45.6192 L0,51.8112 Z" id="Fill-27" fill="#967D82"></path>
                    <g id="Group-35" transform="translate(5.000000, 0.000000)">
                        <g id="Group-30" fill="#BDA9A6">
                            <path d="M91.0518405,26.66176 C85.8423,11.59456 71.5818405,0.77376 54.7923541,0.77376 C38.001273,0.77376 23.7408135,11.59456 18.531273,26.66176 L0.848813514,26.66176 L0.848813514,45.61856 L108.735895,45.61856 L108.735895,26.66176 L91.0518405,26.66176 Z" id="Fill-28"></path>
                        </g>
                        <path d="M83.5631459,39.28448 C83.5631459,23.34048 70.6820108,10.41408 54.7934703,10.41408 C38.9001459,10.41408 26.0190108,23.34048 26.0190108,39.28448" id="Fill-31" fill="#967D82"></path>
                        <path d="M0.847378378,227.3856 L108.734459,227.3856 L108.734459,240 L0.847378378,240 L0.847378378,227.3856 Z" id="Fill-33" fill="#F3DBBD"></path>
                    </g>
                </g>
            </g>
        </g>
    </g>
</svg>