<?xml version="1.0" encoding="UTF-8" standalone="no"?>
<svg width="205px" height="318px" viewBox="0 0 205 318" version="1.1" xmlns="http://www.w3.org/2000/svg" xmlns:xlink="http://www.w3.org/1999/xlink">
    <!-- Generator: Sketch 3.6.1 (26313) - http://www.bohemiancoding.com/sketch -->
    <title>椰子树 copy</title>
    <desc>Created with Sketch.</desc>
    <defs></defs>
    <g id="Page-1" stroke="none" stroke-width="1" fill="none" fill-rule="evenodd">
        <g id="玩聚号" transform="translate(-1202.000000, -616.000000)">
            <g id="椰子树-copy" transform="translate(1202.000000, 616.000000)">
                <path d="M61.9809631,53.8450476 C61.9556092,53.8158707 61.9302554,53.7828037 61.9064862,53.755572 C61.9365938,53.7769683 61.9556092,53.7925293 61.9825477,53.8080902 C61.9825477,53.819761 61.9809631,53.835322 61.9809631,53.8450476 M139.474994,38.8364866 C132.101778,29.1633951 118.028809,18.331011 104.416963,17.4129134 C85.5584554,16.1038463 69.8818554,27.3233098 64.2327015,42.0439927 C64.1344554,36.5101207 64.8522862,31.0015354 65.7872092,27.9107366 C68.7155785,18.2259744 77.1790092,5.46208415 93.0647785,0.715986585 C82.44944,-0.694226829 67.2799169,0.91049878 58.9765323,7.86236463 C50.3673169,15.0379195 47.4215169,25.1875659 49.2359015,34.6175171 C43.9242708,27.7979195 34.7541015,23.5906207 24.9912862,25.3373402 C16.9113323,26.7650598 9.45413231,34.26545 5.89667077,40.6259988 C15.7292092,34.121511 27.6962246,35.1640963 35.2992092,37.8289134 C37.6808862,38.6730963 41.4950554,40.6396146 45.0335015,43.0632366 C33.4800708,39.6087 20.0900708,41.4351695 10.4492708,49.9509134 C1.92879385,57.441578 -0.811006154,71.7732366 0.199978462,81.9540049 C6.60974769,67.1166146 21.8410708,59.8282427 33.1837477,57.6069134 C37.4146708,56.7821817 45.3868708,56.4378951 52.7379015,57.2315049 C46.8890862,59.1396695 41.5013938,62.034011 37.9962246,66.0098402 C23.4272708,82.4363951 32.9238708,107.477895 54.7519477,113.352163 L54.5808092,112.945633 C48.8540092,107.275602 47.20284,91.3236573 48.0379323,84.9008646 C49.07744,76.9764378 53.2449785,66.6478402 62.4214862,59.2952793 C64.5369477,59.4003159 76.3835323,60.74245 87.4663323,67.3792061 C96.6887938,72.9072427 106.903225,84.6869012 106.462702,99.8627427 C111.509702,91.2633585 114.967332,77.7642122 110.555763,68.3225902 C104.30604,54.8662366 88.58824,48.6651878 74.1729938,50.9896085 C79.7936246,45.844761 86.4299938,41.3573646 90.5309785,39.400572 C102.361717,33.7636085 121.760578,30.0173037 139.474994,38.8364866" id="Fill-1" fill="#44AF35"></path>
                <g id="Group-5" transform="translate(57.798561, 53.685714)" fill="#7F4E21">
                    <path d="M56.7951188,191.053796 C42.2325035,41.394168 1.16085731,1.11069242 0.853441926,1.14181437 C14.5001496,31.85529 22.9493188,55.7997412 31.6742112,108.463918 C41.0060112,164.959985 40.9727342,248.563272 44.0674881,256.701662 C46.2241496,262.361967 51.7512881,265.304936 55.9077342,264.013375 C58.7172573,263.355924 61.5251958,261.445814 62.9386727,258.646784 C65.895565,252.782241 67.8097804,193.177869 77.4585035,152.725168 C86.4702112,115.011199 94.5771035,97.7657473 107.475873,75.6146985 C107.21758,75.5952473 74.5982727,101.169711 56.7951188,191.053796" id="Fill-3"></path>
                </g>
                <path d="M161.718874,131.232891 C161.739474,131.223166 161.758489,131.215385 161.780674,131.20177 C161.758489,131.223166 161.739474,131.240672 161.717289,131.258178 C161.717289,131.248452 161.718874,131.240672 161.718874,131.232891 M142.579889,117.475044 C145.345043,119.371538 149.640935,123.411556 153.10332,127.817257 C142.777966,124.524166 130.359335,127.375715 123.960658,136.616989 C119.449258,143.098135 120.206705,153.434513 122.788043,160.329971 C124.478828,149.079385 133.57452,141.514806 141.118874,138.455129 C150.176535,134.771068 159.091582,135.074507 160.668274,135.237898 C166.455289,141.662635 168.157166,149.736837 167.870351,155.698635 C167.627905,160.530318 164.287535,172.111574 159.308674,175.661422 L159.126443,175.95319 C176.012105,174.011959 186.35172,156.57394 177.785289,142.858885 C175.731628,139.546343 172.142474,136.827062 168.084274,134.771068 C173.606658,134.990867 179.442797,136.120983 182.455151,137.192745 C190.525597,140.067635 200.785982,147.124538 203.547966,158.758312 C205.642828,151.364904 205.53032,140.491672 200.247212,134.041648 C194.26212,126.696867 184.635582,123.878385 175.647643,125.164111 C178.58552,123.769459 181.65492,122.736599 183.526351,122.374806 C189.490843,121.23691 198.459766,121.789324 204.842597,127.661648 C203.066243,122.579044 198.559597,116.232111 192.790012,114.292824 C185.825628,111.931446 178.501535,114.030233 173.676382,118.480672 C176.267228,111.717483 175.451151,103.913654 170.055535,97.6795378 C164.851658,91.637989 153.878197,88.7942207 145.858458,88.6638976 C156.942843,93.9060012 161.48752,104.25016 162.357474,111.717483 C162.634782,114.098312 162.428782,118.241422 161.625382,122.312562 C159.421182,110.830507 149.346197,100.834526 135.26372,99.7374768 C125.099997,98.9205256 113.285105,105.37055 106.552074,111.699977 C120.794597,107.130885 134.601351,112.028702 142.579889,117.475044" id="Fill-6" fill="#44AF35"></path>
            </g>
        </g>
    </g>
</svg>