<?xml version="1.0" encoding="utf-8"?>
<!-- Generator: Adobe Illustrator 19.0.0, SVG Export Plug-In . SVG Version: 6.00 Build 0)  -->
<svg version="1.1" id="图层_1" xmlns="http://www.w3.org/2000/svg" xmlns:xlink="http://www.w3.org/1999/xlink" x="0px" y="0px"
	 viewBox="0 0 173 127" style="enable-background:new 0 0 173 127;" xml:space="preserve">
<style type="text/css">
	.st0{fill-rule:evenodd;clip-rule:evenodd;fill:#EB7C20;}
	.st1{fill-rule:evenodd;clip-rule:evenodd;fill:#67C3C6;}
	.st2{fill-rule:evenodd;clip-rule:evenodd;fill:#DE473C;}
	.st3{fill:#A1DFFB;}
	.st4{fill:none;}
</style>
<g id="XMLID_173_">
	<polygon id="XMLID_129_" class="st0" points="89.7,51.9 131.9,9.7 171.4,62.7 142.7,91.4 	"/>
	<path id="XMLID_124_" class="st1" d="M141.9,23.9c3.3-3.6,8.4-6.8,13.3-8c3-0.7,6.1-0.7,8.8,0.4c2.8,1.1,5.2,3.4,6.7,7.1
		c2.6,6.4,2.6,17.6-2.5,35.8c-1.5-0.4-3.2-2.5-3.9-5.3c3.7-14.7,3.7-23.6,1.7-28.6c-0.9-2.3-2.3-3.6-3.8-4.3
		c-1.6-0.7-3.6-0.6-5.7-0.1c-4.3,1.1-8.8,4.1-11.4,7.2C143.2,27.7,142.1,26.4,141.9,23.9"/>
	<path id="XMLID_119_" class="st1" d="M75,78.3l0.5-7.4l41.3,1.3c8,1.3,14.9,7.4,17.6,13.1L75,78.3z"/>
	<path id="XMLID_114_" class="st0" d="M115.2,35.2c11.6-11.6,19.2-23.1,16.7-25.5c-2.4-2.4-13.9,5.1-25.5,16.7
		C94.8,38,87.2,49.5,89.7,51.9C92.1,54.3,103.5,46.8,115.2,35.2"/>
	<path id="XMLID_109_" class="st0" d="M69.2,60c2.6,0.2,9.5,7,8.7,14.3c-0.8,7.3-8.2,12.6-11.6,12.2C64.5,86.3,66.6,59.8,69.2,60"/>
	<path id="XMLID_104_" class="st2" d="M65.1,73c0.8-7.3,2.6-13.1,4.1-13c1.5,0.2,2,6.2,1.3,13.5c-0.8,7.3-2.6,13.1-4.1,13
		C64.9,86.4,64.3,80.3,65.1,73"/>
	<path id="XMLID_99_" class="st2" d="M114.3,34.3c11-11,18.4-21.6,16.4-23.5c-1.9-1.9-12.5,5.4-23.5,16.4
		c-11,11-18.4,21.6-16.4,23.5C92.8,52.7,103.3,45.3,114.3,34.3"/>
	<path id="XMLID_94_" class="st0" d="M107.6,26.5c0.6-0.6,1.2-1.2,1.8-1.8l3.9,11.1c-11.1,10.7-21.2,17.7-23.2,15.7
		C88,49.4,95.9,38.2,107.6,26.5"/>
	<path id="XMLID_89_" class="st1" d="M114,42.7C103.5,30.5,93.3,16.2,89,8.6c-1.4-2.5-2.2-4.4-2.2-5.5c-0.1-2.7,1.3-3.2,4.6-0.8
		c3,2.3,8.9,8.2,19.1,20.1l-2.1,2c-9-10.5-14.6-16.3-17.7-19c0.3,0.5,0.6,1.1,0.9,1.7c4.2,7.5,14.2,21.6,24.6,33.7L114,42.7z"/>
	<path id="XMLID_84_" class="st0" d="M159.6,79.6c7.9-7.9,13.2-15.5,11.8-16.9c-1.4-1.4-9,3.9-16.9,11.8
		c-7.9,7.9-13.2,15.5-11.8,16.9C144,92.8,151.6,87.5,159.6,79.6"/>
	<path id="XMLID_81_" class="st3" d="M2.9,106.6c-0.5,0-1-0.2-1.4-0.6c-0.6-0.6-0.7-1.4-0.5-2.1c0.1-0.2,0.3-1,0.7-2.1
		c0.4-1,1.5-1.6,2.6-1.2c1,0.4,1.6,1.5,1.2,2.6c-0.4,1.1-0.6,1.9-0.7,2c-0.1,0.3-0.3,0.6-0.5,0.8C3.9,106.4,3.4,106.6,2.9,106.6z
		 M8.6,93.6c-0.3,0-0.7-0.1-1-0.2c-1-0.5-1.3-1.8-0.8-2.7c0.5-0.9,1-1.8,1.5-2.7c0.6-0.9,1.8-1.2,2.7-0.7c0.9,0.6,1.2,1.8,0.7,2.7
		c-0.5,0.9-1,1.7-1.5,2.5C10,93.2,9.3,93.6,8.6,93.6z M17.3,81.4c-0.5,0-1-0.2-1.4-0.5c-0.8-0.8-0.8-2-0.1-2.8
		c0.7-0.8,1.5-1.5,2.2-2.2c0.8-0.7,2.1-0.7,2.8,0.1c0.7,0.8,0.7,2.1-0.1,2.8c-0.7,0.6-1.4,1.3-2,2C18.4,81.2,17.9,81.4,17.3,81.4z
		 M29.7,73.1c-0.8,0-1.5-0.5-1.8-1.2c-0.4-1,0.1-2.2,1.1-2.6c0.9-0.4,1.9-0.8,2.9-1.1c1-0.4,2.2,0.2,2.6,1.2s-0.2,2.2-1.2,2.6
		c-0.9,0.3-1.9,0.7-2.7,1.1C30.2,73.1,29.9,73.1,29.7,73.1z M44,68.8c-0.9,0-1.7-0.6-2-1.6c-0.2-1.1,0.4-2.1,1.5-2.4
		c1-0.2,2-0.4,3-0.6c1.1-0.2,2.1,0.5,2.3,1.6c0.2,1.1-0.5,2.1-1.6,2.3c-0.9,0.2-1.9,0.4-2.9,0.6C44.3,68.8,44.2,68.8,44,68.8z
		 M58.9,66.4c-1,0-1.9-0.8-2-1.8c-0.1-1.1,0.7-2.1,1.8-2.2c1.9-0.2,3.1-0.3,3.1-0.3c1.1-0.1,2.1,0.8,2.1,1.9
		c0.1,1.1-0.8,2.1-1.9,2.1c0,0-1.1,0.1-2.9,0.3C59,66.4,58.9,66.4,58.9,66.4z"/>
	<path id="XMLID_80_" class="st3" d="M2.9,116.6c-0.5,0-1-0.2-1.4-0.6c-0.6-0.6-0.7-1.4-0.5-2.1c0.1-0.2,0.3-1,0.7-2.1
		c0.4-1,1.5-1.6,2.6-1.2c1,0.4,1.6,1.5,1.2,2.6c-0.4,1.1-0.6,1.9-0.7,2c-0.1,0.3-0.3,0.6-0.5,0.8C3.9,116.4,3.4,116.6,2.9,116.6z
		 M8.6,103.6c-0.3,0-0.7-0.1-1-0.2c-1-0.5-1.3-1.8-0.8-2.7c0.5-0.9,1-1.8,1.5-2.7c0.6-0.9,1.8-1.2,2.7-0.7c0.9,0.6,1.2,1.8,0.7,2.7
		c-0.5,0.9-1,1.7-1.5,2.5C10,103.2,9.3,103.6,8.6,103.6z M17.3,91.5c-0.5,0-1-0.2-1.4-0.5c-0.8-0.8-0.8-2-0.1-2.8
		c0.7-0.8,1.5-1.5,2.2-2.2c0.8-0.7,2.1-0.7,2.8,0.1c0.7,0.8,0.7,2.1-0.1,2.8c-0.7,0.6-1.4,1.3-2,2C18.4,91.2,17.9,91.5,17.3,91.5z
		 M29.7,83.1c-0.8,0-1.5-0.5-1.8-1.2c-0.4-1,0.1-2.2,1.1-2.6c0.9-0.4,1.9-0.8,2.9-1.1c1-0.4,2.2,0.2,2.6,1.2c0.4,1-0.2,2.2-1.2,2.6
		c-0.9,0.3-1.9,0.7-2.7,1.1C30.2,83.1,29.9,83.1,29.7,83.1z M44,78.8c-0.9,0-1.7-0.6-2-1.6c-0.2-1.1,0.4-2.1,1.5-2.4
		c1-0.2,2-0.4,3-0.6c1.1-0.2,2.1,0.5,2.3,1.6c0.2,1.1-0.5,2.1-1.6,2.3c-0.9,0.2-1.9,0.4-2.9,0.6C44.3,78.8,44.2,78.8,44,78.8z
		 M58.9,76.4c-1,0-1.9-0.8-2-1.8c-0.1-1.1,0.7-2.1,1.8-2.2c1.9-0.2,3.1-0.3,3.1-0.3c1.1-0.1,2.1,0.8,2.1,1.9
		c0.1,1.1-0.8,2.1-1.9,2.1c0,0-1.1,0.1-2.9,0.3C59,76.4,58.9,76.4,58.9,76.4z"/>
	<path id="XMLID_76_" class="st3" d="M2.9,126.6c-0.2,0-0.4,0-0.6-0.1c-1.1-0.3-1.7-1.4-1.3-2.5c0,0,0.2-0.8,0.8-2.2
		c0.4-1,1.5-1.6,2.6-1.2c1,0.4,1.6,1.5,1.2,2.6c-0.5,1.2-0.7,2-0.7,2C4.6,126.1,3.8,126.6,2.9,126.6z M8.6,113.6
		c-0.3,0-0.7-0.1-1-0.2c-1-0.5-1.3-1.8-0.8-2.7c0.5-0.9,1-1.8,1.5-2.7c0.6-0.9,1.8-1.2,2.7-0.7c0.9,0.6,1.2,1.8,0.7,2.7
		c-0.5,0.9-1,1.7-1.5,2.5C10,113.2,9.3,113.6,8.6,113.6z M17.3,101.5c-0.5,0-1-0.2-1.4-0.5c-0.8-0.8-0.8-2-0.1-2.8
		c0.7-0.8,1.5-1.5,2.2-2.2c0.8-0.7,2.1-0.7,2.8,0.1c0.7,0.8,0.7,2.1-0.1,2.8c-0.7,0.6-1.4,1.3-2,2C18.4,101.2,17.9,101.5,17.3,101.5
		z M29.7,93.1c-0.8,0-1.5-0.5-1.8-1.2c-0.4-1,0.1-2.2,1.1-2.6c0.9-0.4,1.9-0.8,2.9-1.1c1-0.4,2.2,0.2,2.6,1.2s-0.2,2.2-1.2,2.6
		c-0.9,0.3-1.8,0.7-2.7,1.1C30.2,93.1,29.9,93.1,29.7,93.1z M44,88.8c-0.9,0-1.7-0.6-2-1.6c-0.2-1.1,0.4-2.1,1.5-2.4
		c1-0.2,2-0.4,3-0.6c1.1-0.2,2.1,0.5,2.3,1.6c0.2,1.1-0.5,2.1-1.6,2.3c-0.9,0.2-1.9,0.4-2.9,0.6C44.3,88.8,44.2,88.8,44,88.8z
		 M58.9,86.4c-1,0-1.9-0.8-2-1.8c-0.1-1.1,0.7-2.1,1.8-2.2c1.9-0.2,3.1-0.3,3.1-0.3c1.1-0.1,2.1,0.8,2.1,1.9
		c0.1,1.1-0.8,2.1-1.9,2.1c0,0-1.1,0.1-2.9,0.3C59,86.4,58.9,86.4,58.9,86.4z"/>
	<rect id="XMLID_79_" x="0" y="0" class="st4" width="173" height="127"/>
	<rect id="XMLID_77_" x="0" y="0" class="st4" width="173" height="127"/>
</g>
</svg>
