<?xml version="1.0" encoding="UTF-8" standalone="no"?>
<svg width="142px" height="75px" viewBox="0 0 142 75" version="1.1" xmlns="http://www.w3.org/2000/svg" xmlns:xlink="http://www.w3.org/1999/xlink">
    <!-- Generator: Sketch 3.6.1 (26313) - http://www.bohemiancoding.com/sketch -->
    <title>土壤和草</title>
    <desc>Created with Sketch.</desc>
    <defs>
        <path id="path-1" d="M0,0.410022989 L62.8416,0.410022989 L62.8416,51.4022989 L0,51.4022989 L0,0.410022989 Z"></path>
    </defs>
    <g id="Page-1" stroke="none" stroke-width="1" fill="none" fill-rule="evenodd">
        <g id="奇思能达" transform="translate(-457.000000, -355.000000)">
            <g id="3（水壶浇水，树枝摇动）" transform="translate(441.000000, 220.000000)">
                <g id="土壤和草" transform="translate(16.000000, 134.000000)">
                    <g id="草2" transform="translate(50.000000, 37.000000)">
                        <path d="M22.2873,38.1333333 C22.2303,38.1345792 22.3693,32.5432792 22.0613,25.1417833 C21.5223,17.6792417 21.3113,8.69366875 16.0023,0.782627083 C15.8513,0.707877083 23.9713,4.04172708 29.4003,11.3672271 C35.0683,18.5014917 38.5923,28.5298271 38.2623,37.7782708 L22.2873,38.1333333 Z" id="Fill-3" fill="#7DDC2F"></path>
                        <path d="M0.654,37.7026488 C0.752,37.7151071 0.46,33.0052342 2.967,26.570505 C4.233,23.39363 6.46,19.7726154 10.108,16.718455 C13.689,13.6443613 19.003,11.4379904 23.932,10.9714258 C24.043,11.0274883 19.859,14.0361758 18.395,19.0039363 C16.648,23.9405508 17.218,30.6948363 16.637,37.5687217 L0.654,37.7026488 Z" id="Fill-6-Copy" fill="#7DDC2F" transform="translate(12.294083, 24.337050) scale(-1, 1) translate(-12.294083, -24.337050) "></path>
                        <path d="M11.287076,38.2186016 C11.230076,38.2198474 11.369076,32.6285474 11.061076,25.2270516 C10.522076,17.7645099 10.311076,8.77893701 5.00207597,0.86789534 C4.85107597,0.79314534 12.971076,4.12699534 18.400076,11.4524953 C24.068076,18.5867599 27.592076,28.6150953 27.262076,37.8635391 L11.287076,38.2186016 Z" id="Fill-3-Copy-2" fill="#A5DC45"></path>
                        <path d="M30.654,37.7026488 C30.752,37.7151071 30.46,33.0052342 32.967,26.570505 C34.233,23.39363 36.46,19.7726154 40.108,16.718455 C43.689,13.6443613 49.003,11.4379904 53.932,10.9714258 C54.043,11.0274883 49.859,14.0361758 48.395,19.0039363 C46.648,23.9405508 47.218,30.6948363 46.637,37.5687217 L30.654,37.7026488 Z" id="Fill-6" fill="#A5DC45"></path>
                    </g>
                    <g id="草1" transform="translate(88.000000, 37.000000)">
                        <path d="M22.2873,38.1333333 C22.2303,38.1345792 22.3693,32.5432792 22.0613,25.1417833 C21.5223,17.6792417 21.3113,8.69366875 16.0023,0.782627083 C15.8513,0.707877083 23.9713,4.04172708 29.4003,11.3672271 C35.0683,18.5014917 38.5923,28.5298271 38.2623,37.7782708 L22.2873,38.1333333 Z" id="Fill-3" fill="#7DDC2F"></path>
                        <path d="M0.654,37.7026488 C0.752,37.7151071 0.46,33.0052342 2.967,26.570505 C4.233,23.39363 6.46,19.7726154 10.108,16.718455 C13.689,13.6443613 19.003,11.4379904 23.932,10.9714258 C24.043,11.0274883 19.859,14.0361758 18.395,19.0039363 C16.648,23.9405508 17.218,30.6948363 16.637,37.5687217 L0.654,37.7026488 Z" id="Fill-6-Copy" fill="#7DDC2F" transform="translate(12.294083, 24.337050) scale(-1, 1) translate(-12.294083, -24.337050) "></path>
                        <path d="M11.287076,38.2186016 C11.230076,38.2198474 11.369076,32.6285474 11.061076,25.2270516 C10.522076,17.7645099 10.311076,8.77893701 5.00207597,0.86789534 C4.85107597,0.79314534 12.971076,4.12699534 18.400076,11.4524953 C24.068076,18.5867599 27.592076,28.6150953 27.262076,37.8635391 L11.287076,38.2186016 Z" id="Fill-3-Copy-2" fill="#A5DC45"></path>
                        <path d="M30.654,37.7026488 C30.752,37.7151071 30.46,33.0052342 32.967,26.570505 C34.233,23.39363 36.46,19.7726154 40.108,16.718455 C43.689,13.6443613 49.003,11.4379904 53.932,10.9714258 C54.043,11.0274883 49.859,14.0361758 48.395,19.0039363 C46.648,23.9405508 47.218,30.6948363 46.637,37.5687217 L30.654,37.7026488 Z" id="Fill-6" fill="#6EC844"></path>
                    </g>
                    <g id="发芽" transform="translate(13.000000, 0.000000)">
                        <path d="M57.0271815,13.9637292 C50.0368858,15.5833125 34.5155348,9.10091667 29.7788269,10.9974271 C26.3849828,12.3563333 25.6162858,15.0457083 23.9974451,17.6010208 C22.476879,20.0026354 19.7945171,19.5009167 17.5362174,19.9132604 C12.5363217,20.8273229 9.55173129,23.972375 7.94769905,28.5602917 C7.15746243,30.8210729 6.49781006,33.4434167 8.11328525,35.4665417 C9.81222666,37.5946146 12.1304336,35.9533646 14.0575608,35.4137292 C28.7381916,31.3038333 43.4067063,27.1465417 58.0328148,22.8470625 C60.358426,22.1632083 64.4778877,22.5491458 64.3311487,19.4826354 C64.1581583,15.8602396 59.9612883,13.2839375 57.0271815,13.9637292" id="Fill-12" fill="#71543B"></path>
                        <g id="Group-16" transform="translate(0.918699, 0.567901)" fill="#F8C900">
                            <path d="M66.5904931,0.622650849 L63.8596669,19.9330675 L45.9103913,8.88306752 L38.9423084,25.4492654 L28.4094101,19.0305154 L25.7169515,28.0587446 L11.3567233,19.0305154 L7.76700278,34.6034321 L-6.73114666e-05,26.6348383 C-0.0256456686,42.8503071 3.83130135,55.6715571 11.3762436,64.1472863 C17.9364191,71.5234321 27.3391578,75.4322342 38.5458438,75.4322342 C40.8970333,75.4322342 43.3565943,75.2670258 45.8713507,74.9366092 L47.7850157,74.6061925 C61.1234558,71.0833279 70.4716722,63.8168696 74.9000936,53.5231717 C80.8039823,39.7614529 77.9068968,21.4856196 66.5904931,0.622650849" id="Fill-14"></path>
                        </g>
                        <g id="Page-1" transform="translate(47.000000, 24.000000)">
                            <mask id="mask-2" fill="white">
                                <use xlink:href="#path-1"></use>
                            </mask>
                            <g id="Clip-2"></g>
                            <path d="M46.3380922,32.61516 L40.8065676,21.8839144 L35.9247716,26.4234283 L31.7943883,18.676555 L21.5992352,26.2701248 L14.600212,13 L6.00861387,23.81006 C5.86300975,28.1251453 7.47038381,45.416724 17.9863434,51.6690082 C18.9210741,52.2250338 19.9150013,52.679658 20.9347076,53.0136578 C33.968425,57.8141241 47.8528525,43.7438415 50.8799861,39.7353632 C52.8148501,37.1517906 54.5224762,34.5999359 56,32.091333 L54.1143072,24.4016482 L46.3380922,32.61516 Z" id="Fill-1" fill="#FFDF51" mask="url(#mask-2)"></path>
                        </g>
                    </g>
                    <g id="草3" transform="translate(0.000000, 37.000000)">
                        <path d="M22.2873,38.1333333 C22.2303,38.1345792 22.3693,32.5432792 22.0613,25.1417833 C21.5223,17.6792417 21.3113,8.69366875 16.0023,0.782627083 C15.8513,0.707877083 23.9713,4.04172708 29.4003,11.3672271 C35.0683,18.5014917 38.5923,28.5298271 38.2623,37.7782708 L22.2873,38.1333333 Z" id="Fill-3" fill="#7DDC2F"></path>
                        <path d="M0.654,37.7026488 C0.752,37.7151071 0.46,33.0052342 2.967,26.570505 C4.233,23.39363 6.46,19.7726154 10.108,16.718455 C13.689,13.6443613 19.003,11.4379904 23.932,10.9714258 C24.043,11.0274883 19.859,14.0361758 18.395,19.0039363 C16.648,23.9405508 17.218,30.6948363 16.637,37.5687217 L0.654,37.7026488 Z" id="Fill-6-Copy" fill="#7DDC2F" transform="translate(12.294083, 24.337050) scale(-1, 1) translate(-12.294083, -24.337050) "></path>
                        <path d="M11.287076,38.2186016 C11.230076,38.2198474 11.369076,32.6285474 11.061076,25.2270516 C10.522076,17.7645099 10.311076,8.77893701 5.00207597,0.86789534 C4.85107597,0.79314534 12.971076,4.12699534 18.400076,11.4524953 C24.068076,18.5867599 27.592076,28.6150953 27.262076,37.8635391 L11.287076,38.2186016 Z" id="Fill-3-Copy-2" fill="#6EC844"></path>
                        <path d="M30.654,37.7026488 C30.752,37.7151071 30.46,33.0052342 32.967,26.570505 C34.233,23.39363 36.46,19.7726154 40.108,16.718455 C43.689,13.6443613 49.003,11.4379904 53.932,10.9714258 C54.043,11.0274883 49.859,14.0361758 48.395,19.0039363 C46.648,23.9405508 47.218,30.6948363 46.637,37.5687217 L30.654,37.7026488 Z" id="Fill-6" fill="#6EC844"></path>
                    </g>
                </g>
            </g>
        </g>
    </g>
</svg>