<?xml version="1.0" encoding="UTF-8" standalone="no"?>
<svg width="120px" height="245px" viewBox="0 0 120 245" version="1.1" xmlns="http://www.w3.org/2000/svg" xmlns:xlink="http://www.w3.org/1999/xlink">
    <!-- Generator: Sketch 3.6.1 (26313) - http://www.bohemiancoding.com/sketch -->
    <title>点击</title>
    <desc>Created with Sketch.</desc>
    <defs>
        <filter x="-50%" y="-50%" width="200%" height="200%" filterUnits="objectBoundingBox" id="filter-1">
            <feOffset dx="0" dy="2" in="SourceAlpha" result="shadowOffsetOuter1"></feOffset>
            <feGaussianBlur stdDeviation="0" in="shadowOffsetOuter1" result="shadowBlurOuter1"></feGaussianBlur>
            <feColorMatrix values="0 0 0 0 0.63145727   0 0 0 0 0.213774597   0 0 0 0 0.213774597  0 0 0 0.7 0" in="shadowBlurOuter1" type="matrix" result="shadowMatrixOuter1"></feColorMatrix>
            <feMerge>
                <feMergeNode in="shadowMatrixOuter1"></feMergeNode>
                <feMergeNode in="SourceGraphic"></feMergeNode>
            </feMerge>
        </filter>
        <linearGradient x1="50.1643077%" y1="3.29282736%" x2="50.1643062%" y2="194.455369%" id="linearGradient-2">
            <stop stop-color="#2CA6E0" offset="0%"></stop>
            <stop stop-color="#114B67" offset="100%"></stop>
        </linearGradient>
        <linearGradient x1="50.1643077%" y1="3.29282736%" x2="50.1643062%" y2="151.646839%" id="linearGradient-3">
            <stop stop-color="#2CA6E0" offset="0%"></stop>
            <stop stop-color="#114B67" offset="100%"></stop>
        </linearGradient>
    </defs>
    <g id="Page-1" stroke="none" stroke-width="1" fill="none" fill-rule="evenodd">
        <g id="奇思能达" transform="translate(-1181.000000, -690.000000)">
            <g id="点击" transform="translate(1181.000000, 690.000000)">
                <path d="M31.6460691,107.604493 C37.3213435,114.194576 49.4173435,116.925423 53.0361807,117.014383 L53.0361833,244.246095 L100.244574,244.246095 L100.244571,94.3839413 C101.533288,93.6020273 26.7725063,94.3839413 26.7725063,94.3839413 C26.7725063,94.3839413 26.4654179,101.589724 31.6460691,107.604493 Z" id="Fill-1" fill="#134E6B"></path>
                <path d="M120,103 L0,103 L0,25 L120,25 L120,103 Z" id="Fill-5" fill="#F65D40" filter="url(#filter-1)"></path>
                <text font-family="PingFangSC-Semibold, PingFang SC" font-size="36" font-weight="500" fill="#FFFFFF">
                    <tspan x="22" y="80">点击</tspan>
                </text>
                <path d="M116.598753,100.134463 C116.598753,100.134463 116.751711,75.3906288 116.751711,74.8270186 C116.751711,69.5912379 112.501702,65.3463108 107.258344,65.3463108 C102.366614,65.3463108 98.3416461,69.0428446 97.8247531,73.7910995 L97.722195,96.6895928 C97.4391345,96.7194413 97.1566601,96.7457783 96.8712554,96.7838205 C79.2236368,99.1254658 73.0326415,105.397166 70.8695438,111.834495 C69.8123159,114.981465 69.7173763,118.168233 69.7173763,120.95468 L69.8703357,244.457029 L116.751712,244.457029 L116.598753,100.134463 Z" id="Fill-7" fill="url(#linearGradient-2)"></path>
                <g id="Group" transform="translate(9.000000, 0.000000)">
                    <path d="M98.7533601,25.464135 L80.1432306,4.83074868 L64.0842083,10.3668301 L58.9300464,4.69515831 L42.9496129,11.4179182 L36.7542809,3.26515285 L21.8150176,13.1700822 L15.6196855,3.26515285 L15.6196855,25.464135 L98.7533601,25.464135 Z" id="Fill-3" fill="#134E6B"></path>
                    <path d="M81.2110367,8.95217051 C81.2110367,4.25065312 77.3860283,0.438881866 72.667006,0.438881866 C68.2644488,0.438881866 64.6419781,3.75821831 64.1767743,8.02195748 L64.084472,8.02195748 L64.084472,36.0124355 L64.1630609,36.0124355 C64.5602246,40.3465975 68.2138143,43.7426634 72.667006,43.7426634 C77.3860283,43.7426634 81.2110367,39.9308922 81.2110367,35.2293748 L81.2110367,8.95217051 Z" id="Fill-8" fill="url(#linearGradient-3)"></path>
                    <path d="M60.0764413,8.95217051 C60.0764413,4.25065312 56.2514329,0.438881866 51.5324106,0.438881866 C47.1298534,0.438881866 43.5073827,3.75821831 43.042179,8.02195748 L42.9498767,8.02195748 L42.9498767,36.0124355 L43.0284655,36.0124355 C43.4256292,40.3465975 47.079219,43.7426634 51.5324106,43.7426634 C56.2514329,43.7426634 60.0764413,39.9308922 60.0764413,35.2293748 L60.0764413,8.95217051 Z" id="Fill-9" fill="url(#linearGradient-3)"></path>
                    <path d="M38.941846,8.95217051 C38.941846,4.25065312 35.1168376,0.438881866 30.3978153,0.438881866 C25.9952581,0.438881866 22.3727874,3.75821831 21.9075836,8.02195748 L21.8152813,8.02195748 L21.8152813,36.0124355 L21.8938702,36.0124355 C22.2910339,40.3465975 25.9446236,43.7426634 30.3978153,43.7426634 C35.1168376,43.7426634 38.941846,39.9308922 38.941846,35.2293748 L38.941846,8.95217051 Z" id="Fill-10" fill="url(#linearGradient-3)"></path>
                    <path d="M17.8072506,8.95217051 C17.8072506,4.25065312 13.9822422,0.438881866 9.26321992,0.438881866 C4.86066271,0.438881866 1.23819201,3.75821831 0.772988292,8.02195748 L0.680685967,8.02195748 L0.680685967,36.0124355 L0.759274804,36.0124355 C1.15643852,40.3465975 4.81002829,43.7426634 9.26321992,43.7426634 C13.9822422,43.7426634 17.8072506,39.9308922 17.8072506,35.2293748 L17.8072506,8.95217051 Z" id="Fill-11" fill="url(#linearGradient-3)"></path>
                </g>
            </g>
        </g>
    </g>
</svg>