<?xml version="1.0" encoding="UTF-8" standalone="no"?>
<svg width="125px" height="469px" viewBox="0 0 125 469" version="1.1" xmlns="http://www.w3.org/2000/svg" xmlns:xlink="http://www.w3.org/1999/xlink">
    <!-- Generator: Sketch 3.6.1 (26313) - http://www.bohemiancoding.com/sketch -->
    <title>手 copy 14</title>
    <desc>Created with Sketch.</desc>
    <defs>
        <linearGradient x1="50.1643077%" y1="3.29282736%" x2="50.1649231%" y2="98.7532944%" id="linearGradient-1">
            <stop stop-color="#2CA6E0" offset="0%"></stop>
            <stop stop-color="#114B67" offset="100%"></stop>
        </linearGradient>
    </defs>
    <g id="Page-1" stroke="none" stroke-width="1" fill="none" fill-rule="evenodd">
        <g id="奇思能达" transform="translate(-733.000000, -555.000000)">
            <g id="1（动）" transform="translate(231.000000, 555.000000)">
                <g id="手-copy-14" transform="translate(502.000000, 0.000000)">
                    <path d="M0,116.719512 C0,122.455285 4.35082873,127.223577 9.94475138,127.845528 L9.94475138,127.98374 L75.8977901,127.98374 L75.8977901,105.731707 C75.8977901,105.731707 11.878453,105.52439 11.1878453,105.52439 C4.97237569,105.52439 0,110.569106 0,116.719512 L0,116.719512 Z" id="Shape" fill="#1F90C6"></path>
                    <path d="M0,91.3577236 C0,97.0934959 4.35082873,101.861789 9.94475138,102.48374 L9.94475138,102.621951 L75.8977901,102.621951 L75.8977901,80.3699187 C75.8977901,80.3699187 11.878453,80.1626016 11.1878453,80.1626016 C4.97237569,80.1626016 0,85.2073171 0,91.3577236 L0,91.3577236 Z" id="Shape" fill="#1F90C6"></path>
                    <path d="M113.190608,28.7479675 C107.458564,28.7479675 102.69337,33.101626 102.071823,38.699187 L101.933702,38.699187 L101.933702,111.605691 L124.171271,111.605691 C124.171271,111.605691 124.378453,40.6341463 124.378453,39.9430894 C124.378453,33.7926829 119.406077,28.7479675 113.190608,28.7479675 L113.190608,28.7479675 Z" id="Shape" fill="#2A9ED6"></path>
                    <path d="M100.345304,31.7195122 C96.6850829,25.0162602 78.660221,0.138211382 56.9060773,0.138211382 C54.9723757,0.138211382 53.038674,0.345528455 51.1740331,0.760162602 C26.8646409,5.25203252 18.2320442,39.2520325 17.1961326,48.097561 C14.019337,76.2235772 18.6464088,98.1300813 30.5939227,111.46748 C38.8812155,120.727642 50.7596685,125.634146 64.9171271,125.634146 C67.8867403,125.634146 70.9944751,125.426829 74.1712707,125.012195 L76.5883978,124.597561 C93.4392265,120.174797 105.248619,111.052846 110.842541,98.1300813 C118.301105,80.8536585 114.640884,57.9105691 100.345304,31.7195122 L100.345304,31.7195122 Z" id="Shape" fill="#F9CA00"></path>
                    <path d="M106.491713,109.325203 L94.6132597,112.089431 C94.6132597,112.089431 94.820442,82.8577236 94.820442,82.2357724 C94.820442,76.0853659 89.7790055,71.0406504 83.6325967,71.0406504 C77.9005525,71.0406504 73.1353591,75.3943089 72.5138122,80.9918699 L72.3756906,108.012195 C72.0303867,108.081301 71.6850829,108.081301 71.339779,108.150407 C50.5524862,110.914634 43.2320442,118.308943 40.6767956,125.910569 C39.4337017,129.642276 39.2955801,133.373984 39.2955801,136.691057 L42.2651957,469.000001 L106.284533,469.000001 L103.314917,139.247967 C103.798343,136 104.765193,131.162602 106.28453,127.845528 C107.527624,125.288618 111.049724,121.487805 115.19337,121.487805 C125.759669,119.207317 124.240331,109.53252 124.240331,109.53252 L106.491713,109.325203 Z" id="Shape" fill="url(#linearGradient-1)"></path>
                </g>
            </g>
        </g>
    </g>
</svg>