<?xml version="1.0" encoding="UTF-8" standalone="no"?>
<svg width="111px" height="354px" viewBox="0 0 111 354" version="1.1" xmlns="http://www.w3.org/2000/svg" xmlns:xlink="http://www.w3.org/1999/xlink">
    <!-- Generator: Sketch 3.6.1 (26313) - http://www.bohemiancoding.com/sketch -->
    <title>手 copy 21</title>
    <desc>Created with Sketch.</desc>
    <defs>
        <linearGradient x1="50.1643077%" y1="3.29282736%" x2="50.1649231%" y2="98.7532944%" id="linearGradient-1">
            <stop stop-color="#2CA6E0" offset="0%"></stop>
            <stop stop-color="#114B67" offset="100%"></stop>
        </linearGradient>
    </defs>
    <g id="Page-1" stroke="none" stroke-width="1" fill="none" fill-rule="evenodd">
        <g id="奇思能达" transform="translate(-231.000000, -670.000000)">
            <g id="1（动）" transform="translate(231.000000, 555.000000)">
                <g id="手-copy-21" transform="translate(0.000000, 115.000000)">
                    <path d="M0,104.028086 C0,109.140182 3.86353591,113.389998 8.83093923,113.944321 L8.83093923,114.067504 L67.3972376,114.067504 L67.3972376,94.2350333 C67.3972376,94.2350333 10.5480663,94.0502587 9.93480663,94.0502587 C4.41546961,94.0502587 0,98.54644 0,104.028086 L0,104.028086 Z" id="Shape" fill="#2CA6E0"></path>
                    <path d="M0,81.4239961 C0,86.5360926 3.86353591,90.7859079 8.83093923,91.3402316 L8.83093923,91.4634146 L67.3972376,91.4634146 L67.3972376,71.6309436 C67.3972376,71.6309436 10.5480663,71.446169 9.93480663,71.446169 C4.41546961,71.446169 0,75.9423503 0,81.4239961 L0,81.4239961 Z" id="Shape" fill="#2CA6E0"></path>
                    <path d="M100.51326,25.6220744 C95.4232044,25.6220744 91.1917127,29.5023405 90.639779,34.491254 L90.5171271,34.491254 L90.5171271,99.4703129 L110.264088,99.4703129 C110.264088,99.4703129 110.448066,36.2158167 110.448066,35.5999015 C110.448066,30.1182557 106.032597,25.6220744 100.51326,25.6220744 L100.51326,25.6220744 Z" id="Shape" fill="#2A9ED6"></path>
                    <path d="M89.1066298,28.27051 C85.8563536,22.2961321 69.8502762,0.12318305 50.5325967,0.12318305 C48.8154696,0.12318305 47.0983425,0.307957625 45.4425414,0.677506775 C23.8558011,4.6809559 16.1900552,34.9839862 15.2701657,42.8677014 C12.4491713,67.9354521 16.558011,87.4599655 27.1674033,99.3471298 C34.5265193,107.600394 45.0745856,111.973392 57.6464088,111.973392 C60.2834254,111.973392 63.0430939,111.788618 65.8640884,111.419069 L68.0104972,111.04952 C82.9740331,107.107662 93.4607735,98.9775807 98.4281768,87.4599655 C105.051381,72.0620843 101.801105,51.613698 89.1066298,28.27051 L89.1066298,28.27051 Z" id="Shape" fill="#F9CA00"></path>
                    <path d="M94.5646409,97.4377926 L84.0165746,99.9014536 C84.0165746,99.9014536 84.2005525,73.8482385 84.2005525,73.2939148 C84.2005525,67.812269 79.7237569,63.3160877 74.2657459,63.3160877 C69.1756906,63.3160877 64.9441989,67.1963538 64.3922652,72.1852673 L64.2696133,96.2675536 C63.9629834,96.3291451 63.6563536,96.3291451 63.3497238,96.3907366 C44.8906077,98.8543976 38.3900552,105.444691 36.1209945,112.219759 C35.0171271,115.545701 34.8944751,118.871643 34.8944751,121.828036 L33.5479117,399.553145 L90.397083,399.553145 L91.7436464,124.106923 C92.1729282,121.212121 93.0314917,116.900714 94.380663,113.944321 C95.4845304,111.665435 98.6121547,108.277901 102.291713,108.277901 C111.674586,106.245381 110.325414,97.6225671 110.325414,97.6225671 L94.5646409,97.4377926 Z" id="Shape" fill="url(#linearGradient-1)"></path>
                    <path d="M88.3768925,31 L85.4087734,52.1432362 L65.8998103,40.0444418 L58.3262414,58.1829958 L46.8780957,51.1550197 L43.951678,61.0401498 L28.3436296,51.1550197 L24.4419833,68.2060166 L16,59.4810956" id="Page-1" stroke="#CBAF38" stroke-width="1.26" stroke-linecap="round" stroke-linejoin="round"></path>
                </g>
            </g>
        </g>
    </g>
</svg>