<?xml version="1.0" encoding="UTF-8" standalone="no"?>
<svg width="147px" height="472px" viewBox="0 0 147 472" version="1.1" xmlns="http://www.w3.org/2000/svg" xmlns:xlink="http://www.w3.org/1999/xlink">
    <!-- Generator: Sketch 3.6.1 (26313) - http://www.bohemiancoding.com/sketch -->
    <title>Group 5</title>
    <desc>Created with Sketch.</desc>
    <defs>
        <linearGradient x1="50.1643077%" y1="3.29282736%" x2="50.1649231%" y2="98.7532944%" id="linearGradient-1">
            <stop stop-color="#2CA6E0" offset="0%"></stop>
            <stop stop-color="#114B67" offset="100%"></stop>
        </linearGradient>
    </defs>
    <g id="Page-1" stroke="none" stroke-width="1" fill="none" fill-rule="evenodd">
        <g id="奇思能达" transform="translate(-1014.000000, -552.000000)">
            <g id="2（动）" transform="translate(341.000000, 433.000000)">
                <g id="手-copy-3" transform="translate(673.000000, 44.000000)">
                    <g id="Group-5" transform="translate(0.000000, 75.000000)">
                        <path d="M0,104.317073 C0,111.065041 5.11657459,116.674797 11.6950276,117.406504 L11.6950276,117.569106 L89.2558011,117.569106 L89.2558011,91.3902439 C89.2558011,91.3902439 13.9690608,91.1463415 13.1569061,91.1463415 C5.84751381,91.1463415 0,97.0813008 0,104.317073 L0,104.317073 Z" id="Shape" fill="#2CA6E0"></path>
                        <path d="M0,74.4796748 C0,81.2276423 5.11657459,86.8373984 11.6950276,87.5691057 L11.6950276,87.7317073 L89.2558011,87.7317073 L89.2558011,61.5528455 C89.2558011,61.5528455 13.9690608,61.3089431 13.1569061,61.3089431 C5.84751381,61.3089431 0,67.2439024 0,74.4796748 L0,74.4796748 Z" id="Shape" fill="#2CA6E0"></path>
                        <path d="M133.112155,0.821138211 C126.371271,0.821138211 120.767403,5.94308943 120.036464,12.5284553 L119.874033,12.5284553 L119.874033,98.300813 L146.025414,98.300813 C146.025414,98.300813 146.269061,14.804878 146.269061,13.9918699 C146.269061,6.75609756 140.421547,0.821138211 133.112155,0.821138211 L133.112155,0.821138211 Z" id="Shape" fill="#2A9ED6"></path>
                        <g id="Group-16" transform="translate(18.000000, 4.753086)" fill="#F9CA00">
                            <path d="M98.0760647,0.910028164 L94.0540388,29.1329448 L67.6179181,12.9829448 L57.3551595,37.1950802 L41.842056,27.8138302 L37.8765388,41.0089344 L16.7264526,27.8138302 L11.4394267,50.5742469 L-9.91379316e-05,38.9278407 C-0.0377715517,62.6273719 5.6428319,81.3661219 16.7552026,93.7537261 C26.4171853,104.534247 40.2657629,110.247111 56.7712371,110.247111 C60.234125,110.247111 63.856625,110.005653 67.5604181,109.522736 L70.3789095,109.03982 C90.0240819,103.891018 103.792358,93.2708094 110.314642,78.226174 C119.01003,58.1128927 114.743134,31.4020594 98.0760647,0.910028164" id="Fill-14"></path>
                        </g>
                        <path d="M125.234254,95.6178862 L111.265193,98.8699187 C111.265193,98.8699187 111.50884,64.4796748 111.50884,63.7479675 C111.50884,56.5121951 105.58011,50.5772358 98.3519337,50.5772358 C91.6110497,50.5772358 86.0071823,55.699187 85.2762431,62.2845528 L85.1138122,94.0731707 C84.7077348,94.1544715 84.3016575,94.1544715 83.8955801,94.2357724 C59.4497238,97.4878049 50.840884,106.186992 47.8359116,115.130081 C46.3740331,119.520325 46.2116022,123.910569 46.2116022,127.813008 L46.2116022,477 L121.498343,477 L121.498343,130.821138 C122.066851,127 123.203867,121.308943 124.990608,117.406504 C126.452486,114.398374 130.594475,109.926829 135.467403,109.926829 C147.89337,107.243902 146.10663,95.8617886 146.10663,95.8617886 L125.234254,95.6178862 Z" id="Shape" fill="url(#linearGradient-1)"></path>
                    </g>
                </g>
            </g>
        </g>
    </g>
</svg>