<?xml version="1.0" encoding="UTF-8" standalone="no"?>
<svg width="98px" height="445px" viewBox="0 0 98 445" version="1.1" xmlns="http://www.w3.org/2000/svg" xmlns:xlink="http://www.w3.org/1999/xlink">
    <!-- Generator: Sketch 3.6.1 (26313) - http://www.bohemiancoding.com/sketch -->
    <title>手 copy 16</title>
    <desc>Created with Sketch.</desc>
    <defs>
        <linearGradient x1="50.1643077%" y1="3.29282736%" x2="50.1649231%" y2="98.7532944%" id="linearGradient-1">
            <stop stop-color="#2CA6E0" offset="0%"></stop>
            <stop stop-color="#114B67" offset="100%"></stop>
        </linearGradient>
    </defs>
    <g id="Page-1" stroke="none" stroke-width="1" fill="none" fill-rule="evenodd">
        <g id="奇思能达" transform="translate(-818.000000, -579.000000)">
            <g id="2（动）" transform="translate(341.000000, 433.000000)">
                <g id="手-copy-16" transform="translate(477.000000, 146.000000)">
                    <path d="M0,120.048349 C0,124.467372 3.41104972,128.141017 7.79668508,128.620189 L7.79668508,128.726671 L59.5038674,128.726671 L59.5038674,111.582992 C59.5038674,111.582992 9.31270718,111.423268 8.77127072,111.423268 C3.89834254,111.423268 0,115.309878 0,120.048349 L0,120.048349 Z" id="Shape" fill="#2CA6E0"></path>
                    <path d="M0,100.508814 C0,104.927837 3.41104972,108.601482 7.79668508,109.080653 L7.79668508,109.187136 L59.5038674,109.187136 L59.5038674,92.0434564 C59.5038674,92.0434564 9.31270718,91.8837326 8.77127072,91.8837326 C3.89834254,91.8837326 0,95.7703432 0,100.508814 L0,100.508814 Z" id="Shape" fill="#2CA6E0"></path>
                    <path d="M88.7414365,52.2722498 C84.2475138,52.2722498 80.5116022,55.6264479 80.0243094,59.9389884 L79.9160221,59.9389884 L79.9160221,116.108497 L97.3502762,116.108497 C97.3502762,116.108497 97.5127072,61.4297431 97.5127072,60.8973307 C97.5127072,56.1588603 93.6143646,52.2722498 88.7414365,52.2722498 L88.7414365,52.2722498 Z" id="Shape" fill="#2A9ED6"></path>
                    <g id="发芽" transform="translate(2.648649, 0.000000)">
                        <path d="M66.2950135,33.1092372 C65.5613378,33.174069 64.6660946,33.4144053 63.7655541,33.8976973 C62.8703108,34.3921221 62.0147973,35.1242637 61.1036622,35.9448124 C59.2707973,37.5505469 57.4498514,39.8844938 54.3343784,41.3160336 C52.7624054,41.9925115 50.8970946,42.2407062 48.9894054,42.2623168 C47.1293919,42.3035735 45.2084595,42.147715 43.2246216,42.2040336 C43.3186486,42.0272195 43.4020811,41.8903522 43.463,41.8045646 C43.8596351,41.2446531 44.2953378,40.6965292 44.7773919,40.1876973 C45.0157703,39.9408124 45.2395811,39.6755912 45.4912027,39.4391841 C45.7203108,39.2315912 45.9361757,39.1700336 46.2507027,39.0947239 C46.4884189,39.0318566 46.7360676,38.9906 46.9837162,38.9532726 C48.4768919,38.7358566 50.0429054,38.7915204 51.5115811,39.0822814 C52.9848919,39.380246 53.7867703,39.8386531 53.8529865,39.8432372 C53.9112568,39.8772903 53.1702973,39.3376796 51.6546081,38.9506531 C50.9050405,38.7620513 49.9707297,38.6127416 48.9238514,38.5832726 C48.0716486,38.5688655 47.1393243,38.5819628 46.1891216,38.8098566 C47.3214189,37.8111841 48.5537027,36.9546177 49.7833378,36.2205115 C50.1276622,36.020777 50.4938378,35.9500513 50.8984189,35.8786708 C52.0485946,35.6723876 53.2212838,35.6363699 54.3780811,35.818423 C55.4997838,35.9939274 56.1473784,36.2761752 56.2016757,36.2670071 C56.1626081,36.2467062 55.5567297,35.9408832 54.4807162,35.7129894 C53.5245541,35.4922991 52.1465946,35.4372903 50.7083784,35.699892 C50.8143243,35.6815558 50.9566892,35.5721929 51.0487297,35.5256973 C51.1639459,35.4706885 51.2771757,35.409131 51.3910676,35.3508478 C51.617527,35.2382106 51.8426622,35.1216442 52.0750811,35.0122814 C52.8623919,34.6376973 53.6867838,34.3200867 54.5131622,34.0090248 C54.8892703,33.8734673 55.2693514,33.7339805 55.6659865,33.6547416 C56.0752027,33.5794319 56.4877297,33.5761575 56.9009189,33.5728832 C57.3525135,33.5755027 57.8021216,33.6075912 58.2470946,33.6580159 C59.1780946,33.7745823 59.7449054,33.904246 59.7872838,33.9029363 C59.8217162,33.9121044 59.2635135,33.7536265 58.3205946,33.6043168 C57.7200135,33.5159097 56.9260811,33.4379805 56.0659324,33.5106708 C56.5751351,33.3633257 57.0763919,33.2336619 57.5577838,33.1229894 C62.2002027,32.0817504 65.2991216,32.7006 65.6732432,32.7176265 C65.2805811,32.6475558 62.3041622,32.0162637 57.8127162,32.9049186 C55.3441757,33.401308 52.4836351,34.3750956 49.7105,35.9696973 C48.265,36.8046531 46.823473,37.8138035 45.5315946,39.0063168 C44.6972703,39.7810248 43.924527,40.6297327 43.1034459,41.7881929 C43.1564189,38.1307593 44.9495541,34.595131 48.1285946,32.7228655 C51.3930541,30.7163522 55.2859054,30.7294496 58.2126622,30.9272195 C64.0900135,31.4301575 67.4047973,33.0496442 67.7650135,33.1714496 C67.4107568,33.0057681 64.2204595,31.4334319 58.604,30.8414319 C57.0704324,30.6940867 55.3627162,30.6325292 53.5450811,30.8172018 C51.7320811,30.9913965 49.7992297,31.5061221 48.1133649,32.5054496 C44.6416486,34.4746354 42.7690541,38.3324584 42.8478514,42.162777 C42.6107973,42.5118212 42.3724189,42.8746177 42.1274189,43.2780159 L42.1102027,43.3002814 C41.9115541,43.0167239 41.7122432,42.744954 41.5102838,42.4875912 C40.6938378,41.4352195 39.7833649,40.589131 38.8391216,39.824246 C39.4476486,36.9009186 40.5183649,34.1111841 41.1401351,31.3404407 C41.7956757,28.5461221 41.9830676,25.7138212 41.1295405,23.1775204 C39.2463514,18.0996796 34.9807027,14.7559274 32.1989595,11.6616796 C30.7461757,10.1279805 29.5211757,8.66959115 28.6550676,7.29633451 C27.8439189,5.89295398 27.5333649,4.53737876 27.5333649,3.42475929 C27.538,1.25125487 28.7510811,0.206086726 28.9311892,0.0076619469 C28.7067162,0.189715044 27.7174459,1.03121947 27.4592027,2.86943186 C27.3247838,3.96502478 27.5068784,5.35334336 28.2087703,6.83727257 C28.9464189,8.30810442 30.2018784,9.80185664 31.6275135,11.4095558 C34.4119054,14.6229894 38.7609865,18.058423 40.6852297,23.0871487 C41.5453784,25.6123168 41.3831486,28.4256265 40.7163514,31.2238743 C40.1084865,33.9186531 39.0688919,36.6389717 38.4451351,39.5118743 C37.0731351,38.4496796 35.6428649,37.5269717 34.3059595,36.3730956 C33.9636216,36.0587593 33.614,35.7404938 33.3054324,35.4032372 C32.9399189,34.9991841 32.8915811,34.663892 32.8359595,34.1799451 C32.7942432,33.8119097 32.7988784,33.4347062 32.8114595,33.0614319 C32.9041622,30.8047593 33.6073784,28.5310602 34.7979459,26.4832903 C35.9997703,24.4204584 37.2903243,23.401485 37.3201216,23.3032549 C37.4181216,23.2305646 35.9679865,24.1316619 34.5635405,26.2265823 C33.8709189,27.2606177 33.2021351,28.5808301 32.7478919,30.0994673 C32.3969459,31.3404407 32.0705,32.7136973 32.2022703,34.1688124 C30.4773378,32.1878389 29.0834865,30.0975027 27.9690676,28.0595558 C27.6618243,27.485892 27.6532162,26.9358035 27.6505676,26.3162991 C27.6386486,24.5632195 28.0015135,22.8369894 28.8225946,21.2076796 C29.624473,19.6189717 30.4786622,18.7669894 30.4813108,18.6838212 C30.4223784,18.7362106 29.5357432,19.5207416 28.636527,21.018423 C27.8002162,22.3510779 27.1638784,24.3438389 27.1923514,26.5310956 C27.1903649,26.3680336 27.0095946,26.1316265 26.9407297,25.9783876 C26.8572973,25.7924053 26.7738649,25.6031487 26.6924189,25.4210956 C26.529527,25.0497858 26.3719324,24.6824053 26.2196351,24.3071664 C25.7077838,23.0308301 25.3250541,21.7178212 24.9721216,20.4074319 C24.8125405,19.8108478 24.6575946,19.2149186 24.6436892,18.5993434 C24.6277973,17.9804938 24.7774459,17.3740867 24.9317297,16.7670248 C25.1012432,16.1095381 25.3389595,15.4599097 25.6210405,14.8312372 C26.2143378,13.5064407 26.7182432,12.7212549 26.7235405,12.6557681 C26.7559865,12.6040336 26.2037432,13.3689186 25.5270135,14.7035381 C25.1151486,15.5542106 24.6436892,16.6897504 24.4788108,17.9713257 C24.3523378,17.1750071 24.2629459,16.4022637 24.209973,15.6576796 C23.6987838,8.52683009 26.2004324,4.19095398 26.3831892,3.6526531 C26.0799189,4.20274159 23.6027703,8.34805133 23.8265811,15.2176088 C23.9702703,18.9883345 24.9952973,23.4970956 27.3929865,28.0824761 C28.6537432,30.4740513 30.2899459,32.9147416 32.3823784,35.2028478 C32.3247703,35.2303522 35.6183649,38.2781044 35.9368649,38.5354673 C36.4209054,38.9211841 36.9281216,39.2911841 37.4287162,39.6657681 C29.5688514,38.3710956 22.6287297,34.5813788 19.7860676,29.326069 C16.6831757,23.8808478 18.1743649,18.1920159 19.7072703,13.9733611 C23.0121216,5.5426 27.7644595,1.21785664 28.1617568,0.737184071 C27.6538784,1.20737876 23.0578108,5.36382124 19.6648919,13.3735027 C18.7703108,15.567308 17.9988919,18.0499097 17.7121757,20.7662991 C17.4069189,23.475485 17.7876622,26.4741221 19.3119595,29.2736796 C22.2479865,34.9742991 29.8006081,38.9716088 38.0537973,40.154954 C38.4358649,40.460777 38.8113108,40.7711841 39.1490135,41.1110602 C39.7297297,41.6965115 40.2270135,42.3350071 40.690527,42.9859451 C37.828,41.4640336 33.7093514,41.6506708 31.7327973,43.8700159 C30.3190811,45.3670425 30.1495676,47.3440867 31.0421622,48.8208124 C31.9638919,50.3184938 33.9510405,51.0047947 35.6216757,50.8286354 C39.4171892,50.4533965 39.7178108,46.8306708 38.1736486,45.9374319 C36.6817973,44.861485 35.3700541,45.438423 35.3270135,45.4109186 C35.153527,45.5359982 36.2414595,44.9957327 37.7081486,45.8228301 C39.2509865,46.4698389 39.3172027,49.8515735 35.9441486,50.3682637 C34.4450135,50.6550956 32.5962568,50.0545823 31.7195541,48.7762814 C30.8825811,47.4966708 30.9686622,45.6636973 32.2274324,44.3421752 C34.1251892,42.3467947 38.1643784,42.0756796 40.4859189,43.6814142 C41.8916892,44.659131 42.6617838,46.0422106 43.0233243,47.4933965 C43.4212838,49.0965115 43.6821757,50.7539805 43.4954459,52.3911487 C43.3802297,53.3806531 43.1378784,54.3780159 42.8306351,55.3406708 C41.4460541,59.6274319 38.0888919,64.0098035 34.0503649,68.6213788 C33.0889054,69.7372726 30.3197432,72.4399097 30.0032297,72.7260867 C29.9171486,72.8302106 29.5456757,73.306954 29.0682568,73.9172903 C30.1455946,74.076423 31.2209459,74.2388301 32.2969595,74.4235027 C33.9536892,72.4359805 35.5951892,70.4929894 37.0883649,68.5906 C40.9931351,63.6751664 44.2152162,58.7721752 44.9475676,53.9647947 C45.2223649,52.1547416 45.1429054,50.3532018 44.6787297,48.5791664 C44.4456486,47.6774142 44.1185405,46.7972726 43.7113108,45.9380867 C43.4451216,45.3853788 43.0186892,44.8778566 42.8279865,44.2976442 C42.6088108,43.6309894 42.8233514,43.0442283 43.1219865,42.414246 C45.1144324,42.3507239 47.0638378,42.5085469 48.9543108,42.4666354 C50.8547162,42.4378212 52.7365811,42.1968301 54.3231216,41.5229717 C57.4690541,40.1045292 59.2376892,37.8203522 60.9904324,36.2244407 C61.8558784,35.4045469 62.6882162,34.6913965 63.5066486,34.1498212 C64.3456081,33.6246177 65.2077432,33.3312372 65.9414189,33.2041929 C67.3597703,32.9605823 68.1583378,33.3685646 68.3159324,33.4320867 C68.1682703,33.3495735 67.5246486,33.0169009 66.2950135,33.1092372" id="Fill-1" fill="#44AF35"></path>
                        <path d="M28.090177,0.735939823 C28.3451095,0.484470796 28.6026905,0.244134513 28.8582851,0.0103469027 C26.522177,2.11901947 27.2757176,5.66578053 28.7735284,7.86089558 C31.9578662,12.5392673 37.0532041,16.0912673 39.8634203,21.0538513 C43.0245824,26.6385593 40.5394878,32.1905239 38.9728122,37.8773912 C38.7715149,38.6095327 38.5933932,39.3469133 38.4563257,40.0875681 C38.4060014,40.0777451 38.3563392,40.0725062 38.306677,40.0633381 C25.8269068,31.834931 18.88215,13.3093912 28.090177,0.735939823" id="Fill-4" fill="#74C63B"></path>
                        <path d="M17.996773,25.5247611 C16.2963405,17.9152035 21.8128135,6.85842478 28.0901108,0.736070796 C18.8820838,13.3095221 25.8268405,31.8350619 38.3066108,40.063469 C28.6595703,38.662708 19.8766514,33.9352212 17.996773,25.5247611" id="Fill-6" fill="#97CC72"></path>
                        <path d="M67.6970757,33.2319593 C67.8851297,33.3157823 68.0692108,33.4002602 68.2499811,33.4886673 C66.6283459,32.6923487 64.3683865,33.4316938 63.0758459,34.3491628 C60.3225757,36.3045965 58.5016297,38.9790743 55.5199135,40.8015699 C52.1660622,42.8499947 48.2679135,42.3811097 44.3684405,42.3319947 C43.8665216,42.3274106 43.3646027,42.3333044 42.8653324,42.3542602 C42.8640081,42.3326496 42.8633459,42.3110389 42.8626838,42.2887735 C47.0151027,35.7859416 58.4989811,30.569269 67.6970757,33.2319593" id="Fill-8" fill="#69B53A"></path>
                        <path d="M50.3765027,31.5735735 C55.2076378,29.9455735 63.0337324,31.1328478 67.6973405,33.2316973 C58.4992459,30.5696619 47.0153676,35.7856796 42.8629486,42.2891664 C42.8139486,37.8308301 45.0335162,33.3744584 50.3765027,31.5735735" id="Fill-10" fill="#74C53B"></path>
                        <path d="M64.4657905,65.7337416 C57.5892365,67.3001841 42.3204392,61.030485 37.6608041,62.8647681 C34.3221824,64.1790867 33.5659932,66.7802195 31.9734932,69.2516885 C30.4776689,71.5745027 27.8389527,71.089246 25.6173986,71.4880602 C20.6988581,72.372131 17.7628311,75.4139894 16.1848986,79.8513699 C15.4075203,82.0379717 14.7586014,84.5742726 16.3477905,86.5310159 C18.0190878,88.5892637 20.2995743,87.0018655 22.1953446,86.4799363 C36.6371014,82.504892 51.0669392,78.4840071 65.4550608,74.3256 C67.7428311,73.6641841 71.7952635,74.0374584 71.6509122,71.0715646 C71.4807365,67.5680248 67.3521554,65.0762549 64.4657905,65.7337416" id="Fill-12" fill="#957A61"></path>
                        <g id="Group-16" transform="translate(9.270270, 52.777450)" fill="#FBE171">
                            <path d="M65.5069743,0.60222078 L62.8205824,19.2790349 L45.1633662,8.59160131 L38.3086635,24.6142385 L27.94715,18.4060969 L25.2985014,27.1380969 L11.1719338,18.4060969 L7.64062297,33.4680438 L-6.62162165e-05,25.760911 C-0.0252283784,41.444327 3.76896081,53.8448933 11.1911365,62.0425217 C17.6445689,69.1766456 26.8943122,72.9571942 37.91865,72.9571942 C40.2315824,72.9571942 42.651123,72.7974066 45.1249608,72.4778314 L47.0074878,72.1582562 C60.1288932,68.7509818 69.3250014,61.7229464 73.6813662,51.7669995 C79.4891905,38.4568225 76.6392446,20.7806456 65.5069743,0.60222078" id="Fill-14"></path>
                        </g>
                        <g id="Page-1" transform="translate(0.000000, 15.716814)">
                            <path d="M51.2285119,4.63331681 L57.6992624,8.39906549 L53.5978045,0.601168142 L48.9492223,0.58780885 L51.2285119,4.63331681 Z" id="Fill-1" fill="#CCBB66"></path>
                            <path d="M64.4269955,36.1486726 L73.9728525,27.7441062 L54.5961285,23.0157027 L64.4269955,36.1486726 Z" id="Fill-2" fill="#E2CA61"></path>
                            <path d="M0.743015339,45.5787611 L7.59738853,39.5438881 L12.9959273,50.4779867 L0.743015339,45.5787611 Z" id="Fill-2-Copy-2" fill="#E2CA61"></path>
                            <path d="M71.0209082,18.4913034 L81.6278546,18.0339441 L77.5840303,6.90879717 L71.0209082,18.4913034 Z" id="Fill-3" fill="#CCBB66"></path>
                        </g>
                    </g>
                    <path d="M83.4895028,114.351536 L74.1767956,116.481186 C74.1767956,116.481186 74.3392265,93.960141 74.3392265,93.4809699 C74.3392265,88.7424995 70.3867403,84.8558889 65.5679558,84.8558889 C61.0740331,84.8558889 57.3381215,88.2100871 56.8508287,92.5226275 L56.7425414,113.339953 C56.4718232,113.393194 56.201105,113.393194 55.9303867,113.446435 C39.6331492,115.576085 33.8939227,121.272897 31.8906077,127.129434 C30.9160221,130.004461 30.8077348,132.879488 30.8077348,135.435067 L33.1359125,591.918159 L83.3270727,591.918159 L80.998895,137.404993 C81.3779006,134.902655 82.1359116,131.175768 83.3270718,128.620189 C84.3016575,126.650263 87.0629834,123.721994 90.3116022,123.721994 C98.5955801,121.965033 97.4044199,114.51126 97.4044199,114.51126 L83.4895028,114.351536 Z" id="Shape" fill="url(#linearGradient-1)"></path>
                </g>
            </g>
        </g>
    </g>
</svg>