<?xml version="1.0" encoding="UTF-8" standalone="no"?>
<svg width="139px" height="115px" viewBox="0 0 139 115" version="1.1" xmlns="http://www.w3.org/2000/svg" xmlns:xlink="http://www.w3.org/1999/xlink">
    <!-- Generator: Sketch 3.6.1 (26313) - http://www.bohemiancoding.com/sketch -->
    <title>1</title>
    <desc>Created with Sketch.</desc>
    <defs></defs>
    <g id="Page-1" stroke="none" stroke-width="1" fill="none" fill-rule="evenodd">
        <g id="奇思能达" transform="translate(-504.000000, -647.000000)">
            <g id="1idea" transform="translate(195.000000, 477.000000)">
                <g id="1" transform="translate(309.000000, 170.000000)">
                    <g id="Page-1" transform="translate(59.000000, 0.000000)">
                        <path d="M40,0 C62.0911475,0 80,17.9081967 80,40 C80,62.0911475 62.0911475,80 40,80 C17.9081967,80 0,62.0911475 0,40 C0,17.9081967 17.9081967,0 40,0" id="Fill-1" fill="#F97203"></path>
                        <path d="M50.879082,51.5211148 L29.119082,51.5211148 C28.1400656,46.0201311 19.8397377,40.4227541 19.8397377,31.3689836 C19.8397377,21.1781639 29.8777705,12.000459 39.999082,12.000459 C50.1210492,12.000459 60.159082,21.1781639 60.159082,31.3689836 C60.159082,40.4227541 51.8587541,46.0201311 50.879082,51.5211148" id="Fill-5" fill="#F8C42D"></path>
                        <g id="Fill-7-+-Fill-11-+-Fill-13" transform="translate(19.672131, 11.803279)"></g>
                        <g id="Group" transform="translate(19.672131, 11.803279)">
                            <path d="M38.5023607,27.1993443 L29.7928525,18.4937705 L29.7928525,18.5986885 L27.711541,18.5986885 L27.711541,17.9586885 L25.6184262,17.9586885 L24.3430164,25.0439344 L21.3194098,24.784918 L22.1862951,23.9186885 L17.7436721,19.4786885 L15.9974426,21.2236066 L15.6341639,17.9586885 L13.8112131,17.9586885 L10.7430164,21.2563934 L10.7430164,25.9042623 L24.5626885,39.7180328 L31.2072787,39.7180328 C31.8780984,35.9501639 35.9823607,32.1370492 38.5023607,27.1993443" id="Fill-9" fill="#F6BD27"></path>
                            <path d="M10.743082,21.2563279 L13.8112787,17.958623 L15.6342295,17.958623 L15.9975082,21.2241967 L17.7437377,19.478623 L22.1863607,23.918623 L21.3194754,24.7848525 L24.343082,25.0438689 L25.6184918,17.958623 L27.7116066,17.958623 L27.7116066,18.598623 L29.792918,18.598623 L29.792918,18.4937049 L38.5024262,27.1992787 C39.6617705,24.9278033 40.4866885,22.4182951 40.4866885,19.5651803 C40.4866885,9.37501639 30.4486557,0.196655738 20.3273443,0.196655738 C10.205377,0.196655738 0.167344262,9.37501639 0.167344262,19.5651803 C0.167344262,28.6189508 8.46767213,34.2169836 9.44734426,39.7179672 L24.5627541,39.7179672 L10.743082,25.9041967 L10.743082,21.2563279 Z" id="Fill-7" fill="#F8C42D"></path>
                            <path d="M26.7677377,20.396918 C25.7513443,20.396918 24.9277377,21.2211803 24.9277377,22.236918 L24.9277377,24.076918 L26.7677377,24.076918 C27.7841311,24.076918 28.6083934,23.2533115 28.6083934,22.236918 C28.6083934,21.2211803 27.7841311,20.396918 26.7677377,20.396918 L26.7677377,20.396918 Z M15.687082,22.2775738 C15.687082,21.2611803 14.9434754,20.3575738 13.927082,20.3575738 C12.9106885,20.3575738 12.007082,21.0008525 12.007082,22.2775738 C12.007082,23.2939672 12.9106885,24.0375738 13.927082,24.0375738 L15.687082,24.0375738 L15.687082,22.2775738 Z M26.727082,26.7575738 L24.967082,26.7575738 L24.9277377,39.7162623 L22.087082,39.7175738 L22.087082,26.7575738 L18.567082,26.7575738 L18.567082,39.7175738 L15.687082,39.7175738 L15.687082,26.7575738 L13.927082,26.7575738 C10.8785574,26.7575738 9.28577049,25.2854426 9.28577049,22.236918 C9.28577049,19.1883934 10.8379016,17.636918 13.8864262,17.636918 C16.9356066,17.636918 18.567082,19.2290492 18.567082,22.2775738 L18.567082,24.0375738 L22.087082,24.0375738 L22.087082,22.2775738 C22.087082,19.2290492 23.7192131,17.636918 26.7677377,17.636918 C29.816918,17.636918 31.364459,19.2100328 31.364459,22.2585574 C31.364459,25.3077377 29.7756066,26.7575738 26.727082,26.7575738 L26.727082,26.7575738 Z" id="Fill-11" fill="#FFFFE4"></path>
                            <path d="M20.3272787,58.1183607 C17.6217049,58.1183607 14.3508852,56.6357377 13.0859672,54.4377049 L27.5685902,54.4377049 C26.3036721,56.6357377 23.0328525,58.1183607 20.3272787,58.1183607 M28.5548197,52.5977049 L12.099082,52.5977049 C10.5843279,52.5977049 9.35678689,51.3616393 9.35678689,49.8377049 C9.35678689,48.3131148 10.5843279,47.0770492 12.099082,47.0770492 L28.5548197,47.0770492 C30.0695738,47.0770492 31.3672787,48.2737705 31.3672787,49.7983607 C31.3672787,51.3222951 30.0695738,52.5977049 28.5548197,52.5977049 M31.2072787,45.3177049 L9.28727869,45.3177049 C7.77252459,45.3177049 6.72727869,43.9622951 6.72727869,42.4377049 C6.72727869,40.9137705 7.93252459,39.7177049 9.44727869,39.7177049 L31.1830164,39.7163934 C32.6977705,39.7163934 33.9259672,40.952459 33.9259672,42.4770492 C33.9259672,44.0009836 32.721377,45.3177049 31.2072787,45.3177049" id="Fill-13" fill="#D6EDEF"></path>
                        </g>
                    </g>
                    <text id="IDEA" font-family="PingFangSC-Regular, PingFang SC" font-size="20" font-weight="normal" fill="#9B9B9B">
                        <tspan x="6" y="38">IDEA</tspan>
                    </text>
                    <g id="Path-479-+-Oval-8" transform="translate(27.000000, 82.500000) scale(-1, 1) translate(-27.000000, -82.500000) translate(0.000000, 50.000000)">
                        <path d="M0.0312498859,0.12109375 L33.1992416,0.12109375 L48.5117187,60.578125" id="Path-479" stroke="#979797"></path>
                        <circle id="Oval-8" fill="#9B9B9B" cx="49" cy="60" r="5"></circle>
                    </g>
                </g>
            </g>
        </g>
    </g>
</svg>