<?xml version="1.0" encoding="utf-8"?>
<!-- Generator: Adobe Illustrator 19.0.0, SVG Export Plug-In . SVG Version: 6.00 Build 0)  -->
<svg version="1.1" id="图层_1" xmlns="http://www.w3.org/2000/svg" xmlns:xlink="http://www.w3.org/1999/xlink" x="0px" y="0px"
	 viewBox="0 0 119.2 85.1" style="enable-background:new 0 0 119.2 85.1;" xml:space="preserve">
<style type="text/css">
	.st0{fill-rule:evenodd;clip-rule:evenodd;fill:#744C28;}
	.st1{fill-rule:evenodd;clip-rule:evenodd;fill:#568515;}
	.st2{fill-rule:evenodd;clip-rule:evenodd;fill:#82BA33;}
	.st3{clip-path:url(#XMLID_75_);fill:none;}
</style>
<g id="XMLID_2_">
	<path id="XMLID_37_" class="st0" d="M65,84c3.3-31.5-23.2-30-9.2-75.3l0,0C34,46.9,60.9,50.7,56.2,84H65z"/>
	<path id="XMLID_36_" class="st0" d="M59.9,80.7c-4.4-22.4,19.7-42,42.3-36.2c-20,0.8-42.5,13.6-37.4,34.7c0.4,1.3-0.3,2.8-1.6,3.2
		C61.8,82.8,60.3,82,59.9,80.7"/>
	<path id="XMLID_35_" class="st0" d="M59.6,67.7c-9.8-17.2-27.8-20.3-44.8-10.8c17-4.9,32.3-4.8,41.2,12.4c0.5,1,1.6,1.4,2.6,0.9
		C59.6,69.8,60.1,68.7,59.6,67.7"/>
	<path id="XMLID_34_" class="st0" d="M73.6,54.1c5.8-6.8,5.8-16.5-1.2-22c3.1,7.3,5.1,13.2-1.2,19.5c-0.7,0.7-0.7,1.8,0,2.5
		C71.8,54.7,72.9,54.8,73.6,54.1"/>
	<path id="XMLID_33_" class="st0" d="M51.7,37.3c-1-9-8.2-15.8-17.2-14.4c7.3,3,13.1,5.5,13.3,14.4c0,1.1,0.9,1.9,2,1.9
		C50.8,39.3,51.7,38.4,51.7,37.3"/>
	<path id="XMLID_32_" class="st0" d="M41.4,52.7c-9.1-1.3-16.6,5-16.9,14c4.1-6.9,7.9-12.4,16.7-11.1C43.3,55.9,44.1,53.2,41.4,52.7
		"/>
	<path id="XMLID_31_" class="st1" d="M80.4,3.9c-3.2-0.5-7.1,3.1-8.2,5.6c-2.3,5.3-12,8.2-17.6,2l-0.1-0.2
		C57.4,3.6,65.4-4.8,80.4,3.9"/>
	<path id="XMLID_30_" class="st2" d="M80.4,3.9c-3.2-0.5-7.1,3.1-8.2,5.6c-3,6.8-13,7.7-17.6,2c2.9-2.8,11-7.3,17.8-8.1
		c-6.6-0.4-14.8,3.1-17.9,7.9C59.2-1.4,68.9-2.7,80.4,3.9"/>
	<path id="XMLID_29_" class="st1" d="M8.1,26.8c2.8-1.8,8.1,0,10.2,1.9c4.5,4.1,15,2.7,17.6-5.5l0-0.2C29.8,16.7,18.6,12.2,8.1,26.8
		"/>
	<path id="XMLID_28_" class="st2" d="M8.1,26.8c2.8-1.8,8.1,0,10.2,1.9c5.7,5.2,15.6,1.8,17.6-5.5c-3.9-1.5-13.6-2.3-20.4-0.2
		c6.1-3.2,15.4-3.3,20.4,0C25.9,12.8,16.1,15.7,8.1,26.8"/>
	<path id="XMLID_27_" class="st1" d="M119.2,54c-1.8-2.1-6.3-1.9-8.4-0.9c-4.4,2.1-12.2-1.4-12.3-8.3l0-0.1
		C104.8,41.2,114.5,40.2,119.2,54"/>
	<path id="XMLID_26_" class="st2" d="M119.2,54c-1.8-2.1-6.3-1.9-8.4-0.9c-5.7,2.7-12.5-2.3-12.3-8.3c3.4-0.2,11.1,1.4,15.9,4.6
		c-4-3.9-11.1-6.1-15.8-4.8C108.7,39,115.6,43.5,119.2,54"/>
	<path id="XMLID_25_" class="st1" d="M56.3,26.4c2.1-0.1,4.5,2.5,5,4.2c1.2,3.6,7.4,6.1,11.4,2.3l0.1-0.1
		C71.3,27.5,66.6,21.6,56.3,26.4"/>
	<path id="XMLID_24_" class="st2" d="M56.3,26.4c2.1-0.1,4.5,2.5,5,4.2c1.5,4.6,8.1,5.8,11.4,2.3c-1.7-2-6.8-5.4-11.2-6.3
		c4.3,0.1,9.5,2.9,11.2,6.2C70.4,24.2,64.2,22.8,56.3,26.4"/>
	<path id="XMLID_23_" class="st1" d="M0,70.8c1-2.3,5-3.4,7.1-3.1c4.5,0.6,10.3-4.6,8.5-10.7l-0.1-0.1C9.1,55.6,0.3,57.5,0,70.8"/>
	<path id="XMLID_22_" class="st2" d="M0,70.8c1-2.3,5-3.4,7.1-3.1c5.7,0.8,10.4-5.4,8.5-10.7c-3.1,0.7-9.3,4.3-12.6,8.4
		c2.4-4.5,8.1-8.4,12.6-8.5C5.1,54.8,0.3,60.6,0,70.8"/>
	<g id="XMLID_1_">
		<g id="XMLID_19_">
			<defs>
				<path id="XMLID_20_" d="M23.2,85.1c-0.9-2.2,1-5.5,2.6-6.7c3.4-2.5,3.8-9.8-1.5-12.7l-0.1,0C19.2,69,14.6,76,23.2,85.1"/>
			</defs>
			<use xlink:href="#XMLID_20_"  style="overflow:visible;fill-rule:evenodd;clip-rule:evenodd;fill:#568515;"/>
			<clipPath id="XMLID_75_">
				<use xlink:href="#XMLID_20_"  style="overflow:visible;"/>
			</clipPath>
			<rect id="XMLID_21_" y="-0.9" class="st3" width="120" height="86"/>
		</g>
		<path id="XMLID_18_" class="st2" d="M23.2,85.1c-0.9-2.2,1-5.5,2.6-6.7c4.3-3.2,3.3-10.4-1.5-12.7c-1.5,2.5-3.3,9-2.8,13.9
			c-1.4-4.6-0.3-10.9,2.7-13.9C15.9,71.1,16.6,78.2,23.2,85.1"/>
	</g>
	<path id="XMLID_16_" class="st1" d="M86.5,29.4c2.1,0.6,3.6,3.9,3.6,5.8c0,4,5.3,8.5,10.5,6.1l0.1-0.1
		C101.1,35.5,98.4,28.1,86.5,29.4"/>
	<path id="XMLID_15_" class="st2" d="M86.5,29.4c2.1,0.6,3.6,3.9,3.6,5.8c0,5.1,6.1,8.4,10.5,6.1c-1-2.6-4.9-7.6-9-10
		c4.3,1.5,8.5,6,9.1,9.9C101.4,31.9,95.6,28.4,86.5,29.4"/>
	<path id="XMLID_14_" class="st1" d="M64.2,46.5c-0.8-1.6-3.7-2.2-5.2-1.9c-3.2,0.6-7.6-2.8-6.5-7.3l0-0.1
		C57.1,35.9,63.4,36.9,64.2,46.5"/>
	<path id="XMLID_13_" class="st2" d="M64.2,46.5c-0.8-1.6-3.7-2.2-5.2-1.9c-4.1,0.8-7.7-3.5-6.5-7.3c2.2,0.4,6.9,2.7,9.4,5.5
		c-1.9-3.1-6.1-5.7-9.3-5.6C59.9,35.2,63.6,39.2,64.2,46.5"/>
	<path id="XMLID_12_" class="st1" d="M37.6,11.2c1.4-1.1,4.4-0.5,5.7,0.5c2.7,2,8.3,0.7,9.3-4l0-0.1C49,4.5,42.6,2.6,37.6,11.2"/>
	<path id="XMLID_11_" class="st2" d="M37.6,11.2c1.4-1.1,4.4-0.5,5.7,0.5c3.4,2.5,8.7,0.1,9.3-4c-2.2-0.6-7.6-0.5-11.2,1
		c3.2-2.1,8.2-2.7,11.2-1.1C46.6,2.6,41.4,4.7,37.6,11.2"/>
	<path id="XMLID_10_" class="st1" d="M92.7,64c-0.7-2-4-3.2-5.8-3.1c-3.8,0.3-8.4-4.5-6.5-9.6l0.1-0.1C86,50.6,93.3,52.7,92.7,64"/>
	<path id="XMLID_9_" class="st2" d="M92.7,64c-0.7-2-4-3.2-5.8-3.1c-4.9,0.3-8.4-5.3-6.5-9.6c2.5,0.8,7.6,4.2,10.1,7.9
		c-1.7-4-6.3-7.7-10-8C89.5,50.1,93.2,55.4,92.7,64"/>
	<path id="XMLID_8_" class="st1" d="M15.2,40.7c-0.8,1.4,0.2,4,1.2,5c2.2,2.1,1.8,7.3-2.3,8.8l-0.1,0C10.8,51.7,8.2,46.3,15.2,40.7"
		/>
	<path id="XMLID_7_" class="st2" d="M15.2,40.7c-0.8,1.4,0.2,4,1.2,5c2.8,2.7,1.3,7.7-2.3,8.8c-0.8-1.9-1.5-6.7-0.6-10.1
		c-1.4,3.1-1.2,7.7,0.5,10.1C8.7,49.9,9.9,45,15.2,40.7"/>
	<path id="XMLID_6_" class="st1" d="M83.4,21.1c-1.6,0.4-2.6,2.9-2.6,4.3c0.1,2.9-3.8,6.3-7.6,4.6L73.1,30
		C72.8,25.8,74.7,20.3,83.4,21.1"/>
	<path id="XMLID_5_" class="st2" d="M83.4,21.1c-1.6,0.4-2.6,2.9-2.6,4.3c0.1,3.7-4.4,6.2-7.6,4.6c0.7-1.9,3.5-5.6,6.5-7.4
		c-3.1,1.2-6.1,4.5-6.5,7.4C72.6,23.1,76.8,20.5,83.4,21.1"/>
</g>
</svg>
