<?xml version="1.0" encoding="UTF-8" standalone="no"?>
<svg width="85px" height="133px" viewBox="0 0 85 133" version="1.1" xmlns="http://www.w3.org/2000/svg" xmlns:xlink="http://www.w3.org/1999/xlink">
    <!-- Generator: Sketch 3.6.1 (26313) - http://www.bohemiancoding.com/sketch -->
    <title>Group 6</title>
    <desc>Created with Sketch.</desc>
    <defs></defs>
    <g id="Page-1" stroke="none" stroke-width="1" fill="none" fill-rule="evenodd">
        <g id="奇思能达" transform="translate(-1041.000000, -477.000000)">
            <g id="2（动）" transform="translate(341.000000, 433.000000)">
                <g id="手-copy-3" transform="translate(673.000000, 44.000000)">
                    <g id="发芽" transform="translate(27.000000, 0.000000)">
                        <g id="Group-6">
                            <path d="M76.3765948,50.0320469 C75.2781466,50.1300156 73.9378017,50.4931927 72.5895259,51.2235052 C71.249181,51.9706406 69.968319,53.0769948 68.604181,54.3169427 C65.8600431,56.743401 63.13375,60.270276 58.4693103,62.4335052 C56.1157759,63.4557448 53.3230603,63.8307969 50.4668966,63.8634531 C47.6821121,63.9257969 44.8061207,63.690276 41.8359483,63.7753802 C41.9767241,63.5081927 42.1016379,63.3013698 42.1928448,63.1717344 C42.786681,62.3256406 43.4390086,61.4973594 44.1607328,60.7284531 C44.5176293,60.3553802 44.8527155,59.954599 45.2294397,59.5973594 C45.5724569,59.2836615 45.8956466,59.1906406 46.3665517,59.0768385 C46.7224569,58.9818385 47.0932328,58.9194948 47.4640086,58.8630885 C49.699569,58.5345469 52.044181,58.6186615 54.2430603,59.0580365 C56.4488793,59.5082969 57.6494397,60.2010052 57.7485776,60.2079323 C57.835819,60.2593906 56.7264655,59.443974 54.4571983,58.8591302 C53.3349569,58.5741302 51.9361207,58.3485052 50.36875,58.303974 C49.0928448,58.2822031 47.6969828,58.3019948 46.2743534,58.6463698 C47.9696121,57.1372552 49.814569,55.8428802 51.6555603,54.7335573 C52.1710776,54.4317344 52.7193103,54.3248594 53.3250431,54.2169948 C55.047069,53.905276 56.8028017,53.850849 58.5347414,54.1259531 C60.2141379,54.3911615 61.1837069,54.8176719 61.265,54.8038177 C61.2065086,54.7731406 60.2993966,54.3110052 58.6884052,53.9666302 C57.2568534,53.6331406 55.1937931,53.5500156 53.0405172,53.9468385 C53.1991379,53.9191302 53.4122845,53.7538698 53.5500862,53.6836094 C53.7225862,53.6004844 53.8921121,53.5074635 54.0626293,53.4193906 C54.401681,53.2491823 54.73875,53.0730365 55.0867241,52.907776 C56.2654741,52.3417344 57.4997414,51.8617865 58.7369828,51.3917344 C59.3000862,51.1868906 59.8691379,50.9761094 60.4629741,50.8563698 C61.0756466,50.7425677 61.6932759,50.7376198 62.3118966,50.7326719 C62.9880172,50.7366302 63.6611638,50.7851198 64.3273707,50.8613177 C65.72125,51.0374635 66.5698707,51.233401 66.633319,51.2314219 C66.6848707,51.245276 65.8491379,51.0057969 64.4374138,50.7801719 C63.5382328,50.6465781 62.349569,50.5288177 61.0617672,50.6386615 C61.8241379,50.4160052 62.5746121,50.2200677 63.2953448,50.0528281 C70.2459052,48.4793906 74.8855603,49.4145469 75.4456897,49.440276 C74.8578017,49.3343906 70.4015517,48.3804323 63.6770259,49.7232969 C59.9811638,50.473401 55.6984052,51.9449115 51.5465086,54.3545469 C49.3823276,55.6162656 47.2240948,57.1412135 45.2899138,58.9432448 C44.0407759,60.1139219 42.8838362,61.3964219 41.6545259,63.1469948 C41.7338362,57.6201719 44.4184914,52.2774115 49.1781034,49.4481927 C54.0656034,46.4161094 59.8939224,46.435901 64.275819,46.7347552 C73.0753017,47.4947552 78.0381466,49.9419948 78.5774569,50.1260573 C78.047069,49.8756927 73.2706034,47.4997031 64.8617241,46.6051198 C62.5656897,46.3824635 60.0089224,46.2894427 57.2875862,46.5685052 C54.5731897,46.8317344 51.6793534,47.6095469 49.1553017,49.119651 C43.9575,52.0953281 41.1538793,57.9249635 41.2718534,63.7130365 C40.9169397,64.2404844 40.5600431,64.7887135 40.1932328,65.3982969 L40.1674569,65.4319427 C39.8700431,65.0034531 39.5716379,64.592776 39.2692672,64.2038698 C38.0468966,62.6136094 36.68375,61.3350677 35.2700431,60.1792344 C36.1811207,55.7617344 37.784181,51.5461094 38.7150862,47.3591823 C39.6965517,43.1366302 39.9771121,38.8566823 38.6992241,35.024026 C35.8797414,27.3507969 29.4932759,22.2979844 25.3284914,17.6222031 C23.1534052,15.304599 21.3193534,13.1007969 20.0226293,11.0256406 C18.8081897,8.90496354 18.3432328,6.85652604 18.3432328,5.17522396 C18.3501724,1.89079688 20.1663793,0.311421875 20.4360345,0.011578125 C20.0999569,0.286682292 18.6188362,1.55829688 18.2321983,4.33605729 C18.0309483,5.99163021 18.3035776,8.08954688 19.3544397,10.3319427 C20.4588362,12.5545469 22.3384914,14.8117865 24.472931,17.2412135 C28.641681,22.097099 35.1530603,27.2884531 38.0340086,34.8874635 C39.3218103,38.7032969 39.0789224,42.9545469 38.0806034,47.1830365 C37.1705172,51.2551719 35.6140517,55.365901 34.6801724,59.7072031 C32.6260345,58.102099 30.4846552,56.707776 28.4830603,54.9641302 C27.9705172,54.4891302 27.447069,54.0081927 26.9850862,53.4985573 C26.4378448,52.8879844 26.3654741,52.3813177 26.2821983,51.6500156 C26.2197414,51.0938698 26.226681,50.5238698 26.2455172,49.9598073 C26.3843103,46.5497031 27.4371552,43.1138698 29.2196552,40.0194427 C31.0190086,36.9022552 32.9512069,35.3624635 32.995819,35.214026 C33.1425431,35.1041823 30.9714224,36.465849 28.8687069,39.631526 C27.8317241,41.1940781 26.830431,43.1890781 26.1503448,45.4839219 C25.6249138,47.3591823 25.1361638,49.4343385 25.3334483,51.6331927 C22.7509052,48.6397031 20.6640517,45.4809531 18.9955603,42.4013698 C18.5355603,41.5344948 18.5226724,40.7032448 18.5187069,39.767099 C18.5008621,37.1179844 19.0441379,34.5094427 20.2734483,32.0473594 C21.4740086,29.6466302 22.7528879,28.3591823 22.7568534,28.2335052 C22.6686207,28.3126719 21.3411638,29.4981927 19.9948707,31.7613698 C18.7427586,33.7751719 17.7900431,36.786474 17.8326724,40.0916823 C17.8296983,39.845276 17.5590517,39.4880365 17.4559483,39.256474 C17.3310345,38.9754323 17.2061207,38.6894427 17.084181,38.4143385 C16.8403017,37.8532448 16.6043534,37.2980885 16.3763362,36.7310573 C15.61,34.8023594 15.0369828,32.8182448 14.5085776,30.8380885 C14.2696552,29.9365781 14.0376724,29.0360573 14.0168534,28.105849 C13.9930603,27.1706927 14.2171121,26.2543385 14.4481034,25.3369948 C14.7018966,24.3434531 15.0578017,23.3617865 15.4801293,22.4117865 C16.3684052,20.4098594 17.1228448,19.223349 17.1307759,19.1243906 C17.1793534,19.0462135 16.3525431,20.2020469 15.3393534,22.2188177 C14.7227155,23.5042865 14.0168534,25.220224 13.77,27.1568385 C13.5806466,25.9535052 13.4468103,24.7857969 13.3675,23.6606406 C12.6021552,12.8850677 16.3475862,6.33303646 16.6212069,5.51959896 C16.1671552,6.35084896 12.4584052,12.6149115 12.7934914,22.9956406 C13.0086207,28.6936615 14.5432759,35.5069427 18.1330603,42.4360052 C20.0206466,46.0499635 22.4703448,49.7381406 25.6031034,53.1957448 C25.5168534,53.2373073 30.4479741,57.8428281 30.9248276,58.2317344 C31.6495259,58.814599 32.4089224,59.3737135 33.1584052,59.9397552 C21.3907328,57.983349 11.0000862,52.2566302 6.74409483,44.315224 C2.09849138,36.0868385 4.33107759,27.4903281 6.62612069,21.1154323 C11.5740948,8.37553646 18.6892241,1.84032813 19.2840517,1.11397396 C18.5236638,1.82449479 11.6425,8.10538021 6.56267241,20.208974 C5.22331897,23.5240781 4.06836207,27.2755885 3.63909483,31.3803802 C3.18206897,35.4742865 3.75211207,40.0055885 6.03426724,44.2360573 C10.4300431,52.8503802 21.7377155,58.8907969 34.0942672,60.678974 C34.6662931,61.1411094 35.2284052,61.6101719 35.7340086,62.1237656 C36.6034483,63.0084531 37.3479741,63.9732969 38.0419397,64.9569427 C33.7562069,62.657151 27.5898276,62.9391823 24.6305603,66.2928802 C22.5139655,68.5550677 22.2601724,71.5426198 23.5965517,73.7741302 C24.9765517,76.0373073 27.951681,77.0743906 30.452931,76.8081927 C36.1355172,76.2411615 36.5856034,70.7667865 34.2737069,69.4169948 C32.0401293,67.7911094 30.0762069,68.6629323 30.0117672,68.6213698 C29.7520259,68.8103802 31.3808621,67.993974 33.5767672,69.2438177 C35.886681,70.221526 35.985819,75.3317344 30.9357328,76.1125156 C28.69125,76.5459531 25.923319,75.6385052 24.6107328,73.7068385 C23.3576293,71.7731927 23.4865086,69.003349 25.3711207,67.0063698 C28.2124138,63.9911094 34.2598276,63.5814219 37.7356034,66.0078802 C39.8403017,67.4853281 40.9932759,69.5753281 41.534569,71.7682448 C42.1303879,74.1907448 42.5209914,76.6953802 42.2414224,79.1693385 C42.0689224,80.664599 41.7060776,82.1717344 41.2460776,83.6264219 C39.1731034,90.1042344 34.1468103,96.726526 28.1003879,103.695172 C26.6609052,105.381422 22.5149569,109.465432 22.0410776,109.89788 C21.9121983,110.055224 21.3560345,110.775641 20.64125,111.697932 C22.2542241,111.938401 23.8642241,112.183818 25.4752155,112.46288 C27.9556466,109.459495 30.4132759,106.523401 32.6488362,103.648661 C38.495,96.220849 43.3190517,88.8118385 44.4155172,81.5473073 C44.8269397,78.812099 44.7079741,76.0897552 44.0130172,73.408974 C43.6640517,72.0463177 43.1743103,70.7163177 42.5646121,69.4179844 C42.1660776,68.582776 41.5276293,67.815849 41.2421121,66.9390781 C40.9139655,65.9316823 41.2351724,65.0450156 41.6822845,64.0930365 C44.6653448,63.9970469 47.5839655,64.2355365 50.4143534,64.1722031 C53.2596121,64.1286615 56.0771121,63.7644948 58.4524569,62.7462135 C63.1625,60.602776 65.8104741,57.1511094 68.4346552,54.7394948 C69.7303879,53.5005365 70.9765517,52.4228802 72.2018966,51.6044948 C73.4579741,50.810849 74.74875,50.3675156 75.8471983,50.1755365 C77.9707328,49.8074115 79.1663362,50.4239219 79.4022845,50.5199115 C79.1812069,50.395224 78.2175862,49.8925156 76.3765948,50.0320469" id="Fill-1" fill="#44AF35"></path>
                            <path d="M19.1768836,1.11209375 C19.5585647,0.73209375 19.9442112,0.368916667 20.3268836,0.0156354167 C16.8292974,3.20209375 17.9574871,8.56167708 20.1999871,11.8787604 C24.9675302,18.9483437 32.596194,24.3158437 36.8036078,31.8149062 C41.5364526,40.2540729 37.815806,48.6437604 35.4702026,57.2373021 C35.1688233,58.3436562 34.9021422,59.4579271 34.6969267,60.5771458 C34.6215819,60.5623021 34.5472284,60.5543854 34.472875,60.5405312 C15.7883491,48.1064167 5.39076293,20.1120937 19.1768836,1.11209375" id="Fill-4" fill="#66C425"></path>
                            <path d="M4.06518966,38.5709896 C1.51932759,27.0720312 9.77850862,10.3639062 19.1767845,1.11229167 C5.39066379,20.1122917 15.78825,48.1066146 34.4727759,60.5407292 C20.0293707,58.4240104 6.87971552,51.2802083 4.06518966,38.5709896" id="Fill-6" fill="#83D44B"></path>
                            <path d="M78.4757414,50.2174948 C78.7572931,50.3441615 79.0328966,50.4718177 79.3035431,50.6054115 C76.8756552,49.4020781 73.4920776,50.5193177 71.5569052,51.905724 C67.43475,54.8606198 64.7084569,58.9020781 60.2442759,61.6560885 C55.2229397,64.7515052 49.3866897,64.0429635 43.5484569,63.9687448 C42.7969914,63.9618177 42.0455259,63.970724 41.2980259,64.0023906 C41.2960431,63.9697344 41.2950517,63.9370781 41.2940603,63.9034323 C47.511,54.0768698 64.7044914,46.193849 78.4757414,50.2174948" id="Fill-8" fill="#55BA16"></path>
                            <path d="M52.5436379,47.711474 C59.7767414,45.2513698 71.4938534,47.0454844 78.4761379,50.217099 C64.7048879,46.1944427 47.5113966,54.076474 41.2944569,63.904026 C41.2210948,57.1669427 44.5441983,50.4328281 52.5436379,47.711474" id="Fill-10" fill="#66C425"></path>
                            <path d="M73.6379095,99.3316042 C63.3424353,101.698687 40.4822198,92.2244167 33.5058836,94.9962396 C28.5073491,96.9823333 27.375194,100.912958 24.9909267,104.647646 C22.7514009,108.157698 18.8007543,107.424417 15.4746767,108.027073 C8.11071121,109.36301 3.71493534,113.959625 1.35247845,120.665042 C0.188599138,123.96926 -0.782952586,127.801917 1.59635776,130.758792 C4.09859914,133.869052 7.51290948,131.470302 10.3512284,130.681604 C31.9732112,124.674833 53.5773491,118.598792 75.1190302,112.314937 C78.5442457,111.315458 84.6114871,111.879521 84.3953664,107.397698 C84.1405819,102.103427 77.9593319,98.3380625 73.6379095,99.3316042" id="Fill-12" fill="#71543B"></path>
                        </g>
                    </g>
                </g>
            </g>
        </g>
    </g>
</svg>