<?xml version="1.0" encoding="utf-8"?>
<!-- Generator: Adobe Illustrator 19.0.0, SVG Export Plug-In . SVG Version: 6.00 Build 0)  -->
<svg version="1.1" id="图层_1" xmlns="http://www.w3.org/2000/svg" xmlns:xlink="http://www.w3.org/1999/xlink" x="0px" y="0px"
	 viewBox="0 0 126 140" style="enable-background:new 0 0 126 140;" xml:space="preserve">
<style type="text/css">
	.st0{fill:#82BA33;}
	.st1{fill:none;}
	.st2{fill-rule:evenodd;clip-rule:evenodd;fill:#82BA33;}
	.st3{fill-rule:evenodd;clip-rule:evenodd;fill:#70A624;}
	.st4{fill:#6FBE25;}
	.st5{fill-rule:evenodd;clip-rule:evenodd;fill:#6FBE25;}
	.st6{fill-rule:evenodd;clip-rule:evenodd;fill:#4DA624;}
	.st7{fill:#C4D83D;}
	.st8{fill-rule:evenodd;clip-rule:evenodd;fill:#C4D83D;}
	.st9{fill-rule:evenodd;clip-rule:evenodd;fill:#A2C52E;}
</style>
<g id="XMLID_82_">
	<rect id="XMLID_83_" x="47.1" y="55.3" class="st0" width="5.2" height="84.7"/>
	<rect id="XMLID_281_" x="0" y="0" class="st1" width="126" height="140"/>
	<path id="XMLID_276_" class="st2" d="M49.7,0.3c9.9,4.8,16.9,16,16.9,28.9c0,13-7,24.1-16.9,28.9c-10-4.8-16.9-16-16.9-28.9
		C32.8,16.2,39.8,5.1,49.7,0.3"/>
	<path id="XMLID_271_" class="st3" d="M49.7,0.3c9.9,4.8,16.9,16,16.9,28.9c0,13-7,24.1-16.9,28.9V0.3z"/>
	<path id="XMLID_266_" class="st2" d="M0.1,49.7c9.2-6.2,22.2-6.6,33.4-0.1c11.1,6.5,17.2,18.2,16.3,29.3
		c-9.2,6.2-22.2,6.6-33.4,0.1C5.2,72.5-0.8,60.8,0.1,49.7"/>
	<path id="XMLID_261_" class="st3" d="M0.1,49.7c9.2-6.2,22.2-6.6,33.4-0.1c11.1,6.5,17.2,18.2,16.3,29.3L0.1,49.7z"/>
	<path id="XMLID_256_" class="st2" d="M99.5,49.7c-9.2-6.2-22.2-6.6-33.4-0.1C55.1,56.2,49,67.9,49.9,78.9
		c9.2,6.2,22.2,6.6,33.4,0.1C94.4,72.5,100.4,60.8,99.5,49.7"/>
	<path id="XMLID_251_" class="st3" d="M99.5,49.7c-9.2-6.2-22.2-6.6-33.4-0.1C55.1,56.2,49,67.9,49.9,78.9L99.5,49.7z"/>
	<path id="XMLID_246_" class="st2" d="M0.1,88.6c9.2-6.2,22.2-6.6,33.4-0.1c11.1,6.5,17.2,18.2,16.3,29.3
		c-9.2,6.2-22.2,6.6-33.4,0.1C5.2,111.3-0.8,99.7,0.1,88.6"/>
	<path id="XMLID_241_" class="st3" d="M0.1,88.6c9.2-6.2,22.2-6.6,33.4-0.1c11.1,6.5,17.2,18.2,16.3,29.3L0.1,88.6z"/>
	<path id="XMLID_236_" class="st2" d="M99.5,88.6c-9.2-6.2-22.2-6.6-33.4-0.1c-11.1,6.5-17.2,18.2-16.3,29.3
		c9.2,6.2,22.2,6.6,33.4,0.1C94.4,111.3,100.4,99.7,99.5,88.6"/>
	<path id="XMLID_231_" class="st3" d="M99.5,88.6c-9.2-6.2-22.2-6.6-33.4-0.1c-11.1,6.5-17.2,18.2-16.3,29.3L99.5,88.6z"/>
	<rect id="XMLID_176_" x="94.3" y="89.2" class="st4" width="3.1" height="50.8"/>
	<rect id="XMLID_228_" x="0" y="0" class="st1" width="126" height="140"/>
	<path id="XMLID_223_" class="st5" d="M95.8,56.2c6,2.9,10.1,9.6,10.1,17.4c0,7.8-4.2,14.5-10.1,17.4c-6-2.9-10.1-9.6-10.1-17.4
		C85.7,65.7,89.9,59.1,95.8,56.2"/>
	<path id="XMLID_218_" class="st6" d="M95.8,56.2c6,2.9,10.1,9.6,10.1,17.4c0,7.8-4.2,14.5-10.1,17.4V56.2z"/>
	<path id="XMLID_213_" class="st5" d="M66.1,85.8c5.5-3.7,13.3-4,20-0.1c6.7,3.9,10.3,10.9,9.8,17.6c-5.5,3.7-13.3,4-20,0.1
		C69.1,99.5,65.5,92.5,66.1,85.8"/>
	<path id="XMLID_208_" class="st6" d="M66.1,85.8c5.5-3.7,13.3-4,20-0.1c6.7,3.9,10.3,10.9,9.8,17.6L66.1,85.8z"/>
	<path id="XMLID_203_" class="st5" d="M125.7,85.8c-5.5-3.7-13.3-4-20-0.1c-6.7,3.9-10.3,10.9-9.8,17.6c5.5,3.7,13.3,4,20,0.1
		C122.6,99.5,126.3,92.5,125.7,85.8"/>
	<path id="XMLID_198_" class="st6" d="M125.7,85.8c-5.5-3.7-13.3-4-20-0.1c-6.7,3.9-10.3,10.9-9.8,17.6L125.7,85.8z"/>
	<path id="XMLID_193_" class="st5" d="M66.1,109.2c5.5-3.7,13.3-4,20-0.1c6.7,3.9,10.3,10.9,9.8,17.6c-5.5,3.7-13.3,4-20,0.1
		C69.1,122.8,65.5,115.8,66.1,109.2"/>
	<path id="XMLID_188_" class="st6" d="M66.1,109.2c5.5-3.7,13.3-4,20-0.1c6.7,3.9,10.3,10.9,9.8,17.6L66.1,109.2z"/>
	<path id="XMLID_183_" class="st5" d="M125.7,109.2c-5.5-3.7-13.3-4-20-0.1C99,113,95.4,120,95.9,126.7c5.5,3.7,13.3,4,20,0.1
		C122.6,122.8,126.3,115.8,125.7,109.2"/>
	<path id="XMLID_178_" class="st6" d="M125.7,109.2c-5.5-3.7-13.3-4-20-0.1C99,113,95.4,120,95.9,126.7L125.7,109.2z"/>
	<rect id="XMLID_174_" x="63.9" y="106.1" class="st7" width="2.1" height="33.9"/>
	<rect id="XMLID_175_" x="0" y="0" class="st1" width="126" height="140"/>
	<path id="XMLID_170_" class="st8" d="M64.9,84.1c4,1.9,6.8,6.4,6.8,11.6c0,5.2-2.8,9.6-6.8,11.6c-4-1.9-6.8-6.4-6.8-11.6
		C58.1,90.5,60.9,86,64.9,84.1"/>
	<path id="XMLID_165_" class="st9" d="M64.9,84.1c4,1.9,6.8,6.4,6.8,11.6c0,5.2-2.8,9.6-6.8,11.6V84.1z"/>
	<path id="XMLID_131_" class="st8" d="M45,103.9c3.7-2.5,8.9-2.7,13.3,0c4.4,2.6,6.9,7.3,6.5,11.7c-3.7,2.5-8.9,2.7-13.3,0
		C47.1,113,44.7,108.3,45,103.9"/>
	<path id="XMLID_125_" class="st9" d="M45,103.9c3.7-2.5,8.9-2.7,13.3,0c4.4,2.6,6.9,7.3,6.5,11.7L45,103.9z"/>
	<path id="XMLID_118_" class="st8" d="M84.8,103.9c-3.7-2.5-8.9-2.7-13.3,0c-4.5,2.6-6.9,7.3-6.5,11.7c3.7,2.5,8.9,2.7,13.3,0
		C82.8,113,85.2,108.3,84.8,103.9"/>
	<path id="XMLID_112_" class="st9" d="M84.8,103.9c-3.7-2.5-8.9-2.7-13.3,0c-4.5,2.6-6.9,7.3-6.5,11.7L84.8,103.9z"/>
	<path id="XMLID_106_" class="st8" d="M45,119.4c3.7-2.5,8.9-2.7,13.3,0c4.4,2.6,6.9,7.3,6.5,11.7c-3.7,2.5-8.9,2.7-13.3,0
		C47.1,128.5,44.7,123.9,45,119.4"/>
	<path id="XMLID_100_" class="st9" d="M45,119.4c3.7-2.5,8.9-2.7,13.3,0c4.4,2.6,6.9,7.3,6.5,11.7L45,119.4z"/>
	<path id="XMLID_93_" class="st8" d="M84.8,119.4c-3.7-2.5-8.9-2.7-13.3,0c-4.5,2.6-6.9,7.3-6.5,11.7c3.7,2.5,8.9,2.7,13.3,0
		C82.8,128.5,85.2,123.9,84.8,119.4"/>
	<path id="XMLID_87_" class="st9" d="M84.8,119.4c-3.7-2.5-8.9-2.7-13.3,0c-4.5,2.6-6.9,7.3-6.5,11.7L84.8,119.4z"/>
	<rect id="XMLID_85_" x="0" y="0" class="st1" width="126" height="140"/>
</g>
</svg>
