<?xml version="1.0" encoding="UTF-8" standalone="no"?>
<svg width="137px" height="101px" viewBox="0 0 137 101" version="1.1" xmlns="http://www.w3.org/2000/svg" xmlns:xlink="http://www.w3.org/1999/xlink">
    <!-- Generator: Sketch 3.6.1 (26313) - http://www.bohemiancoding.com/sketch -->
    <title>2</title>
    <desc>Created with Sketch.</desc>
    <defs></defs>
    <g id="Page-1" stroke="none" stroke-width="1" fill="none" fill-rule="evenodd">
        <g id="奇思能达" transform="translate(-1097.000000, -434.000000)">
            <g id="2plan" transform="translate(282.000000, 412.000000)">
                <g id="2" transform="translate(814.000000, 22.000000)">
                    <text id="PLAN" font-family="PingFangSC-Regular, PingFang SC" font-size="20" font-weight="normal" fill="#9B9B9B">
                        <tspan x="0" y="47">PLAN</tspan>
                    </text>
                    <g id="Path-479-+-Oval-8" transform="translate(32.500000, 79.500000) scale(-1, 1) translate(-32.500000, -79.500000) translate(7.000000, 58.000000)">
                        <path d="M0.882789498,0.34375 L34.0507812,0.34375 L44.5117187,38.578125" id="Path-479" stroke="#979797"></path>
                        <circle id="Oval-8" fill="#9B9B9B" cx="45" cy="38" r="5"></circle>
                    </g>
                    <g id="plan" transform="translate(58.000000, 0.000000)">
                        <path d="M40,0 C62.0911475,0 80,17.9088525 80,40 C80,62.0911475 62.0911475,80 40,80 C17.9088525,80 0,62.0911475 0,40 C0,17.9088525 17.9088525,0 40,0" id="Fill-1" fill="#717171"></path>
                        <g id="Group" transform="translate(22.000000, 13.000000)">
                            <path d="M27.1846154,3.03333333 L23.75,3.03333333 C23.3846154,3.03333333 23.0192308,2.81666667 22.8,2.52777778 C21.9961538,1.22777778 20.6076923,0.433333333 19,0.433333333 C17.3923077,0.433333333 15.9307692,1.3 15.2,2.52777778 C14.9807692,2.88888889 14.6153846,3.03333333 14.25,3.03333333 L10.8153846,3.03333333 C8.91538462,3.03333333 7.23461538,4.47777778 7.08846154,6.35555556 C6.94230769,8.45 8.62307692,10.1111111 10.6692308,10.1111111 L27.3307692,10.1111111 C29.3769231,10.1111111 31.0576923,8.37777778 30.9115385,6.35555556 C30.7653846,4.47777778 29.1576923,3.03333333 27.1846154,3.03333333 L27.1846154,3.03333333 Z" id="Shape" fill="#FFD865"></path>
                            <path d="M37.1230769,7.00555556 L33.6153846,7.00555556 C33.3230769,7.00555556 33.1038462,7.22222222 33.0307692,7.51111111 C32.8115385,8.59444444 32.3730769,9.67777778 31.5692308,10.4722222 C30.4730769,11.6277778 28.9384615,12.2777778 27.3307692,12.2777778 L10.6692308,12.2777778 C9.06153846,12.2777778 7.52692308,11.6277778 6.43076923,10.4722222 C5.62692308,9.67777778 5.11538462,8.59444444 4.96923077,7.51111111 C4.89615385,7.22222222 4.67692308,7.00555556 4.38461538,7.00555556 L0.876923077,7.00555556 C0.584615385,7.00555556 0.292307692,7.29444444 0.292307692,7.58333333 L0.292307692,51.0611111 C0.292307692,51.35 0.584615385,51.6388889 0.876923077,51.6388889 L37.1230769,51.6388889 C37.4153846,51.6388889 37.7076923,51.35 37.7076923,51.0611111 L37.7076923,7.58333333 C37.7076923,7.29444444 37.4153846,7.00555556 37.1230769,7.00555556 L37.1230769,7.00555556 Z" id="Shape" fill="#FFFFFF"></path>
                            <path d="M31.35,45.7888889 L20.0230769,45.7888889 C19.2192308,45.7888889 18.5615385,45.1388889 18.5615385,44.3444444 C18.5615385,43.55 19.2192308,42.9 20.0230769,42.9 L31.35,42.9 C32.1538462,42.9 32.8115385,43.55 32.8115385,44.3444444 C32.8115385,45.1388889 32.1538462,45.7888889 31.35,45.7888889 L31.35,45.7888889 Z" id="Path" fill="#C3C3C3"></path>
                            <path d="M20.0230769,39.8666667 C19.2192308,39.8666667 18.5615385,39.2166667 18.5615385,38.4222222 C18.5615385,37.6277778 19.2192308,36.9777778 20.0230769,36.9777778 L31.35,36.9777778 C32.1538462,36.9777778 32.8115385,37.6277778 32.8115385,38.4222222 C32.8115385,39.2166667 32.1538462,39.8666667 31.35,39.8666667 L20.0230769,39.8666667 Z" id="Path" fill="#C3C3C3"></path>
                            <path d="M31.35,27.8055556 L20.0230769,27.8055556 C19.2192308,27.8055556 18.5615385,27.1555556 18.5615385,26.3611111 C18.5615385,25.5666667 19.2192308,24.9166667 20.0230769,24.9166667 L31.35,24.9166667 C32.1538462,24.9166667 32.8115385,25.5666667 32.8115385,26.3611111 C32.8115385,27.1555556 32.1538462,27.8055556 31.35,27.8055556 L31.35,27.8055556 Z" id="Path" fill="#C3C3C3"></path>
                            <path d="M31.35,21.8833333 L20.0230769,21.8833333 C19.2192308,21.8833333 18.5615385,21.2333333 18.5615385,20.4388889 C18.5615385,19.6444444 19.2192308,18.9944444 20.0230769,18.9944444 L31.35,18.9944444 C32.1538462,18.9944444 32.8115385,19.6444444 32.8115385,20.4388889 C32.8115385,21.2333333 32.1538462,21.8833333 31.35,21.8833333 L31.35,21.8833333 Z" id="Path" fill="#C3C3C3"></path>
                            <path d="M14.9076923,27.5888889 C14.9076923,27.95 14.6153846,28.1666667 14.3230769,28.1666667 L5.91923077,28.1666667 C5.55384615,28.1666667 5.33461538,27.8777778 5.33461538,27.5888889 L5.33461538,19.2111111 C5.33461538,18.85 5.62692308,18.6333333 5.91923077,18.6333333 L14.3230769,18.6333333 C14.6884615,18.6333333 14.9076923,18.9222222 14.9076923,19.2111111 L14.9076923,27.5888889 L14.9076923,27.5888889 Z" id="Path" fill="#C3C3C3"></path>
                            <path d="M14.9076923,45.5 C14.9076923,45.8611111 14.6153846,46.0777778 14.3230769,46.0777778 L5.91923077,46.0777778 C5.55384615,46.0777778 5.33461538,45.7888889 5.33461538,45.5 L5.33461538,37.1944444 C5.33461538,36.8333333 5.62692308,36.6166667 5.91923077,36.6166667 L14.3230769,36.6166667 C14.6884615,36.6166667 14.9076923,36.9055556 14.9076923,37.1944444 L14.9076923,45.5 L14.9076923,45.5 Z" id="Path" fill="#C3C3C3"></path>
                        </g>
                    </g>
                </g>
            </g>
        </g>
    </g>
</svg>