<?xml version="1.0" encoding="UTF-8" standalone="no"?>
<svg width="92px" height="72px" viewBox="0 0 92 72" version="1.1" xmlns="http://www.w3.org/2000/svg" xmlns:xlink="http://www.w3.org/1999/xlink">
    <!-- Generator: Sketch 3.6.1 (26313) - http://www.bohemiancoding.com/sketch -->
    <title>2</title>
    <desc>Created with Sketch.</desc>
    <defs></defs>
    <g id="Page-1" stroke="none" stroke-width="1" fill="none" fill-rule="evenodd">
        <g id="奇思能达" transform="translate(-282.000000, -463.000000)">
            <g id="2plan" transform="translate(282.000000, 412.000000)">
                <g id="2" transform="translate(0.000000, 51.000000)">
                    <text id="PLAN" font-family="PingFangSC-Regular, PingFang SC" font-size="12" font-weight="normal" fill="#9B9B9B">
                        <tspan x="55" y="28">PLAN</tspan>
                    </text>
                    <g id="Path-479-+-Oval-8" transform="translate(55.888112, 34.200000)">
                        <path d="M0.530908369,0.20625 L20.4780922,0.20625 L32.7832714,35.146875" id="Path-479" stroke="#979797" stroke-width="0.6"></path>
                        <ellipse id="Oval-8" fill="#9B9B9B" cx="33.0769231" cy="34.8" rx="3.00699301" ry="3"></ellipse>
                    </g>
                    <g id="plan">
                        <path d="M48.1118881,24 C48.1118881,37.2546885 37.3415293,48 24.0559441,48 C10.7703588,48 0,37.2546885 0,24 C0,10.7453115 10.7703588,0 24.0559441,0 C37.3415293,0 48.1118881,10.7453115 48.1118881,24 Z" id="Fill-1" fill="#727272"></path>
                        <g id="Group" transform="translate(14.000000, 8.000000)">
                            <path d="M15.7751479,1.75 L13.7820513,1.75 C13.5700197,1.75 13.3579882,1.625 13.2307692,1.45833333 C12.7642998,0.708333333 11.9585799,0.25 11.025641,0.25 C10.0927022,0.25 9.24457594,0.75 8.82051282,1.45833333 C8.69329389,1.66666667 8.48126233,1.75 8.26923077,1.75 L6.27613412,1.75 C5.17357002,1.75 4.19822485,2.58333333 4.11341223,3.66666667 C4.02859961,4.875 5.00394477,5.83333333 6.1913215,5.83333333 L15.8599606,5.83333333 C17.0473373,5.83333333 18.0226824,4.83333333 17.9378698,3.66666667 C17.8530572,2.58333333 16.9201183,1.75 15.7751479,1.75 L15.7751479,1.75 Z" id="Shape" fill="#FFD865"></path>
                            <path d="M21.5424063,4.04166667 L19.5069034,4.04166667 C19.3372781,4.04166667 19.2100592,4.16666667 19.1676529,4.33333333 C19.0404339,4.95833333 18.7859961,5.58333333 18.3195266,6.04166667 C17.683432,6.70833333 16.7928994,7.08333333 15.8599606,7.08333333 L6.1913215,7.08333333 C5.25838264,7.08333333 4.3678501,6.70833333 3.73175542,6.04166667 C3.265286,5.58333333 2.96844181,4.95833333 2.88362919,4.33333333 C2.84122288,4.16666667 2.71400394,4.04166667 2.5443787,4.04166667 L0.50887574,4.04166667 C0.339250493,4.04166667 0.169625247,4.20833333 0.169625247,4.375 L0.169625247,29.4583333 C0.169625247,29.625 0.339250493,29.7916667 0.50887574,29.7916667 L21.5424063,29.7916667 C21.7120316,29.7916667 21.8816568,29.625 21.8816568,29.4583333 L21.8816568,4.375 C21.8816568,4.20833333 21.7120316,4.04166667 21.5424063,4.04166667 L21.5424063,4.04166667 Z" id="Shape" fill="#FFFFFF"></path>
                            <path d="M18.1923077,26.4166667 L11.6193294,26.4166667 C11.15286,26.4166667 10.7712032,26.0416667 10.7712032,25.5833333 C10.7712032,25.125 11.15286,24.75 11.6193294,24.75 L18.1923077,24.75 C18.6587771,24.75 19.0404339,25.125 19.0404339,25.5833333 C19.0404339,26.0416667 18.6587771,26.4166667 18.1923077,26.4166667 L18.1923077,26.4166667 Z" id="Path" fill="#C3C3C3"></path>
                            <path d="M18.1923077,23 L11.6193294,23 C11.15286,23 10.7712032,22.625 10.7712032,22.1666667 C10.7712032,21.7083333 11.15286,21.3333333 11.6193294,21.3333333 L18.1923077,21.3333333 C18.6587771,21.3333333 19.0404339,21.7083333 19.0404339,22.1666667 C19.0404339,22.625 18.6587771,23 18.1923077,23 L18.1923077,23 Z" id="Path" fill="#C3C3C3"></path>
                            <path d="M18.1923077,16.0416667 L11.6193294,16.0416667 C11.15286,16.0416667 10.7712032,15.6666667 10.7712032,15.2083333 C10.7712032,14.75 11.15286,14.375 11.6193294,14.375 L18.1923077,14.375 C18.6587771,14.375 19.0404339,14.75 19.0404339,15.2083333 C19.0404339,15.6666667 18.6587771,16.0416667 18.1923077,16.0416667 L18.1923077,16.0416667 Z" id="Path" fill="#C3C3C3"></path>
                            <path d="M18.1923077,12.625 L11.6193294,12.625 C11.15286,12.625 10.7712032,12.25 10.7712032,11.7916667 C10.7712032,11.3333333 11.15286,10.9583333 11.6193294,10.9583333 L18.1923077,10.9583333 C18.6587771,10.9583333 19.0404339,11.3333333 19.0404339,11.7916667 C19.0404339,12.25 18.6587771,12.625 18.1923077,12.625 L18.1923077,12.625 Z" id="Path" fill="#C3C3C3"></path>
                            <path d="M8.65088757,15.9166667 C8.65088757,16.125 8.48126233,16.25 8.31163708,16.25 L3.43491124,16.25 C3.22287968,16.25 3.09566075,16.0833333 3.09566075,15.9166667 L3.09566075,11.0833333 C3.09566075,10.875 3.265286,10.75 3.43491124,10.75 L8.31163708,10.75 C8.52366864,10.75 8.65088757,10.9166667 8.65088757,11.0833333 L8.65088757,15.9166667 L8.65088757,15.9166667 Z" id="Path" fill="#C3C3C3"></path>
                            <path d="M8.65088757,26.25 C8.65088757,26.4583333 8.48126233,26.5833333 8.31163708,26.5833333 L3.43491124,26.5833333 C3.22287968,26.5833333 3.09566075,26.4166667 3.09566075,26.25 L3.09566075,21.4583333 C3.09566075,21.25 3.265286,21.125 3.43491124,21.125 L8.31163708,21.125 C8.52366864,21.125 8.65088757,21.2916667 8.65088757,21.4583333 L8.65088757,26.25 L8.65088757,26.25 Z" id="Path" fill="#C3C3C3"></path>
                        </g>
                    </g>
                </g>
            </g>
        </g>
    </g>
</svg>