<?xml version="1.0" encoding="UTF-8" standalone="no"?>
<svg width="1631px" height="376px" viewBox="0 0 1631 376" version="1.1" xmlns="http://www.w3.org/2000/svg" xmlns:xlink="http://www.w3.org/1999/xlink">
    <!-- Generator: Sketch 3.6.1 (26313) - http://www.bohemiancoding.com/sketch -->
    <title>远景</title>
    <desc>Created with Sketch.</desc>
    <defs></defs>
    <g id="Page-1" stroke="none" stroke-width="1" fill="none" fill-rule="evenodd">
        <g id="远景">
            <g id="Page-1" transform="translate(744.000000, 34.000000)">
                <g id="Fill-7-+-Fill-8-+-Fill-9">
                    <path d="M820.459942,278.398845 C802.305546,270.067245 761.001843,245.033145 727.686074,179.854095 C683.664118,93.708495 657.649359,81.682695 621.625151,81.682695 C585.600942,81.682695 560.292733,94.07202 515.574041,179.854095 C479.716656,248.648745 458.157085,267.14922 429.453513,278.398845 L820.459942,278.398845 Z" id="Fill-7" fill="#EEEEEE"></path>
                    <path d="M372.25441,262.730918 C357.878091,257.484368 325.209992,241.675943 298.851773,200.479718 C264.024773,146.049218 243.466146,138.454493 214.968652,138.454493 C186.451531,138.454493 166.43263,146.265368 131.056091,200.479718 C102.676355,243.935693 85.6406626,255.627443 62.9329484,262.730918 L372.25441,262.730918 Z" id="Fill-8" fill="#F2F2F2"></path>
                    <path d="M162.133473,244.788502 C211.326978,226.543477 233.161319,215.775278 283.32633,119.549228 C337.504934,15.6400275 368.16133,0.6176025 411.790758,0.6176025 C455.439813,0.6176025 486.155088,15.5909025 540.255187,119.549228 C583.246758,202.079227 623.686901,226.130827 663.871901,243.324577 C699.081615,258.337177 728.874451,274.479652 853.825758,275.157578 C900.693538,275.383553 883.177,276.906428 881.940538,280.856077 C879.811077,287.527253 879.251725,287.861302 827.13389,289.492253 C765.565956,291.417953 600.351143,301.891403 672.67433,316.569952 C744.997516,331.248502 646.296484,345.927052 563.188604,341.044027 C480.119978,336.141352 599.438516,317.012077 461.602495,314.064577 C323.776286,311.136728 257.262505,306.794077 241.639912,312.649778 C225.997692,318.525128 265.083615,333.203678 244.544615,337.104202 C224.025242,341.044027 77.4064176,337.104202 117.483473,323.408153 C157.570341,309.712103 186.568308,290.130877 123.037736,288.185528 C80.0363516,286.859152 10.294033,291.123203 1.17758242,277.751377 C-6.41782418,266.619653 23.3259451,264.065152 74.8157363,262.090328 C102.184714,261.058702 136.324791,254.387527 162.133473,244.788502" id="Fill-9" fill="#E1E1E1"></path>
                </g>
            </g>
            <g id="Page-1-Copy-4">
                <g id="Fill-7-+-Fill-8-+-Fill-9">
                    <path d="M897.233533,304.371915 C877.380361,295.263023 832.211711,267.89338 795.778457,196.633486 C747.637197,102.450978 719.188138,89.303238 679.793006,89.303238 C640.397873,89.303238 612.721478,102.848418 563.818286,196.633486 C524.605588,271.846296 501.028604,292.072762 469.639129,304.371915 L897.233533,304.371915 Z" id="Fill-7" fill="#EEEEEE"></path>
                    <path d="M407.087686,287.242257 C391.36612,281.506233 355.641142,264.222969 326.816482,219.183365 C288.730586,159.6748 266.248209,151.37153 235.084095,151.37153 C203.898517,151.37153 182.006371,159.911116 143.319513,219.183365 C112.284176,266.693541 93.6543887,279.476067 68.8218263,287.242257 L407.087686,287.242257 Z" id="Fill-8" fill="#F2F2F2"></path>
                    <path d="M177.304925,267.625914 C231.101656,247.678729 254.97912,235.905916 309.838264,130.702508 C369.086568,17.0991554 402.611601,0.675221392 450.323603,0.675221392 C498.057067,0.675221392 531.646488,17.0454473 590.808942,130.702508 C637.8234,220.9321 682.047682,247.227581 725.992947,266.025413 C764.49737,282.438605 797.078035,300.087084 933.721517,300.828255 C984.974895,301.075313 965.819267,302.740263 964.467105,307.058394 C962.138382,314.351952 961.526689,314.717167 904.531988,316.500276 C837.202906,318.605633 656.528307,330.056198 735.619053,346.104175 C814.709798,362.152153 706.77293,378.20013 615.888327,372.861546 C525.04665,367.501479 655.530283,346.587548 504.796415,343.365063 C354.073278,340.164061 281.335547,335.416265 264.251088,341.81827 C247.145165,348.241757 289.888508,364.289735 267.427595,368.554157 C244.988145,372.861546 84.6496337,368.554157 128.476853,353.580342 C172.314803,338.606526 204.026221,317.198481 134.55085,315.071641 C87.5256608,313.621522 11.2572852,318.283385 1.28777333,303.664042 C-7.01836466,291.493789 25.5086434,288.700968 81.8165323,286.541903 C111.746531,285.414033 149.081226,278.120475 177.304925,267.625914" id="Fill-9" fill="#E1E1E1"></path>
                </g>
            </g>
        </g>
    </g>
</svg>