<?xml version="1.0" encoding="utf-8"?>
<!-- Generator: Adobe Illustrator 19.0.0, SVG Export Plug-In . SVG Version: 6.00 Build 0)  -->
<svg version="1.1" id="图层_1" xmlns="http://www.w3.org/2000/svg" xmlns:xlink="http://www.w3.org/1999/xlink" x="0px" y="0px"
	 viewBox="0 0 120 120" style="enable-background:new 0 0 120 120;" xml:space="preserve">
<style type="text/css">
	.st0{fill:#FFFFFF;}
	.st1{fill:#50B52A;}
	.st2{fill:#0EA651;}
</style>
<g id="XMLID_6_">
	<g id="XMLID_5_">
		<path id="XMLID_28_" class="st0" d="M60,117.5C28.3,117.5,2.5,91.7,2.5,60C2.5,28.3,28.3,2.5,60,2.5c31.7,0,57.5,25.8,57.5,57.5
			C117.5,91.7,91.7,117.5,60,117.5z"/>
		<path id="XMLID_25_" class="st1" d="M60,5c30.3,0,55,24.7,55,55s-24.7,55-55,55S5,90.3,5,60S29.7,5,60,5 M60,0C26.9,0,0,26.9,0,60
			s26.9,60,60,60s60-26.9,60-60S93.1,0,60,0L60,0z"/>
	</g>
	<g id="XMLID_7_">
		<path id="XMLID_8_" class="st2" d="M33.2,68.3c-1.3,3.1-2.8,5.7-4.5,8L25.6,74c1.7-2,3.2-4.4,4.5-7.2L33.2,68.3z M43.6,43.2v3.1
			h13.6v3.5H43.6v3.5H55v12.5H30.2V53.3h9.7V43.2H43.6z M51.3,56.8H33.9v5.5h17.4V56.8z M40.9,75.4l-3.8,0.9c-0.4-2.9-1-5.4-1.7-7.6
			L39,68C39.7,70.3,40.3,72.7,40.9,75.4z M49.1,75.3l-3.7,0.9c-0.6-3-1.5-5.7-2.5-8l3.5-0.7C47.5,69.9,48.4,72.5,49.1,75.3z
			 M58.8,74.3l-3.2,2.2c-1.3-2.4-3-5-5.1-7.9l3.1-1.9C55.8,69.6,57.6,72.1,58.8,74.3z"/>
		<path id="XMLID_21_" class="st2" d="M76.4,47.9v-4.7h3.9v4.7h11.2v3.6H80.2v4.9h14.1V60H80.2v11.5h7.3v-9.1h3.6v13.9h-3.6v-1.4
			H69.1v1.4h-3.6V62.4h3.6v9.1h7.3V60H62.3v-3.6h14.1v-4.9H65v-3.6H76.4z"/>
	</g>
</g>
</svg>
