<?xml version="1.0" encoding="utf-8"?>
<!-- Generator: Adobe Illustrator 19.0.0, SVG Export Plug-In . SVG Version: 6.00 Build 0)  -->
<svg version="1.1" id="图层_1" xmlns="http://www.w3.org/2000/svg" xmlns:xlink="http://www.w3.org/1999/xlink" x="0px" y="0px"
	 viewBox="0 0 138 138" style="enable-background:new 0 0 138 138;" xml:space="preserve">
<style type="text/css">
	.st0{fill:#FFFFFF;}
	.st1{fill:#5BB725;}
	.st2{fill:#00A63C;}
</style>
<g id="XMLID_1_">
	<path id="XMLID_32_" class="st0" d="M69,135.5c-36.7,0-66.5-29.8-66.5-66.5S32.3,2.5,69,2.5s66.5,29.8,66.5,66.5
		S105.7,135.5,69,135.5z"/>
	<path id="XMLID_28_" class="st1" d="M69,5c35.3,0,64,28.7,64,64s-28.7,64-64,64S5,104.3,5,69S33.7,5,69,5 M69,0C30.9,0,0,30.9,0,69
		s30.9,69,69,69s69-30.9,69-69S107.1,0,69,0L69,0z"/>
</g>
<g id="XMLID_2_">
	<path id="XMLID_4_" class="st2" d="M109.4,39.4c0-2.2-1.2-4.3-3.1-5.5c-2.2-1.3-4.7-0.9-7.1-0.2c-5.1,1.5-9.5,4.8-12.4,9.2
		c-1.4,2.2-2.4,4.7-3,7.2c-0.5,2.2-0.3,4.5-2.7,5.6c-2.6,1.1-4.6-1.1-6.7-2.4c-2.5-1.4-5.2-2.5-8-3.1c-5.6-1.2-11-0.3-16.3,1.4
		c-2.3,0.7-4.4,2.1-6.5,3.2c-2.3,1.3-4.5,2.8-6.4,4.6c-6.7,6.3-9.8,15.9-8,24.9c1.7,8.7,7.8,16.2,16,19.7c9.7,4.1,21.4,2.1,29.1-5.2
		c0.3-0.3,0.7-0.5,0.7-1c0-0.5-0.4-0.9-0.9-0.9c-0.5,0-0.9,0.4-1.3,0.7c-0.6,0.4-1.3,0.8-2,1.1c-2.5,1.2-5.2,2-8,2.2
		c-4.6,0.4-9.3-0.8-13.2-3.2c-7.9-4.9-11.9-14.5-9.8-23.5c2.4-10.8,12.9-18.1,23.9-16.9c10,1.2,18,9.3,19.2,19.3
		c0.3,2.9,0.2,5.8,0.1,8.7c0,2.5-0.1,5-0.3,7.4c-0.2,3.2-0.5,6.5-1,9.7c-0.3,1.6-0.6,3.1-1,4.7c-0.1,0.4-0.2,0.8-0.2,1.2
		c-0.2,1.7,1.6,3.2,3.3,2.5c1-0.4,1.4-1.2,1.6-2.2c0.3-1.6,0.6-3.1,0.8-4.7c0.4-2.8,0.7-5.5,0.9-8.3c0.4-4.8,0.8-9.5,0.9-14.3
		c0-3.5,0.1-6.9-0.1-10.4c-0.3-4.8,1.3-9.8,3.7-13.9c2.2-3.8,5.3-7,9-9.3c1-0.6,2-1.2,3.1-1.7c1.1-0.5,2.2-0.8,3.2-1.5
		C108.3,43.6,109.4,41.5,109.4,39.4z"/>
	<path id="XMLID_3_" class="st2" d="M61.7,29.9c4.7,1.7,8.6,4.9,10.5,9.7c0.4,1,0.7,2,1.6,2.8c0.9,0.7,2,1.1,3.1,0.9
		c2.1-0.3,3.7-2.3,3.4-4.5c-0.3-2.1-1.8-4.4-3.2-6c-1.5-1.7-3.3-3.2-5.4-4.2c-2-1-4.2-1.6-6.5-1.7c-1.1-0.1-3-0.3-3.9,0.5
		C60.5,28.1,60.7,29.5,61.7,29.9z"/>
</g>
</svg>
