<?xml version="1.0" encoding="UTF-8" standalone="no"?>
<svg width="128px" height="175px" viewBox="0 0 128 175" version="1.1" xmlns="http://www.w3.org/2000/svg" xmlns:xlink="http://www.w3.org/1999/xlink">
    <!-- Generator: Sketch 3.6.1 (26313) - http://www.bohemiancoding.com/sketch -->
    <title>点击</title>
    <desc>Created with Sketch.</desc>
    <defs></defs>
    <g id="Page-1" stroke="none" stroke-width="1" fill="none" fill-rule="evenodd">
        <g id="billibear" transform="translate(-1199.000000, -759.000000)">
            <g id="点击" transform="translate(1199.000000, 759.000000)">
                <g id="Group-17" transform="translate(52.000000, 0.000000)">
                    <rect id="Rectangle-308" fill="#8B572A" x="0.705882353" y="0" width="22.5882353" height="175"></rect>
                    <path d="M7.34852941,124.051792 L6.90485833,92.5922062 L5.38014706,134.343099 L7.34852941,162.10423 L7.34852941,124.051792 L7.34852941,124.051792 Z" id="Path-921-Copy" fill="#7C491C"></path>
                    <path d="M16.9235294,119.046298 L14.8779412,99.9077914 L13.8514706,125.120254 L14.8779412,148.382215 L16.9235294,119.046298 L16.9235294,119.046298 Z" id="Path-921-Copy-2" fill="#7C491C"></path>
                    <path d="M17.2477941,174.641255 L19.9691176,174.641255 L19.1852941,142.642288 L17.2477941,174.641255 Z" id="Path-923" fill="#7C491C"></path>
                    <path d="M4.97132353,0.217507102 L6.99705882,24.3396097 L7.97720588,0.217507102 L4.97132353,0.217507102 Z" id="Path-925" fill="#814E21"></path>
                </g>
                <g id="Group-16" transform="translate(0.000000, 21.000000)">
                    <rect id="Rectangle-309" fill="#A46D1F" x="0" y="0.979338843" width="128" height="68.0578512"></rect>
                    <ellipse id="Oval-118" fill="#7C491B" cx="64" cy="7.78512397" rx="2.25882353" ry="2.26859504"></ellipse>
                    <ellipse id="Oval-118-Copy" fill="#7C491B" cx="64" cy="62.231405" rx="2.25882353" ry="2.26859504"></ellipse>
                    <path d="M58.2911765,43.3759241 L16.0294118,44.4297279 L72.1161765,48.051209 L109.409559,43.3759241 L58.2911765,43.3759241 Z" id="Path-921" fill="#8B572A"></path>
                    <path d="M0.0761029412,17.7375508 L0.0761029412,19.7144483 L40.6647059,18.5491348 L0.0761029412,17.7375508 Z" id="Path-917" fill="#8B572A"></path>
                    <path d="M0.0761029412,49.4978814 L0.0761029412,51.4747789 L15.7808824,49.4978814 L0.0761029412,49.4978814 Z" id="Path-917-Copy" fill="#8B572A"></path>
                    <path d="M127.927941,26.4050313 L102.530882,27.0770435 L127.927941,28.8047057 L127.927941,26.4050313 Z" id="Path-919" fill="#8B572A"></path>
                    <path d="M127.797059,60.7190083 L115.098529,61.9188454 L127.797059,63.1186826 L127.797059,60.7190083 Z" id="Path-919-Copy" fill="#8B572A"></path>
                    <text id="点击" font-family="PingFangSC-Semibold, PingFang SC" font-size="36" font-weight="500" fill="#FFFFFF">
                        <tspan x="28" y="47">点击</tspan>
                    </text>
                </g>
            </g>
        </g>
    </g>
</svg>