<?xml version="1.0" encoding="UTF-8" standalone="no"?>
<svg width="347px" height="181px" viewBox="0 0 347 181" version="1.1" xmlns="http://www.w3.org/2000/svg" xmlns:xlink="http://www.w3.org/1999/xlink">
    <!-- Generator: Sketch 3.6.1 (26313) - http://www.bohemiancoding.com/sketch -->
    <title>音符（跳动）</title>
    <desc>Created with Sketch.</desc>
    <defs></defs>
    <g id="Page-1" stroke="none" stroke-width="1" fill="none" fill-rule="evenodd">
        <g id="billibear" transform="translate(-533.000000, -516.000000)">
            <g id="音符（跳动）" transform="translate(513.000000, 516.000000)">
                <g id="Page-1" transform="translate(264.140339, 61.756658) rotate(17.000000) translate(-264.140339, -61.756658) translate(242.640339, 26.756658)">
                    <path d="M23.637126,65.0823662 C26.1367172,62.9213084 27.1653336,60.2905701 27.215965,57.0450255 C27.2745908,53.3641029 27.3305518,49.6858189 27.3891776,46.0022576 C27.5357422,36.60601 27.6823067,27.2071238 27.8288712,17.8082375 C27.831536,17.6736661 27.831536,17.5390948 27.8342008,17.407162 C33.7260944,20.5497992 38.0404209,27.1332414 39.9697429,33.355188 C40.9557224,36.5294891 41.40874,39.7935043 40.8038282,43.0891834 C40.1562795,46.6038708 38.6693159,49.9127432 37.3182575,53.2057836 C37.1823522,53.5408927 37.046447,53.8760018 36.9105417,54.2084722 L37.91251,54.5567746 C39.7192508,51.2716501 41.4433825,47.9152819 42.2428253,44.2317207 C43.0795755,40.3660923 42.8424074,36.7564133 41.9363722,32.9330034 C40.2495479,25.7980824 35.3143208,19.7239004 31.8500686,13.385853 C29.7768469,9.5914683 28.6602917,5.54377276 28.0766985,1.27970757 L26.6643495,0.559354969 C26.3232539,17.1723218 25.9874879,33.78265 25.6490571,50.3956169 C25.6383979,50.9048771 25.6277386,51.4194147 25.6170794,51.9313136 C21.2707752,46.6170641 11.9999033,45.7647788 7.1392909,50.8758519 C2.07348821,56.2032948 4.74895686,64.4438119 11.5388912,66.6365335 C15.6133848,67.9505833 20.1169127,67.586449 23.637126,65.0823662" id="Fill-1" fill="#BE6BD7"></path>
                    <path d="M8.73817655,49.5074459 C5.90281933,51.238403 2.49452809,52.8242342 1.00489963,55.9615941 C-0.524700974,59.1807522 -0.420773406,63.2073385 2.09480668,65.919875 C4.49846477,68.5136721 7.98137068,69.7063438 11.4989191,69.6614867 C15.3042669,69.6113522 18.4487421,67.7563783 21.8037371,66.1837404 C21.8783518,66.1494379 21.9662905,66.0781943 22.0409051,66.0412531 L22.0409051,66.0438918 C18.8138209,67.6587481 15.0191323,67.759017 11.5388912,66.6349503 C4.74895686,64.4448673 2.07348821,56.2017116 7.1392909,50.8742688 C7.63228064,50.3597312 8.16790734,49.903244 8.73817655,49.5074459 L8.73817655,49.5074459 Z M26.6643495,0.557771776 C26.3259187,17.1733773 25.9874879,33.7837055 25.6490571,50.3940337 C25.6383979,50.9059326 25.6277386,51.4204702 25.6170794,51.9297304 C24.433904,50.4837479 22.8829849,49.3675972 21.1588532,48.6129421 L22.6431521,3.9326105 L26.6643495,0.557771776 Z M27.7409325,23.4032399 C32.2711085,27.1501288 34.7840238,32.4775717 36.0418138,38.190258 C37.4967997,44.7948095 34.6907554,50.6156806 32.1431976,56.5711232 L33.1371715,56.8983163 L37.91251,54.5551914 L36.9105417,54.2095277 C37.046447,53.8744186 37.1823522,53.5393095 37.3182575,53.2068391 C38.6693159,49.9137986 40.1562795,46.6049263 40.8038282,43.0876002 C41.40874,39.7919211 40.9557224,36.5305445 39.9697429,33.3536049 C38.0404209,27.1316582 33.7260944,20.5508547 27.8342008,17.4082175 C27.831536,17.5401502 27.831536,17.6747216 27.8288712,17.8066543 L27.7409325,23.4032399 Z" id="Fill-3" fill="#832899"></path>
                </g>
                <g id="Page-1" transform="translate(212.721598, 22.215779) rotate(20.000000) translate(-212.721598, -22.215779) translate(197.221598, 4.215779)">
                    <path d="M30.5915604,24.249225 C30.3792396,22.3026417 29.4387113,20.906725 27.8664849,19.7750583 C26.0825226,18.4905583 24.2979755,17.2066417 22.5145981,15.9221417 C17.958183,12.6426417 13.4023528,9.36314167 8.84652264,6.08364167 C8.78218302,6.036975 8.7178434,5.99089167 8.65291887,5.944225 C12.1892585,4.16564167 16.8772774,4.327225 20.5803151,5.51605833 C22.4695604,6.122725 24.2219377,7.01755833 25.6321453,8.43564167 C27.1359377,9.94764167 28.2531075,11.7973917 29.4100509,13.575975 C29.5264472,13.7556417 29.6434283,13.9358917 29.7604094,14.1155583 L30.2710321,13.749225 C29.2743528,11.752475 28.2156736,9.773225 26.6797113,8.128225 C25.069466,6.40389167 23.2217491,5.28680833 21.039466,4.41939167 C16.9720321,2.80180833 12.3232019,3.11680833 8.04403208,2.62855833 C5.47980566,2.33630833 3.11971132,1.49514167 0.831560377,0.322641667 L-0.000175471698,0.760141667 C8.0259,6.59464167 16.0508057,12.4291417 24.0757113,18.2630583 C24.3231264,18.442725 24.5705415,18.6223917 24.8173717,18.8026417 C20.7411642,19.091975 17.1814283,23.2878917 18.0383151,27.3840583 C18.9320509,31.653475 23.8774283,33.1718917 27.2517491,30.6338083 C29.2766925,29.110725 30.6254849,26.8083083 30.5915604,24.249225" id="Fill-1" fill="#FF6B7D"></path>
                    <path d="M17.9104547,26.1424917 C17.7975679,28.106575 17.4197189,30.2969917 18.4514925,32.0872417 C19.5107566,33.9264917 21.5181528,35.2506583 23.6998509,34.9601583 C25.7856245,34.6824917 27.5514547,33.403825 28.7200962,31.687075 C29.986417,29.8274083 30.1425868,27.6737417 30.5099075,25.513075 C30.5180962,25.4652417 30.5122472,25.3981583 30.5204358,25.3497417 L30.5204358,25.350325 C30.2180396,27.4631583 28.9815491,29.3327417 27.251983,30.6341583 C23.8770774,33.1716583 18.9317,31.6532417 18.0385491,27.383825 C17.9513981,26.969075 17.9110396,26.554325 17.9104547,26.1424917 L17.9104547,26.1424917 Z M5.84905662e-05,0.760491667 C8.02613396,6.59499167 16.0504547,12.4289083 24.0759453,18.2634083 C24.3233604,18.443075 24.5707755,18.6227417 24.8176057,18.8024083 C23.7068698,18.8811583 22.6353226,19.2504083 21.6807566,19.8279083 L0.290171698,3.85624167 L5.84905662e-05,0.760491667 Z M11.5595491,8.03640833 C14.9303604,7.12290833 18.392417,7.726075 21.6181717,9.066575 C25.3475302,10.617075 27.2478887,13.963075 29.3026623,17.2274083 L29.8015868,16.8599083 L30.271266,13.7489917 L29.7606434,14.1159083 C29.6436623,13.9356583 29.5260962,13.7559917 29.4097,13.5757417 C28.2533415,11.7977417 27.1355868,9.94799167 25.6317943,8.43540833 C24.2221717,7.01790833 22.4697943,6.12249167 20.5799642,5.515825 C16.8769264,4.32640833 12.1894925,4.16599167 8.65315283,5.94399167 C8.71749245,5.99124167 8.78183208,6.037325 8.8467566,6.08399167 L11.5595491,8.03640833 Z" id="Fill-4" fill="#CC123B"></path>
                </g>
                <g id="Page-1-Copy" transform="translate(34.402031, 145.582910) rotate(-32.000000) translate(-34.402031, -145.582910) translate(14.490251, 112.529037)">
                    <path d="M21.7618114,61.3752902 C24.0630908,59.3856857 25.0100992,56.9636641 25.0567136,53.9756134 C25.1106882,50.5867266 25.1622094,47.2002692 25.216184,43.8089531 C25.3511204,35.1581819 25.4860568,26.5049814 25.6209932,17.8517809 C25.6234466,17.7278862 25.6234466,17.6039914 25.6259,17.4825259 C31.0503445,20.3758335 35.0223823,26.4369608 36.7986364,32.1652726 C37.7063906,35.0877319 38.1234668,38.0927878 37.5665474,41.1269954 C36.9703737,44.3628356 35.6013823,47.4091898 34.3575137,50.440968 C34.2323908,50.7494904 34.107268,51.0580127 33.9821451,51.3641057 L34.9046196,51.6847745 C36.5680178,48.6602842 38.1553609,45.5702025 38.8913778,42.1788864 C39.6617421,38.619948 39.4433904,35.2966526 38.6092379,31.7765831 C37.0562423,25.2077301 32.5125647,19.6154597 29.3231582,13.7802582 C27.4144211,10.2869111 26.3864508,6.56035034 25.8491585,2.63458617 L24.548862,1.97138467 C24.2348281,17.2663174 23.925701,32.5588207 23.6141205,47.8537534 C23.604307,48.3226102 23.5944934,48.7963255 23.5846799,49.2676116 C19.5832014,44.3749822 11.0478588,43.5903152 6.57287616,48.2958877 C1.90898247,53.2006637 4.37218566,60.7873973 10.6234224,62.8061535 C14.3746552,64.0159496 18.5208837,63.6807049 21.7618114,61.3752902" id="Fill-1" fill="#2EDDE9"></path>
                    <path d="M8.04490994,47.0360478 C5.43450337,48.6296749 2.29661803,50.0896899 0.92517323,52.9781389 C-0.483072418,55.9418965 -0.387390223,59.6490228 1.92860959,62.146353 C4.14156703,64.5343642 7.34814728,65.6324121 10.5866216,65.5911139 C14.090062,65.544957 16.9850617,63.8371524 20.0738793,62.389284 C20.1425742,62.3577029 20.2235361,62.2921116 20.292231,62.2581012 L20.292231,62.2605305 C17.3211761,63.747268 13.8275493,63.8395817 10.6234224,62.8046959 C4.37218566,60.788369 1.90898247,53.1992061 6.57287616,48.2944302 C7.02675324,47.8207148 7.51988456,47.4004443 8.04490994,47.0360478 L8.04490994,47.0360478 Z M24.548862,1.96992708 C24.2372815,17.2672891 23.925701,32.5597925 23.6141205,47.8522958 C23.604307,48.3235819 23.5944934,48.7972972 23.5846799,49.266154 C22.4953749,47.9348924 21.0675021,46.9072944 19.480159,46.2125119 L20.846697,5.07701395 L24.548862,1.96992708 Z M25.5400314,23.0028888 C29.7107938,26.4525083 32.0243402,31.3572842 33.1823401,36.6167393 C34.5218908,42.697301 31.9384715,48.0563578 29.5930311,53.5393094 L30.5081454,53.8405438 L34.9046196,51.6833169 L33.9821451,51.3650774 C34.107268,51.0565551 34.2323908,50.7480328 34.3575137,50.4419398 C35.6013823,47.4101615 36.9703737,44.3638074 37.5665474,41.1255378 C38.1234668,38.0913302 37.7063906,35.0887037 36.7986364,32.163815 C35.0223823,26.4355032 31.0503445,20.3768053 25.6259,17.4834976 C25.6234466,17.6049631 25.6234466,17.7288579 25.6209932,17.8503234 L25.5400314,23.0028888 Z" id="Fill-3" fill="#098BA2"></path>
                </g>
                <g id="Page-1" transform="translate(125.000000, 61.000000)">
                    <path d="M67.9180714,38.8421355 C65.6938358,32.4517806 62.3257075,26.3222 59.5143289,20.1773613 C56.4957234,13.580329 53.4798809,6.98329677 50.4612754,0.386264516 L13.4892293,18.8096839 L26.3967036,57.6733613 C17.9266485,56.479071 7.99909738,59.4349742 2.22575531,65.9141032 L1.40237366,67.2401677 L0.911936613,68.5939742 L0.762733228,69.9769097 L0.958908049,71.3889742 L1.36645433,72.5097484 L1.97570148,73.5140065 L2.78664951,74.4017484 L3.79653538,75.1674258 C13.1369436,80.1401677 25.8109422,76.2146839 32.3192491,68.4275226 L33.1840761,67.0237806 L33.7408258,65.6200387 L33.9936426,64.2162968 L33.9480527,62.8111677 C32.6618643,57.5207806 30.4735479,52.3718774 28.6913964,47.2354581 C26.7158331,41.5372645 24.7388882,35.839071 22.7619434,30.1408774 L51.8676555,14.5013613 L60.6043426,34.2120065 C53.539286,33.0579419 45.8470226,35.0928129 40.4080066,39.7714903 L39.482393,40.8575871 L38.8579493,41.9755871 L38.5388198,43.1282645 L38.5305307,44.3128452 L38.833082,45.529329 L39.2889813,46.4725548 L39.9148066,47.3242323 L40.7105579,48.0815871 C48.2011205,53.6521677 61.2840469,50.3897161 66.8681217,43.6179097 L67.547826,42.4402645 L67.9470832,41.2515226 L68.0700378,40.0516839 L67.9180714,38.8421355 Z" id="Fill-1" fill="#7BDB1F"></path>
                    <path d="M0.763562136,69.9766323 L0.911384008,68.5936968 C0.603306649,71.1875677 0.278651136,73.7786645 -0.000414453847,76.3739226 L0.18747129,77.7637935 L0.579820931,78.8651484 L1.16696388,79.8527613 L1.95028165,80.722471 L2.92839273,81.4715032 C12.0394698,86.3693419 24.3294078,82.3370516 30.6097651,74.7246645 L31.4538694,73.3375677 C32.4375066,70.8421806 33.0287941,68.2053097 33.7402732,65.6197613 L33.184905,67.0235032 L32.3214595,68.4272452 C25.8103896,76.2144065 13.136391,80.1412774 3.79736429,75.1685355 L2.78609691,74.401471 L1.97514888,73.5151161 L1.36590173,72.509471 L0.959736956,71.3900839 L0.763562136,69.9766323 Z M13.4886767,18.8094065 L26.3975325,57.6730839 C25.1969979,57.5038581 23.968833,57.4178581 22.7282345,57.4136968 L12.4843169,25.7199226 L13.4886767,18.8094065 Z M38.5396487,43.1279871 L36.7671678,49.7139226 L36.7533526,50.8860194 L37.0434703,52.0886323 L37.4814099,53.0193742 L38.0865125,53.8585677 L38.8546336,54.6048258 C46.1766516,60.1310194 58.933541,56.700729 64.3352561,50.0731806 L65.0052898,48.9038581 L67.5486549,42.4399871 L66.8689506,43.6190194 C61.2848758,50.3894387 48.2005679,53.6518903 40.7100053,48.0813097 L39.9156355,47.3239548 L39.2898102,46.4736645 L38.8339109,45.5290516 L38.5299781,44.3125677 L38.5396487,43.1279871 Z M24.4192062,34.9191484 L49.9067362,21.2493097 L55.3554228,33.9287613 C57.1140886,33.8386 58.8768989,33.9287613 60.60379,34.211729 L51.8671029,14.5010839 L22.7613908,30.1406 L24.4192062,34.9191484 Z" id="Fill-4" fill="#409004"></path>
                </g>
                <g id="Page-1-Copy-2" transform="translate(347.812707, 80.130715) rotate(17.000000) translate(-347.812707, -80.130715) translate(328.312707, 55.630715)">
                    <path d="M38.7019842,22.7033788 C37.4345405,19.0619413 35.5152686,15.5691016 33.9132513,12.0675674 C32.1931491,8.30835818 30.4746214,4.54914899 28.7545192,0.789939796 L7.68661315,11.2882191 L15.0417229,33.4340398 C10.2152027,32.7534933 4.5581527,34.4378656 1.26830967,38.1298896 L0.799119326,38.8855255 L0.519651923,39.6569696 L0.434630854,40.4450124 L0.546417815,41.2496539 L0.778651291,41.8883084 L1.12582066,42.4605682 L1.58792591,42.9664332 L2.16339259,43.4027417 C7.48586896,46.2363761 14.7079364,43.9995043 18.416587,39.5621199 L18.9093943,38.7622209 L19.2266488,37.9623219 L19.3707123,37.1624229 L19.3447336,36.3617334 C18.6118205,33.3470943 17.3648448,30.4130773 16.3493154,27.4861741 C15.2235735,24.2391532 14.0970443,20.9921323 12.9705151,17.7451115 L29.5559215,8.83319311 L34.5343774,20.0649767 C30.5084723,19.4073522 26.1251639,20.5668896 23.025831,23.2329562 L22.4983855,23.8518504 L22.1425566,24.4889241 L21.960706,25.1457581 L21.9559826,25.8207717 L22.1283864,26.5139649 L22.388173,27.0514464 L22.7447892,27.5367606 L23.1982349,27.9683267 C27.4666074,31.1426295 34.9216956,29.2835757 38.1036878,25.4247743 L38.491006,24.7537128 L38.7185161,24.0763279 L38.7885798,23.3926198 L38.7019842,22.7033788 Z" id="Fill-1" fill="#E4BC20"></path>
                    <path d="M0.435103193,40.4448543 L0.51933703,39.6568115 C0.343784267,41.1348858 0.158784719,42.6113792 -0.000236169637,44.0902439 L0.106827399,44.8822387 L0.330401321,45.5098275 L0.664974972,46.0726023 L1.11133558,46.5681919 L1.66869593,46.9950155 C6.86049176,49.7859675 13.8637087,47.4882338 17.4424659,43.1504416 L17.9234648,42.3600275 C18.483974,40.9380727 18.8209094,39.4354956 19.2263339,37.9621638 L18.9098666,38.7620628 L18.4178465,39.5619618 C14.7076215,43.9993463 7.48555407,46.2370084 2.16386493,43.4033741 L1.58761102,42.9662751 L1.12550576,42.4612005 L0.778336398,41.8881503 L0.546890154,41.2502862 L0.435103193,40.4448543 Z M7.68629826,11.288061 L15.0421952,33.4338817 C14.3580905,33.3374512 13.6582411,33.2884455 12.9513067,33.2860743 L7.11398051,15.2259038 L7.68629826,11.288061 Z M21.9611783,25.1456001 L20.9511595,28.8984859 L20.9432872,29.5663858 L21.1086059,30.2516748 L21.3581585,30.7820426 L21.7029662,31.2602431 L22.1406672,31.6854859 C26.3129975,34.8344954 33.5822989,32.8798015 36.6603765,29.1032032 L37.042184,28.4368841 L38.4914784,24.7535547 L38.1041602,25.4254066 C34.9221679,29.2834176 27.4662925,31.1424714 23.19792,27.9681686 L22.7452615,27.5366025 L22.3886453,27.0520787 L22.1288587,26.5138068 L21.9556677,25.8206137 L21.9611783,25.1456001 Z M13.9148788,20.4679298 L28.4385242,12.6783993 L31.5433677,19.9035741 C32.5455142,19.8521972 33.5500224,19.9035741 34.5340625,20.0648186 L29.5556066,8.83303502 L12.9702003,17.7449534 L13.9148788,20.4679298 Z" id="Fill-4" fill="#AC8922"></path>
                </g>
            </g>
        </g>
    </g>
</svg>