<?xml version="1.0" encoding="UTF-8" standalone="no"?>
<svg width="1533px" height="669px" viewBox="0 0 1533 669" version="1.1" xmlns="http://www.w3.org/2000/svg" xmlns:xlink="http://www.w3.org/1999/xlink">
    <!-- Generator: Sketch 3.6.1 (26313) - http://www.bohemiancoding.com/sketch -->
    <title>远景</title>
    <desc>Created with Sketch.</desc>
    <defs></defs>
    <g id="Page-1" stroke="none" stroke-width="1" fill="none" fill-rule="evenodd" opacity="0.150000006">
        <g id="远景" transform="translate(-51.000000, 0.000000)">
            <g id="背景" opacity="0.65" transform="translate(50.000000, 0.000000)">
                <g id="Group" transform="translate(0.194455, 0.048310)">
                    <path d="M709.472893,154.544605 C709.472893,178.417349 690.62621,197.683072 667.591376,197.683072 C644.556542,197.683072 625.709859,178.417349 625.709859,154.544605 L616.07711,154.544605 L616.07711,321.234991 L739.208769,321.234991 L739.208769,154.544605 L709.472893,154.544605 L709.472893,154.544605 Z" id="Shape" fill="#C2C2C2"></path>
                    <path d="M765.17531,90.0463144 C734.182987,90.0463144 709.054077,115.175518 709.054077,146.168203 L709.054077,311.18331 L821.296542,311.18331 L821.296542,146.168203 C821.296542,115.175518 796.167632,90.0463144 765.17531,90.0463144 L765.17531,90.0463144 Z" id="Shape" fill="#848484"></path>
                    <path d="M821.296542,311.18331 L821.296542,146.168203 C821.296542,115.175518 796.167632,90.0463144 765.17531,90.0463144 L765.17531,311.18331 L821.296542,311.18331 L821.296542,311.18331 Z" id="Shape" fill="#C2C2C2"></path>
                    <path d="M167.944882,334.218413 C167.944882,307.832749 146.585308,286.472926 120.199953,286.472926 C93.8145974,286.472926 72.4550239,307.832749 72.4550239,334.218413 L72.4550239,334.218413 L72.4550239,520.174523 L167.944882,520.174523 L167.944882,334.218413 L167.944882,334.218413 L167.944882,334.218413 Z" id="Shape" fill="#6A6A6A"></path>
                    <ellipse id="Oval" fill="#383838" cx="1093.94522" cy="339.663074" rx="43.9755925" ry="43.976107"></ellipse>
                    <ellipse id="Oval" fill="#383838" cx="1021.49019" cy="339.663074" rx="43.9755925" ry="43.976107"></ellipse>
                    <ellipse id="Oval" fill="#383838" cx="947.359907" cy="339.663074" rx="43.9755925" ry="43.976107"></ellipse>
                    <ellipse id="Oval" fill="#383838" cx="872.810808" cy="339.663074" rx="43.9755925" ry="43.976107"></ellipse>
                    <path d="M553.673651,0.418820067 C513.048579,0.418820067 479.962181,33.5056054 479.962181,74.1311519 L479.962181,290.242306 L626.966305,290.242306 L626.966305,73.7123318 C627.38512,33.0867853 594.298722,0.418820067 553.673651,0.418820067 L553.673651,0.418820067 Z" id="Shape" fill="#848484"></path>
                    <path d="M553.673651,0.418820067 L553.673651,0.418820067 L553.673651,289.823486 L627.38512,289.823486 L627.38512,73.7123318 C627.38512,33.0867853 594.298722,0.418820067 553.673651,0.418820067 L553.673651,0.418820067 Z" id="Shape" fill="#C2C2C2"></path>
                    <rect id="Rectangle-path" fill="#383838" x="986.309718" y="326.260832" width="131.926778" height="179.254989"></rect>
                    <path d="M1198.64901,503.42172 L1237.18,438.08579 L1327.64408,450.650392 L1359.05522,523.525084 L1189.43507,529.807385 L1198.64901,503.42172 Z" id="Shape" fill="#4A4A4A"></path>
                    <g transform="translate(882.511850, 170.528027)">
                        <rect id="Rectangle-path" fill="#DADADA" x="93.3274884" y="0.769380603" width="23.4536493" height="102.192096"></rect>
                        <path d="M114.183981,98.7948036 L92.2923448,107.210071 L55.6262496,11.8239687 L77.5178859,3.4087009 L114.183981,98.7948036 L114.183981,98.7948036 Z" id="Rectangle-path" fill="#848484"></path>
                        <path d="M112.149251,95.3260521 L94.7372621,111.037836 L26.2795777,35.1704233 L43.691567,19.4586397 L112.149251,95.3260521 L112.149251,95.3260521 Z" id="Rectangle-path" fill="#DADADA"></path>
                        <path d="M108.578894,92.5729802 L97.968463,113.489189 L6.83461775,67.2574851 L17.4450487,46.3412759 L108.578894,92.5729802 L108.578894,92.5729802 Z" id="Rectangle-path" fill="#848484"></path>
                        <path d="M104.878076,91.6579422 L102.474077,114.98756 L0.824787629,104.51287 L3.22878669,81.1832523 L104.878076,91.6579422 L104.878076,91.6579422 Z" id="Rectangle-path" fill="#DADADA"></path>
                        <path d="M137.721896,97.9356361 C137.721896,79.5075532 123.063365,64.8488508 104.635498,64.8488508 C86.2076305,64.8488508 71.5490997,79.5075532 71.5490997,97.9356361 C71.5490997,102.961477 72.8055452,107.568498 74.899621,112.175518 L102.541422,115.107259 L103.797868,103.380297 L103.797868,103.380297 L105.054313,103.380297 L105.054313,103.380297 L106.310759,115.107259 L134.79019,112.175518 C136.465451,107.568498 137.721896,102.961477 137.721896,97.9356361 L137.721896,97.9356361 Z" id="Shape" fill="#C2C2C2"></path>
                    </g>
                    <path d="M1150.48526,243.753279 L1202.83716,305.319829 L1244.29986,521.430983 L1162.21209,527.713284 L1150.48526,243.753279 Z" id="Shape" fill="#9B9B9B"></path>
                    <path d="M1182.73403,320.397351 L1150.48526,243.753279 L1105.67204,291.498767 L1067.55986,518.080423 L1188.17863,517.242783 L1182.73403,320.397351 Z" id="Shape" fill="#605F5F"></path>
                    <path d="M1155.09223,410.443666 L953.22332,332.961953 L850.194789,340.081894 L789.885405,567.082371 L1252.67616,561.63771 L1155.09223,410.443666 Z" id="Shape" fill="#543D32"></path>
                    <path d="M1155.09223,410.443666 L953.22332,332.961953 L850.194789,340.081894 L789.885405,567.082371 L1252.67616,561.63771 L1155.09223,410.443666 Z" id="Shape" fill="#4A4A4A"></path>
                    <path d="M826.322324,234.120417 L877.417774,351.808856 L853.126495,346.783015 L854.38294,389.502662 L833.442182,392.015583 L804.12512,349.714756 L826.322324,234.120417 Z" id="Shape" fill="#D4D4D4"></path>
                    <path d="M557.024172,228.256936 L650.001139,220.718175 L826.322324,234.120417 L832.185736,372.33104 L666.753746,288.567026 L564.98166,281.028265 L557.024172,228.256936 Z" id="Shape" fill="#D4D4D4"></path>
                    <rect id="Rectangle-path" fill="#696969" x="572.520333" y="266.369563" width="184.278673" height="274.327144"></rect>
                    <path d="M691.045025,545.303727 L572.520333,540.696706 L572.520333,266.369563 L604.769101,272.651864 L631.992087,394.109683 L654.608106,407.093105 L669.685452,467.403195 L691.045025,545.303727 Z" id="Shape" fill="#4E4C4C"></path>
                    <path d="M786.953698,268.463663 L866.947395,402.067264 L947.359907,525.619184 L817.10839,525.619184 L788.628959,404.999005 L786.953698,268.463663 Z" id="Shape" fill="#9B9B9B"></path>
                    <path d="M702.77185,523.106264 L695.651992,268.463663 L786.953698,268.463663 L788.628959,404.999005 L854.38294,526.456824 L702.77185,523.106264 Z" id="Shape" fill="#4A4A4A"></path>
                    <rect id="Rectangle-path" fill="#383838" x="237.887015" y="188.88785" width="184.278673" height="274.327144"></rect>
                    <path d="M248.776209,248.3603 C248.776209,222.393456 227.835451,201.452452 201.86891,201.452452 C175.90237,201.452452 154.961612,222.393456 154.961612,248.3603 L154.961612,248.3603 L154.961612,485.412458 L248.357394,485.412458 L248.776209,248.3603 L248.776209,248.3603 L248.776209,248.3603 Z" id="Shape" fill="#4A4A4A"></path>
                    <g transform="translate(213.595735, 85.764013)">
                        <rect id="Rectangle-path" fill="#DADADA" x="99.6780097" y="0.931740469" width="25.12891" height="108.893217"></rect>
                        <path d="M139.820438,3.83118991 L163.275763,12.8500612 L124.194444,114.49099 L100.73912,105.472119 L139.820438,3.83118991 L139.820438,3.83118991 Z" id="Rectangle-path" fill="#848484"></path>
                        <path d="M175.964397,20.722622 L194.620099,37.5566758 L121.673387,118.399 L103.017684,101.564947 L175.964397,20.722622 L175.964397,20.722622 Z" id="Rectangle-path" fill="#DADADA"></path>
                        <path d="M203.797889,49.7739922 L215.168721,72.1842164 L118.058886,121.458397 L106.688054,99.0481731 L203.797889,49.7739922 L203.797889,49.7739922 Z" id="Rectangle-path" fill="#848484"></path>
                        <path d="M219.220842,86.6128608 L221.796555,111.60888 L113.481739,122.770435 L110.906026,97.7744156 L219.220842,86.6128608 L219.220842,86.6128608 Z" id="Rectangle-path" fill="#DADADA"></path>
                        <path d="M122.236986,105.717548 L98.7816615,114.736419 L59.700343,13.0954898 L83.1556676,4.07661847 L122.236986,105.717548 L122.236986,105.717548 Z" id="Rectangle-path" fill="#848484"></path>
                        <path d="M119.789179,102.035575 L101.133476,118.872141 L28.1758741,38.0298168 L46.8315769,21.1932501 L119.789179,102.035575 L119.789179,102.035575 Z" id="Rectangle-path" fill="#DADADA"></path>
                        <path d="M116.29781,99.1572757 L104.924465,121.564987 L7.82551951,72.2799167 L19.1988642,49.8722055 L116.29781,99.1572757 L116.29781,99.1572757 Z" id="Rectangle-path" fill="#848484"></path>
                        <path d="M111.867835,97.9453361 L109.294634,122.941355 L0.979818083,111.79069 L3.55301847,86.7946706 L111.867835,97.9453361 L111.867835,97.9453361 Z" id="Rectangle-path" fill="#DADADA"></path>
                        <path d="M147.422939,104.799117 C147.422939,85.1145739 131.507962,69.6182314 112.242465,69.6182314 C92.5581519,69.6182314 77.0619907,85.533394 77.0619907,104.799117 C77.0619907,110.243778 78.3184362,115.269619 80.412512,119.876639 L109.729574,122.80838 L110.986019,110.243778 L110.986019,110.243778 L112.242465,110.243778 L112.242465,110.243778 L113.49891,122.80838 L144.072417,119.876639 C146.166493,115.269619 147.422939,110.243778 147.422939,104.799117 L147.422939,104.799117 Z" id="Shape" fill="#C2C2C2"></path>
                        <rect id="Rectangle-path" fill="#C2C2C2" x="106.379052" y="109.824958" width="9.63274884" height="170.459767"></rect>
                    </g>
                    <g transform="translate(103.515640, 239.727438)">
                        <rect id="Rectangle-path" fill="#DADADA" x="98.7720855" y="0.256460201" width="25.12891" height="108.893217"></rect>
                        <path d="M138.424165,3.09141135 L161.87949,12.1102827 L122.798171,113.751212 L99.3428468,104.73234 L138.424165,3.09141135 L138.424165,3.09141135 Z" id="Rectangle-path" fill="#848484"></path>
                        <path d="M174.85518,20.1528425 L193.510882,36.9868963 L120.564169,117.829221 L101.908467,100.995167 L174.85518,20.1528425 L174.85518,20.1528425 Z" id="Rectangle-path" fill="#DADADA"></path>
                        <path d="M202.541291,49.1895959 L213.912123,71.59982 L116.802288,120.874001 L105.431456,98.4637768 L202.541291,49.1895959 L202.541291,49.1895959 Z" id="Rectangle-path" fill="#848484"></path>
                        <path d="M218.272617,85.9384182 L220.84833,110.934437 L112.533514,122.095992 L109.957801,97.099973 L218.272617,85.9384182 L218.272617,85.9384182 Z" id="Rectangle-path" fill="#DADADA"></path>
                        <path d="M120.769682,104.675842 L97.3143575,113.694713 L58.233039,12.0537838 L81.6883636,3.03491252 L120.769682,104.675842 L120.769682,104.675842 Z" id="Rectangle-path" fill="#848484"></path>
                        <path d="M118.626144,100.822739 L99.9704414,117.656793 L27.0237285,36.8144681 L45.6794313,19.9804143 L118.626144,100.822739 L118.626144,100.822739 Z" id="Rectangle-path" fill="#DADADA"></path>
                        <path d="M114.999079,98.0074304 L103.628247,120.417655 L6.5184123,71.1434737 L17.8892441,48.7332496 L114.999079,98.0074304 L114.999079,98.0074304 Z" id="Rectangle-path" fill="#848484"></path>
                        <path d="M110.909558,96.8905211 L108.333845,121.88654 L0.0190291299,110.724986 L2.59474241,85.7289663 L110.909558,96.8905211 L110.909558,96.8905211 Z" id="Rectangle-path" fill="#DADADA"></path>
                        <path d="M146.098199,103.705017 C146.098199,84.0204736 130.183223,68.5241311 110.917725,68.5241311 C91.2334125,68.5241311 75.7372514,84.4392937 75.7372514,103.705017 C75.7372514,109.149678 76.9936969,114.175518 79.0877727,118.782539 L108.404834,121.71428 L109.66128,109.149678 L109.66128,109.149678 L110.917725,109.149678 L110.917725,109.149678 L112.174171,121.71428 L142.747678,118.363719 C144.841754,114.175518 146.098199,109.149678 146.098199,103.705017 L146.098199,103.705017 Z" id="Shape" fill="#C2C2C2"></path>
                        <rect id="Rectangle-path" fill="#C2C2C2" x="105.473128" y="108.730858" width="9.63274884" height="170.459767"></rect>
                    </g>
                    <path d="M350.129479,278.515345 L385.728769,374.42514 L454.833271,326.260832 L350.129479,278.515345 Z" id="Shape" fill="#9B9B9B"></path>
                    <path d="M401.22493,355.578237 L350.129479,278.515345 L278.930901,326.260832 L218.202702,553.261308 L410.438863,552.004848 L401.22493,355.578237 Z" id="Shape" fill="#4A4A4A"></path>
                    <path d="M518.911992,163.758646 L580.059006,207.315933 L634.086163,553.261308 L529.382371,546.560187 L518.911992,163.758646 Z" id="Shape" fill="#9B9B9B"></path>
                    <path d="M579.640191,545.303727 L348.035404,545.303727 L364.369195,361.441718 L439.33711,299.037528 L470.329432,186.79375 L518.911992,163.758646 L545.716162,213.179414 L579.640191,545.303727 Z" id="Shape" fill="#605F5F"></path>
                    <path d="M476.192845,312.85859 C484.569148,312.85859 491.270191,306.157469 491.270191,297.781068 L491.270191,296.943427 L491.270191,174.229148 L470.329432,184.280829 L461.534314,215.692334 L461.534314,296.943427 L461.534314,297.781068 C461.115499,306.157469 467.816541,312.85859 476.192845,312.85859 L476.192845,312.85859 Z" id="Shape" fill="#8DC63F"></path>
                    <path d="M518.911992,250.87322 C525.194219,250.87322 530.638816,245.847379 530.638816,239.146258 L530.638816,238.308618 L530.638816,182.186729 L518.911992,160.826906 L507.185167,166.271567 L507.185167,238.727438 L507.185167,239.565078 C507.185167,245.847379 512.629764,250.87322 518.911992,250.87322 L518.911992,250.87322 Z" id="Shape" fill="#D4D4D4"></path>
                    <path d="M429.704361,355.578237 C435.986589,355.578237 441.431186,350.552396 441.431186,343.851275 L441.431186,343.013635 L441.431186,292.336407 L429.704361,300.712808 L417.977536,309.508029 L417.977536,343.432455 L417.977536,344.270095 C417.977536,350.552396 423.422134,355.578237 429.704361,355.578237 L429.704361,355.578237 Z" id="Shape" fill="#D4D4D4"></path>
                    <path d="M491.270191,201.452452 C491.270191,196.845431 495.039527,193.494871 499.227679,193.494871 C503.834646,193.494871 507.185167,197.264252 507.185167,201.452452 L540.69038,201.452452 L518.493177,160.826906 L467.397726,184.69965 L461.115499,216.948795 L491.270191,201.452452 L491.270191,201.452452 Z" id="Shape" fill="#D4D4D4"></path>
                    <path d="M476.192845,312.85859 C484.569148,312.85859 491.270191,306.157469 491.270191,297.781068 L491.270191,296.943427 L491.270191,174.229148 L470.329432,184.280829 L461.534314,215.692334 L461.534314,296.943427 L461.534314,297.781068 C461.115499,306.157469 467.816541,312.85859 476.192845,312.85859 L476.192845,312.85859 Z" id="Shape" fill="#D4D4D4"></path>
                    <path d="M491.270191,327.098472 C488.7573,332.961953 482.893887,336.731334 476.61166,336.731334 C469.910617,336.731334 464.047205,332.543133 461.953129,327.098472 L461.953129,384.895642 L461.953129,385.733282 C461.953129,394.109683 468.654172,400.810804 477.030475,400.810804 C485.406778,400.810804 492.107821,394.109683 492.107821,385.733282 L492.107821,384.895642 L492.107821,327.098472 L491.270191,327.098472 Z" id="Shape" fill="#D4D4D4"></path>
                    <ellipse id="Oval" fill="#D4D4D4" cx="518.911992" cy="272.651864" rx="12.9832702" ry="12.9834221"></ellipse>
                    <path d="M169.201327,448.137472 L282.700238,475.360776 L309.085593,518.918063 L256.314882,530.226205 L218.621517,474.104316 L169.201327,448.137472 Z" id="Shape" fill="#9B9B9B"></path>
                    <path d="M114.755356,508.447561 L169.201327,448.137472 L263.015925,485.412458 L287.72602,518.918063 L114.755356,508.447561 Z" id="Shape" fill="#605F5F"></path>
                    <rect id="Rectangle-path" fill="#8DC63F" x="44.3944077" y="521.012163" width="1436.53602" height="38.9502662"></rect>
                    <ellipse id="Oval" fill="#383838" cx="70.7797632" cy="521.012163" rx="26.3853555" ry="26.3856642"></ellipse>
                    <ellipse id="Oval" fill="#383838" cx="118.524692" cy="521.012163" rx="26.3853555" ry="26.3856642"></ellipse>
                    <ellipse id="Oval" fill="#383838" cx="165.850806" cy="521.012163" rx="26.3853555" ry="26.3856642"></ellipse>
                    <ellipse id="Oval" fill="#383838" cx="213.595735" cy="521.012163" rx="26.3853555" ry="26.3856642"></ellipse>
                    <ellipse id="Oval" fill="#383838" cx="261.340664" cy="521.012163" rx="26.3853555" ry="26.3856642"></ellipse>
                    <ellipse id="Oval" fill="#383838" cx="452.32038" cy="521.012163" rx="26.3853555" ry="26.3856642"></ellipse>
                    <ellipse id="Oval" fill="#383838" cx="547.810238" cy="521.012163" rx="26.3853555" ry="26.3856642"></ellipse>
                    <ellipse id="Oval" fill="#383838" cx="595.555167" cy="521.012163" rx="26.3853555" ry="26.3856642"></ellipse>
                    <ellipse id="Oval" fill="#383838" cx="643.300096" cy="527.294464" rx="26.3853555" ry="26.3856642"></ellipse>
                    <ellipse id="Oval" fill="#383838" cx="691.045025" cy="527.294464" rx="26.3853555" ry="26.3856642"></ellipse>
                    <ellipse id="Oval" fill="#383838" cx="738.789954" cy="527.294464" rx="26.3853555" ry="26.3856642"></ellipse>
                    <ellipse id="Oval" fill="#383838" cx="786.116068" cy="527.294464" rx="26.3853555" ry="26.3856642"></ellipse>
                    <ellipse id="Oval" fill="#383838" cx="833.860997" cy="521.012163" rx="26.3853555" ry="26.3856642"></ellipse>
                    <ellipse id="Oval" fill="#383838" cx="881.605926" cy="521.012163" rx="26.3853555" ry="26.3856642"></ellipse>
                    <ellipse id="Oval" fill="#383838" cx="929.350855" cy="521.012163" rx="26.3853555" ry="26.3856642"></ellipse>
                    <ellipse id="Oval" fill="#383838" cx="977.095784" cy="521.012163" rx="26.3853555" ry="26.3856642"></ellipse>
                    <ellipse id="Oval" fill="#383838" cx="1024.84071" cy="521.012163" rx="26.3853555" ry="26.3856642"></ellipse>
                    <ellipse id="Oval" fill="#383838" cx="1072.58564" cy="521.012163" rx="26.3853555" ry="26.3856642"></ellipse>
                    <ellipse id="Oval" fill="#383838" cx="1168.0755" cy="521.012163" rx="26.3853555" ry="26.3856642"></ellipse>
                    <ellipse id="Oval" fill="#383838" cx="1263.56536" cy="521.012163" rx="26.3853555" ry="26.3856642"></ellipse>
                    <ellipse id="Oval" fill="#383838" cx="1311.31029" cy="521.012163" rx="26.3853555" ry="26.3856642"></ellipse>
                    <ellipse id="Oval" fill="#383838" cx="1359.05522" cy="521.012163" rx="26.3853555" ry="26.3856642"></ellipse>
                    <ellipse id="Oval" fill="#383838" cx="1406.38133" cy="521.012163" rx="26.3853555" ry="26.3856642"></ellipse>
                    <ellipse id="Oval" fill="#383838" cx="1454.12626" cy="521.012163" rx="26.3853555" ry="26.3856642"></ellipse>
                    <path d="M1023.58427,371.493399 L1023.58427,355.159417 L952.804504,327.936112 L912.598248,330.867853 L912.598248,344.688915 L912.598248,371.493399 L912.598248,406.674285 L912.598248,407.511925 C912.598248,412.118946 916.367585,415.888326 920.974552,415.888326 C925.581519,415.888326 929.350855,412.118946 929.350855,407.511925 L929.350855,406.674285 L929.350855,371.074579 C929.350855,366.048739 933.539007,362.279358 938.145974,362.279358 C943.171756,362.279358 946.941092,366.467559 946.941092,371.074579 L946.941092,371.074579 L946.941092,389.921482 L946.941092,390.340302 C946.941092,395.784963 951.548059,400.391984 956.992656,400.391984 C962.437253,400.391984 967.04422,395.784963 967.04422,390.340302 L967.04422,389.921482 L967.04422,371.074579 L967.04422,371.074579 C967.04422,362.698178 974.164078,355.578237 982.540381,355.578237 C990.916685,355.578237 998.036543,362.698178 998.036543,371.074579 L998.036543,436.82933 L998.036543,438.50461 C998.036543,445.624551 1003.89995,451.069212 1010.601,451.069212 C1017.72086,451.069212 1023.16545,445.205731 1023.16545,438.50461 L1023.16545,437.24815 L1023.58427,371.493399 L1023.58427,371.493399 L1023.58427,371.493399 Z" id="Shape" fill="#D4D4D4"></path>
                    <path d="M1048.29436,363.954638 L1048.29436,418.401247 L1048.29436,418.401247 C1048.29436,425.102368 1053.73896,430.547029 1060.44,430.547029 C1067.14105,430.547029 1072.58564,425.102368 1072.58564,418.401247 L1072.58564,372.33104 L1048.29436,363.954638 L1048.29436,363.954638 Z" id="Shape" fill="#D4D4D4"></path>
                    <path d="M1060.44,447.718652 C1054.99541,447.718652 1049.96962,444.368091 1048.29436,439.34225 L1048.29436,466.565555 L1048.29436,466.565555 C1048.29436,473.266676 1053.73896,478.711337 1060.44,478.711337 C1067.14105,478.711337 1072.58564,473.266676 1072.58564,466.565555 L1072.58564,439.34225 C1070.91038,444.368091 1065.8846,447.718652 1060.44,447.718652 L1060.44,447.718652 Z" id="Shape" fill="#D4D4D4"></path>
                    <path d="M807.475642,450.231572 L854.38294,458.189153 L815.014315,475.360776 L807.475642,450.231572 Z" id="Shape" fill="#4A4A4A"></path>
                    <path d="M783.184362,345.107735 L800.355784,365.629918 L781.509101,363.116998 L783.184362,345.107735 Z" id="Shape" fill="#4A4A4A"></path>
                    <path d="M565.400475,353.484137 L547.810238,469.078475 L590.529385,446.043371 L565.400475,353.484137 Z" id="Shape" fill="#9B9B9B"></path>
                    <path d="M479.962181,85.8581137 C488.338484,85.8581137 495.458342,79.1569927 495.458342,70.3617712 L464.884835,70.3617712 C464.884835,78.7381726 471.585878,85.8581137 479.962181,85.8581137 L479.962181,85.8581137 Z" id="Shape" fill="#B9B8B8"></path>
                    <path d="M479.962181,144.492923 C488.338484,144.492923 495.458342,137.791802 495.458342,128.996581 L464.884835,128.996581 C464.884835,137.791802 471.585878,144.492923 479.962181,144.492923 L479.962181,144.492923 Z" id="Shape" fill="#B9B8B8"></path>
                    <path d="M515.142655,110.987318 C523.518959,110.987318 530.638816,104.286197 530.638816,95.4909753 L500.065309,95.4909753 C499.646494,104.286197 506.766352,110.987318 515.142655,110.987318 L515.142655,110.987318 Z" id="Shape" fill="#B9B8B8"></path>
                    <path d="M515.142655,55.2842488 C523.518959,55.2842488 530.638816,48.5831278 530.638816,39.7879064 L500.065309,39.7879064 C499.646494,48.5831278 506.766352,55.2842488 515.142655,55.2842488 L515.142655,55.2842488 Z" id="Shape" fill="#B9B8B8"></path>
                    <path d="M72.873839,459.445613 C81.2501424,459.445613 88.3700002,452.744492 88.3700002,443.949271 L57.796493,443.949271 C57.3776779,452.325672 64.0787205,459.445613 72.873839,459.445613 L72.873839,459.445613 Z" id="Shape" fill="#B8B7B7"></path>
                    <path d="M72.873839,415.888326 C81.2501424,415.888326 88.3700002,409.187205 88.3700002,400.391984 L57.796493,400.391984 C57.3776779,409.187205 64.0787205,415.888326 72.873839,415.888326 L72.873839,415.888326 Z" id="Shape" fill="#B8B7B7"></path>
                    <path d="M1309.63503,417.563607 C1318.01133,417.563607 1325.13119,410.862486 1325.13119,402.067264 L1294.13887,402.067264 C1294.13887,410.862486 1301.25872,417.563607 1309.63503,417.563607 L1309.63503,417.563607 Z" id="Shape" fill="#DADADA"></path>
                    <path d="M1309.63503,374.00632 C1318.01133,374.00632 1325.13119,367.305199 1325.13119,358.509977 L1294.13887,358.509977 C1294.13887,367.305199 1301.25872,374.00632 1309.63503,374.00632 L1309.63503,374.00632 Z" id="Shape" fill="#DADADA"></path>
                    <path d="M1309.63503,330.867853 C1318.01133,330.867853 1325.13119,324.166732 1325.13119,315.37151 L1294.13887,315.37151 C1294.13887,324.166732 1301.25872,330.867853 1309.63503,330.867853 L1309.63503,330.867853 Z" id="Shape" fill="#DADADA"></path>
                    <path d="M1268.17233,309.089209 C1276.54863,309.089209 1283.66849,302.388088 1283.66849,293.592867 L1253.09498,293.592867 C1252.67616,302.388088 1259.79602,309.089209 1268.17233,309.089209 L1268.17233,309.089209 Z" id="Shape" fill="#DADADA"></path>
                    <path d="M1268.17233,350.552396 C1276.54863,350.552396 1283.66849,343.851275 1283.66849,335.056054 L1253.09498,335.056054 C1252.67616,343.851275 1259.79602,350.552396 1268.17233,350.552396 L1268.17233,350.552396 Z" id="Shape" fill="#DADADA"></path>
                    <path d="M1268.17233,392.015583 C1276.54863,392.015583 1283.66849,385.314462 1283.66849,376.51924 L1253.09498,376.51924 C1252.67616,385.314462 1259.79602,392.015583 1268.17233,392.015583 L1268.17233,392.015583 Z" id="Shape" fill="#DADADA"></path>
                    <path d="M1309.63503,287.310566 C1318.01133,287.310566 1325.13119,280.609445 1325.13119,271.814223 L1294.13887,271.814223 C1294.13887,280.609445 1301.25872,287.310566 1309.63503,287.310566 L1309.63503,287.310566 Z" id="Shape" fill="#DADADA"></path>
                    <path d="M72.873839,372.74986 C81.2501424,372.74986 88.3700002,366.048739 88.3700002,357.253517 L57.796493,357.253517 C57.3776779,366.048739 64.0787205,372.74986 72.873839,372.74986 L72.873839,372.74986 Z" id="Shape" fill="#B8B7B7"></path>
                    <path d="M110.148389,389.502662 C118.524692,389.502662 125.64455,382.801541 125.64455,374.00632 L95.0710429,374.00632 C94.6522277,382.801541 101.35327,389.502662 110.148389,389.502662 L110.148389,389.502662 Z" id="Shape" fill="#B8B7B7"></path>
                    <path d="M110.148389,433.897589 C118.524692,433.897589 125.64455,427.196468 125.64455,418.401247 L95.0710429,418.401247 C94.6522277,427.196468 101.35327,433.897589 110.148389,433.897589 L110.148389,433.897589 Z" id="Shape" fill="#B8B7B7"></path>
                    <path d="M110.148389,480.805437 C118.524692,480.805437 125.64455,474.104316 125.64455,465.309094 L95.0710429,465.309094 C94.6522277,474.104316 101.35327,480.805437 110.148389,480.805437 L110.148389,480.805437 Z" id="Shape" fill="#B8B7B7"></path>
                    <path d="M72.873839,329.611393 C81.2501424,329.611393 88.3700002,322.910272 88.3700002,314.11505 L57.796493,314.11505 C57.3776779,322.491452 64.0787205,329.611393 72.873839,329.611393 L72.873839,329.611393 Z" id="Shape" fill="#B8B7B7"></path>
                    <path d="M553.673651,143.236463 C562.049954,143.236463 569.169812,136.535342 569.169812,127.74012 L538.596305,127.74012 C538.596305,136.535342 545.297347,143.236463 553.673651,143.236463 L553.673651,143.236463 Z" id="Shape" fill="#B9B8B8"></path>
                    <path d="M819.621281,157.895165 C827.997585,157.895165 835.117443,151.194044 835.117443,142.398823 L804.12512,142.398823 C804.12512,151.194044 810.826163,157.895165 819.621281,157.895165 L819.621281,157.895165 Z" id="Shape" fill="#DBDADA"></path>
                    <path d="M861.502798,218.205255 C867.785026,218.205255 873.229623,213.179414 873.229623,206.478293 L850.194789,206.478293 C849.775973,213.179414 854.801755,218.205255 861.502798,218.205255 L861.502798,218.205255 Z" id="Shape" fill="#B8B7B7"></path>
                    <path d="M669.685452,160.408086 C675.967679,160.408086 681.412276,155.382245 681.412276,148.681124 L658.377442,148.681124 C657.958627,154.963425 662.984409,160.408086 669.685452,160.408086 L669.685452,160.408086 Z" id="Shape" fill="#B9B8B8"></path>
                    <path d="M114.755356,257.574341 C121.037583,257.574341 126.48218,252.5485 126.48218,245.847379 L103.447346,245.847379 C103.028531,252.12968 108.473128,257.574341 114.755356,257.574341 L114.755356,257.574341 Z" id="Shape" fill="#B8B7B7"></path>
                    <path d="M162.08147,196.426611 C168.363697,196.426611 173.808294,191.400771 173.808294,184.69965 L150.77346,184.69965 C150.354645,190.981951 155.799242,196.426611 162.08147,196.426611 L162.08147,196.426611 Z" id="Shape" fill="#B8B7B7"></path>
                    <path d="M430.123176,101.354456 C436.405404,101.354456 441.850001,96.3286154 441.850001,89.6274943 L418.815167,89.6274943 C418.396352,96.3286154 423.840949,101.354456 430.123176,101.354456 L430.123176,101.354456 Z" id="Shape" fill="#B9B8B8"></path>
                    <path d="M368.557347,67.0112107 C374.839574,67.0112107 380.284171,61.9853699 380.284171,55.2842488 L357.249337,55.2842488 C356.830522,61.5665498 361.856304,67.0112107 368.557347,67.0112107 L368.557347,67.0112107 Z" id="Shape" fill="#B9B8B8"></path>
                    <path d="M1120.33057,218.205255 C1126.6128,218.205255 1132.0574,213.179414 1132.0574,206.478293 L1109.02256,206.478293 C1108.60375,213.179414 1114.04834,218.205255 1120.33057,218.205255 L1120.33057,218.205255 Z" id="Shape" fill="#B8B7B7"></path>
                    <path d="M899.196163,177.160888 C905.478391,177.160888 910.922988,172.135048 910.922988,165.433926 L887.888154,165.433926 C887.469338,172.135048 892.49512,177.160888 899.196163,177.160888 L899.196163,177.160888 Z" id="Shape" fill="#B8B7B7"></path>
                    <path d="M553.673651,85.8581137 C562.049954,85.8581137 569.169812,79.1569927 569.169812,70.3617712 L538.596305,70.3617712 C538.596305,78.7381726 545.297347,85.8581137 553.673651,85.8581137 L553.673651,85.8581137 Z" id="Shape" fill="#B9B8B8"></path>
                    <path d="M553.673651,28.0609445 C562.049954,28.0609445 569.169812,21.3598234 569.169812,12.564602 L538.596305,12.564602 C538.596305,21.3598234 545.297347,28.0609445 553.673651,28.0609445 L553.673651,28.0609445 Z" id="Shape" fill="#B9B8B8"></path>
                    <g transform="translate(284.794313, 429.196468)">
                        <rect id="Rectangle-path" fill="#9B9B9B" x="21.3595735" y="32.7620656" width="6.70104267" height="46.0702074"></rect>
                        <g>
                            <path d="M10.8884405,14.451336 L24.8091865,0.534363989 L38.7259957,14.4552729 L24.8052496,28.3722449 L10.8884405,14.451336 L10.8884405,14.451336 Z" id="Rectangle-path" fill="#383838"></path>
                            <path d="M24.7100948,38.6255465 C38.1121802,38.6255465 49.0013745,27.7362248 49.0013745,14.3339826 L0.837630334,14.3339826 C0.837630334,27.7362248 11.3080095,38.6255465 24.7100948,38.6255465 L24.7100948,38.6255465 Z" id="Shape" fill="#D4D4D4"></path>
                        </g>
                    </g>
                    <g transform="translate(379.933650, 429.196468)">
                        <rect id="Rectangle-path" fill="#9B9B9B" x="21.2912797" y="32.7620656" width="6.70104267" height="46.0702074"></rect>
                        <g>
                            <path d="M10.5149141,14.7277572 L24.4356602,0.810785233 L38.3524694,14.7316941 L24.4317233,28.6486662 L10.5149141,14.7277572 L10.5149141,14.7277572 Z" id="Rectangle-path" fill="#383838"></path>
                            <path d="M24.641801,38.6255465 C38.0438863,38.6255465 48.9330807,27.7362248 48.9330807,14.3339826 L0.769336501,14.3339826 C0.769336501,27.7362248 11.2397157,38.6255465 24.641801,38.6255465 L24.641801,38.6255465 Z" id="Shape" fill="#D4D4D4"></path>
                        </g>
                    </g>
                    <g transform="translate(475.261138, 429.196468)">
                        <rect id="Rectangle-path" fill="#9B9B9B" x="21.0348342" y="32.7620656" width="6.70104267" height="46.0702074"></rect>
                        <g>
                            <path d="M10.2490034,14.7080727 L24.1697495,0.79110069 L38.0865586,14.7120096 L24.1658126,28.6289816 L10.2490034,14.7080727 L10.2490034,14.7080727 Z" id="Rectangle-path" fill="#383838"></path>
                            <path d="M24.3853555,38.6255465 C37.7874408,38.6255465 48.6766352,27.7362248 48.6766352,14.3339826 L0.512891001,14.3339826 C0.094075834,27.7362248 10.9832702,38.6255465 24.3853555,38.6255465 L24.3853555,38.6255465 Z" id="Shape" fill="#D4D4D4"></path>
                        </g>
                    </g>
                    <g transform="translate(1096.107585, 429.196468)">
                        <rect id="Rectangle-path" fill="#9B9B9B" x="20.8724645" y="32.7620656" width="6.70104267" height="46.0702074"></rect>
                        <g>
                            <path d="M10.0627194,14.6669027 L23.9854339,0.751899132 L37.9002746,14.6747765 L23.9775602,28.58978 L10.0627194,14.6669027 L10.0627194,14.6669027 Z" id="Rectangle-path" fill="#383838"></path>
                            <path d="M24.2229858,38.6255465 C37.6250712,38.6255465 48.5142655,27.7362248 48.5142655,14.3339826 L0.350521334,14.3339826 C-0.0682938323,27.7362248 10.8209005,38.6255465 24.2229858,38.6255465 L24.2229858,38.6255465 Z" id="Shape" fill="#D4D4D4"></path>
                        </g>
                    </g>
                    <ellipse id="Oval" fill="#383838" cx="356.830522" cy="521.012163" rx="26.3853555" ry="26.3856642"></ellipse>
                    <ellipse id="Oval" fill="#383838" cx="309.085593" cy="521.012163" rx="26.3853555" ry="26.3856642"></ellipse>
                    <ellipse id="Oval" fill="#383838" cx="404.575451" cy="521.012163" rx="26.3853555" ry="26.3856642"></ellipse>
                    <ellipse id="Oval" fill="#383838" cx="500.065309" cy="521.012163" rx="26.3853555" ry="26.3856642"></ellipse>
                    <ellipse id="Oval" fill="#383838" cx="1120.33057" cy="521.012163" rx="26.3853555" ry="26.3856642"></ellipse>
                    <ellipse id="Oval" fill="#383838" cx="1215.82043" cy="521.012163" rx="26.3853555" ry="26.3856642"></ellipse>
                    <g transform="translate(0.000000, 526.525084)" fill="#9B9B9B">
                        <rect id="Rectangle-path" x="25.5477252" y="0.769380603" width="1483.02451" height="49.839588"></rect>
                        <ellipse id="Oval" cx="25.5477252" cy="25.4797646" rx="24.7100948" ry="24.710384"></ellipse>
                        <ellipse id="Oval" cx="1508.57223" cy="25.4797646" rx="24.7100948" ry="24.710384"></ellipse>
                        <rect id="Rectangle-path" x="102.190901" y="89.1404147" width="368.976162" height="52.7713284"></rect>
                        <ellipse id="Oval" cx="102.190901" cy="115.526079" rx="26.3853555" ry="26.3856642"></ellipse>
                        <ellipse id="Oval" cx="470.748247" cy="115.526079" rx="26.3853555" ry="26.3856642"></ellipse>
                        <rect id="Rectangle-path" x="1172.68247" y="89.1404147" width="161.243839" height="52.7713284"></rect>
                        <ellipse id="Oval" cx="1172.68247" cy="115.526079" rx="26.3853555" ry="26.3856642"></ellipse>
                        <ellipse id="Oval" cx="1334.34512" cy="115.526079" rx="26.3853555" ry="26.3856642"></ellipse>
                        <rect id="Rectangle-path" x="574.195594" y="89.1404147" width="440.17474" height="52.7713284"></rect>
                        <ellipse id="Oval" cx="574.195594" cy="115.526079" rx="26.3853555" ry="26.3856642"></ellipse>
                        <path d="M1040.33687,115.526079 C1040.33687,130.184781 1028.61005,141.911743 1013.95152,141.911743 C999.292988,141.911743 987.566163,130.184781 987.566163,115.526079 C987.566163,100.867377 999.292988,89.1404147 1013.95152,89.1404147 C1028.61005,89.1404147 1040.33687,101.286197 1040.33687,115.526079 L1040.33687,115.526079 Z" id="Shape"></path>
                        <path d="M401.643745,69.8746916 C401.643745,58.9853699 410.438863,50.6089686 420.909243,50.6089686 L420.909243,41.8137472 L227.416636,41.8137472 L227.416636,50.6089686 C238.30583,50.6089686 246.682133,59.40419 246.682133,69.8746916 C246.682133,80.7640134 237.887015,89.1404147 227.416636,89.1404147 L227.416636,104.636757 L420.909243,104.636757 L420.909243,89.1404147 C410.438863,89.1404147 401.643745,80.7640134 401.643745,69.8746916 L401.643745,69.8746916 Z" id="Shape"></path>
                        <path d="M968.300666,69.8746916 C968.300666,58.9853699 977.095784,50.6089686 987.566163,50.6089686 L987.566163,41.8137472 L874.067253,41.8137472 L874.067253,50.6089686 C884.956447,50.6089686 893.332751,59.40419 893.332751,69.8746916 C893.332751,80.7640134 884.537632,89.1404147 874.067253,89.1404147 L874.067253,104.636757 L987.566163,104.636757 L987.566163,89.1404147 C976.676969,89.1404147 968.300666,80.7640134 968.300666,69.8746916 L968.300666,69.8746916 Z" id="Shape"></path>
                        <path d="M1290.78834,69.8746916 C1290.78834,58.9853699 1299.58346,50.6089686 1310.05384,50.6089686 L1310.05384,41.8137472 L1196.55493,41.8137472 L1196.55493,50.6089686 C1207.44413,50.6089686 1215.82043,59.40419 1215.82043,69.8746916 C1215.82043,80.7640134 1207.02531,89.1404147 1196.55493,89.1404147 L1196.55493,104.636757 L1310.05384,104.636757 L1310.05384,89.1404147 C1299.58346,89.1404147 1290.78834,80.7640134 1290.78834,69.8746916 L1290.78834,69.8746916 Z" id="Shape"></path>
                    </g>
                    <g transform="translate(253.289100, 507.772281)">
                        <rect id="Rectangle-path" fill="#606060" x="0.094075834" y="38.7879064" width="111.404834" height="13.8210622"></rect>
                        <g transform="translate(31.505213, 0.000000)">
                            <path d="M0.837630334,11.1457819 L0.837630334,11.9834221 C0.837630334,24.9668442 11.3080095,35.8561659 24.7100948,35.8561659 C37.693365,35.8561659 48.5825593,25.3856642 48.5825593,11.9834221 L48.5825593,11.1457819 L0.837630334,11.1457819 L0.837630334,11.1457819 Z" id="Shape" fill="#FFFFFF"></path>
                            <ellipse id="Oval" fill="#DADADA" cx="24.2912797" cy="11.1457819" rx="10.8891943" ry="10.8893217"></ellipse>
                        </g>
                    </g>
                    <g transform="translate(537.083414, 507.772281)">
                        <rect id="Rectangle-path" fill="#606060" x="0.2564455" y="38.7879064" width="111.404834" height="13.8210622"></rect>
                        <g transform="translate(31.317062, 0.000000)">
                            <path d="M0.769336501,11.1457819 L0.769336501,11.9834221 C0.769336501,24.9668442 11.2397157,35.8561659 24.641801,35.8561659 C37.6250712,35.8561659 48.5142655,25.3856642 48.5142655,11.9834221 L48.5142655,11.1457819 L0.769336501,11.1457819 L0.769336501,11.1457819 Z" id="Shape" fill="#FFFFFF"></path>
                            <ellipse id="Oval" fill="#DADADA" cx="24.641801" cy="11.1457819" rx="10.8891943" ry="10.8893217"></ellipse>
                        </g>
                    </g>
                    <g transform="translate(1110.860192, 508.772281)">
                        <rect id="Rectangle-path" fill="#606060" x="0.675260667" y="39.0443666" width="111.404834" height="13.8210622"></rect>
                        <g transform="translate(32.505213, 0.000000)">
                            <path d="M0,11.4022421 L0,12.2398823 C0,25.2233044 10.4703792,36.1126261 23.8724645,36.1126261 C37.2745498,36.1126261 47.744929,25.6421244 47.744929,12.2398823 L47.744929,11.4022421 L0,11.4022421 L0,11.4022421 Z" id="Shape" fill="#FFFFFF"></path>
                            <ellipse id="Oval" fill="#DADADA" cx="23.8724645" cy="11.4022421" rx="10.8891943" ry="10.8893217"></ellipse>
                        </g>
                    </g>
                    <ellipse id="Oval" fill="#FFFFFF" cx="613.983035" cy="223.649916" rx="5.86341234" ry="5.86348094"></ellipse>
                    <ellipse id="Oval" fill="#FFFFFF" cx="757.185736" cy="268.107735" rx="5.86341234" ry="5.86348094"></ellipse>
                    <path d="M398.578018,354.677606 L406.870056,346.385471 L415.162093,354.677606 L406.870056,362.969741 L398.578018,354.677606 L398.578018,354.677606 Z" id="Rectangle-path" fill="#D4D4D4"></path>
                    <path d="M413.859746,368.364478 L422.151783,360.072344 L430.443821,368.364478 L422.151783,376.656613 L413.859746,368.364478 L413.859746,368.364478 Z" id="Rectangle-path" fill="#D4D4D4"></path>
                    <path d="M394.564763,381.75692 L402.854456,373.46244 L411.148839,381.752229 L402.859147,390.04671 L394.564763,381.75692 L394.564763,381.75692 Z" id="Rectangle-path" fill="#D4D4D4"></path>
                    <path d="M500.948758,304.115721 L509.240796,295.823586 L517.532833,304.115721 L509.240796,312.407856 L500.948758,304.115721 L500.948758,304.115721 Z" id="Rectangle-path" fill="#D4D4D4"></path>
                    <path d="M579.638934,252.722311 L587.929799,244.429003 L596.22301,252.719965 L587.932145,261.013273 L579.638934,252.722311 L579.638934,252.722311 Z" id="Rectangle-path" fill="#AAAAAA"></path>
                    <path d="M584.874794,298.069886 L593.165659,289.776578 L601.45887,298.067541 L593.168005,306.360848 L584.874794,298.069886 L584.874794,298.069886 Z" id="Rectangle-path" fill="#D4D4D4"></path>
                    <path d="M889.653208,384.209782 L897.945246,375.917647 L906.237284,384.209782 L897.945246,392.501917 L889.653208,384.209782 L889.653208,384.209782 Z" id="Rectangle-path" fill="#D4D4D4"></path>
                    <path d="M912.71137,437.922576 L921.001063,429.628096 L929.295446,437.917885 L921.005754,446.212365 L912.71137,437.922576 L912.71137,437.922576 Z" id="Rectangle-path" fill="#D4D4D4"></path>
                    <path d="M816.989028,372.469669 L827.951013,361.516854 L838.903699,372.478967 L827.941715,383.431782 L816.989028,372.469669 L816.989028,372.469669 Z" id="Rectangle-path" fill="#D4D4D4"></path>
                    <ellipse id="Oval" fill="#D4D4D4" cx="864.015689" cy="356.415877" rx="14.2397157" ry="14.2398823"></ellipse>
                </g>
            </g>
        </g>
    </g>
</svg>