<?xml version="1.0" encoding="UTF-8" standalone="no"?>
<svg width="234px" height="104px" viewBox="0 0 234 104" version="1.1" xmlns="http://www.w3.org/2000/svg" xmlns:xlink="http://www.w3.org/1999/xlink">
    <!-- Generator: Sketch 3.6.1 (26313) - http://www.bohemiancoding.com/sketch -->
    <title>我萌文字</title>
    <desc>Created with Sketch.</desc>
    <defs>
        <path id="path-1" d="M21.2956557,0.223016043 C17.0621321,3.39140107 13.2739811,5.71388235 9.93009906,7.18545455 L9.93009906,7.18545455 C8.41903302,7.87118717 5.14965566,9.18258824 0.117551887,11.1246631 L0.117551887,11.1246631 L21.7206085,11.1246631 C26.7521604,9.18258824 30.0220896,7.87118717 31.5331557,7.18545455 L31.5331557,7.18545455 C34.8770377,5.71388235 38.6651887,3.39140107 42.8987123,0.223016043 L42.8987123,0.223016043"></path>
        <path id="path-3" d="M0.0838867925,0.0667379679 C0.49559434,5.93300535 1.01491981,11.183615 1.63689623,15.8235722 L1.63689623,15.8235722 L23.2394009,15.8235722 C22.6179764,11.183615 22.0986509,5.93300535 21.6869434,0.0667379679 L21.6869434,0.0667379679"></path>
        <path id="path-5" d="M0.0126933962,0.303101604 C0.960283019,2.42536898 1.68491038,3.86690909 2.18767925,4.62271658 L2.18767925,4.62271658 C3.04751887,5.95413904 4.74843396,7.61090909 7.29759906,9.58802139 L7.29759906,9.58802139 L28.9001038,9.58802139 C26.3514906,7.61090909 24.6505755,5.95413904 23.7896321,4.62271658 L23.7896321,4.62271658 C23.2874151,3.86690909 22.5627877,2.42536898 21.61575,0.303101604 L21.61575,0.303101604"></path>
        <path id="path-7" d="M0,0.234139037 L233.71633,0.234139037 L233.71633,104 L0,104"></path>
        <path id="path-9" d="M10.0299906,0.401540107 C9.85338679,8.4251123 9.53991509,13.9159786 9.09509434,16.8641283 L9.09509434,16.8641283 C8.00015094,24.2069733 5.0392783,27.875893 0.216891509,27.875893 L0.216891509,27.875893 L21.8199481,27.875893 C26.641783,27.875893 29.6026557,24.2069733 30.6981509,16.8641283 L30.6981509,16.8641283 C31.1429717,13.9159786 31.4553396,8.4251123 31.6330472,0.401540107 L31.6330472,0.401540107"></path>
        <path id="path-11" d="M0,0.234139037 L233.71633,0.234139037 L233.71633,104 L0,104 L0,0.234139037 Z"></path>
    </defs>
    <g id="Page-1" stroke="none" stroke-width="1" fill="none" fill-rule="evenodd">
        <g id="前景" transform="translate(-340.000000, 0.000000)">
            <g id="我萌文字" transform="translate(340.000000, 0.000000)">
                <path d="M23.1550726,85.6203636 L1.55201604,85.6203636 L13.8977236,85.6203636 L35.5002283,85.6203636 L23.1550726,85.6203636 Z" id="Fill-1" fill="#7C5206"></path>
                <path d="M13.8976132,70.7244492 L0,75.2542888 L21.6030566,75.2542888 L35.5006698,70.7244492 L13.8976132,70.7244492 Z" id="Fill-2" fill="#D98106"></path>
                <path d="M21.734516,28.1940107 L0.131459434,28.1940107 L13.8977236,28.1940107 L35.5002283,28.1940107 L21.734516,28.1940107 Z" id="Fill-3" fill="#7C5206"></path>
                <path d="M25.1522958,5.25450267 L3.54923915,5.25450267 L23.1748854,5.25450267 L44.777942,5.25450267 L25.1522958,5.25450267 Z" id="Fill-4" fill="#7C5206"></path>
                <path d="M30.2373255,42.3341176 L51.8403821,42.3341176 L51.8403821,51.5089198 L30.2373255,51.5089198 L30.2373255,42.3341176 Z" id="Fill-5" fill="#D98106"></path>
                <path d="M47.9775608,1.53052406 L26.3745042,1.53052406 L41.3389146,1.53052406 L62.9414193,1.53052406 L47.9775608,1.53052406 Z" id="Fill-6" fill="#7C5206"></path>
                <g id="Group-17" transform="translate(17.660377, 1.112299)">
                    <path d="M45.2811524,0.418168984 L23.6786476,0.418168984 C23.262525,4.73277861 22.862959,7.75100321 22.4760863,9.45782674 C22.0930769,11.1696556 21.4837939,12.6312171 20.6559637,13.8575273 C18.8523976,16.5203722 16.1553269,17.9769283 12.5768929,18.2271957 L12.5768929,27.0816556 L34.1793976,27.0816556 L34.1793976,18.2271957 C37.7578316,17.9769283 40.4549024,16.5203722 42.2584684,13.8575273 C43.0862986,12.6312171 43.6955816,11.1696556 44.078591,9.45782674 C44.3688835,8.17757005 44.6663505,6.15985882 44.9720958,3.4108107 C45.0741948,2.49427594 45.1773976,1.49709947 45.2811524,0.418168984 L45.2811524,0.418168984 Z" id="Fill-7" fill="#D98106"></path>
                    <path d="M24.1189429,60.5424599 L12.5767825,64.2664385 L12.5767825,86.0146738 C12.5767825,88.7876364 12.2925608,90.8398289 11.7323958,92.1712513 C10.6082024,94.9041711 8.69757028,96.8112086 6.00491462,97.8923636 C4.73226368,98.3928984 2.74767877,98.6481711 0.0544712264,98.6481711 L21.6575278,98.6481711 C24.3501835,98.6481711 26.3353203,98.3928984 27.6074193,97.8923636 C30.3006269,96.8112086 32.211259,94.9041711 33.3354524,92.1712513 C33.8956175,90.8398289 34.1792873,88.7876364 34.1792873,86.0146738 L34.1792873,64.2664385 L45.7214476,60.5424599 L24.1189429,60.5424599 Z" id="Fill-9" fill="#D98106"></path>
                    <path d="M24.1189429,48.3444278 L45.7214476,48.3444278 L45.7214476,60.5424599 L24.1189429,60.5424599 L24.1189429,48.3444278 Z" id="Fill-11" fill="#D98106"></path>
                    <path d="M12.5766722,27.0817668 L34.1797288,27.0817668 L45.8576533,27.0817668 L24.2545967,27.0817668 L12.5766722,27.0817668 Z" id="Fill-13" fill="#7C5206"></path>
                    <path d="M36.1965439,85.3139251 L57.7990486,85.3139251 C53.5660769,88.4823102 49.7779259,90.8047914 46.4340439,92.2763636 C44.9229778,92.9620963 41.6536005,94.2734973 36.6214967,96.2155722 L15.0184401,96.2155722 C20.0505439,94.2734973 23.3199212,92.9620963 24.8315392,92.2763636 C28.1748693,90.8047914 31.9635722,88.4823102 36.1965439,85.3139251" id="Fill-15" fill="#D98106"></path>
                </g>
                <g id="Group-20" transform="translate(32.561321, 86.203209)">
                    <mask id="mask-2" fill="white">
                        <use xlink:href="#path-1"></use>
                    </mask>
                    <g id="Clip-19"></g>
                    <path d="M21.2956005,0.223016043 L42.8981052,0.223016043 C38.6651335,3.39140107 34.8769825,5.71388235 31.5331005,7.18545455 C30.0220344,7.87118717 26.7526571,9.18258824 21.7205533,11.1246631 L0.117496698,11.1246631 C5.14960047,9.18258824 8.41897783,7.87118717 9.93059575,7.18545455 C13.2739259,5.71388235 17.0626288,3.39140107 21.2956005,0.223016043" id="Fill-18" fill="#D98106" mask="url(#mask-2)"></path>
                </g>
                <g id="Group-27" transform="translate(41.391509, 0.000000)">
                    <path d="M0.523685377,0.234194652 L22.1261901,0.234194652 L37.7125769,0.234194652 L16.1095203,0.234194652 L0.523685377,0.234194652 Z" id="Fill-21" fill="#7C5206"></path>
                    <path d="M16.1096858,0.234194652 L16.1096858,27.4382588 L16.1096858,27.8136599 L16.1096858,28.1940663 L37.7121906,28.1940663 L37.7121906,27.8136599 L37.7121906,27.4382588 L37.7121906,0.234194652 L16.1096858,0.234194652 Z" id="Fill-23" fill="#D98106"></path>
                    <path d="M16.6407665,42.3341176 L38.2438231,42.3341176 C38.6555307,48.200385 39.1743042,53.4509947 39.7962807,58.0909519 L18.1932241,58.0909519 C17.5712476,53.4509947 17.0524741,48.200385 16.6407665,42.3341176" id="Fill-25" fill="#D98106"></path>
                </g>
                <g id="Group-30" transform="translate(57.948113, 42.267380)">
                    <mask id="mask-4" fill="white">
                        <use xlink:href="#path-3"></use>
                    </mask>
                    <g id="Clip-29"></g>
                    <path d="M0.0841627358,0.0667379679 L21.6872193,0.0667379679 C22.0989269,5.93300535 22.6177005,11.183615 23.2396769,15.8235722 L1.63662028,15.8235722 C1.01464387,11.183615 0.495870283,5.93300535 0.0841627358,0.0667379679" id="Fill-28" fill="#D98106" mask="url(#mask-4)"></path>
                </g>
                <g id="Group-35" transform="translate(58.500000, 3.893048)">
                    <path d="M0.0223514151,0.175242781 L21.625408,0.175242781 L33.0356675,0.175242781 L11.4326108,0.175242781 L0.0223514151,0.175242781 Z" id="Fill-31" fill="#7C5206"></path>
                    <path d="M6.63555566,72.6026225 L28.2380604,72.6026225 C29.18565,74.7248898 29.9102774,76.1664299 30.4124943,76.9222374 C31.2734377,78.2536599 32.9738009,79.9104299 35.522966,81.8875422 L13.9199094,81.8875422 C11.3712962,79.9104299 9.67038113,78.2536599 8.80998962,76.9222374 C8.30722075,76.1664299 7.5825934,74.7248898 6.63555566,72.6026225" id="Fill-33" fill="#D98106"></path>
                </g>
                <g id="Group-38" transform="translate(65.122642, 76.192513)">
                    <mask id="mask-6" fill="white">
                        <use xlink:href="#path-5"></use>
                    </mask>
                    <g id="Clip-37"></g>
                    <path d="M0.0129141509,0.303157219 L21.6159708,0.303157219 C22.5630085,2.4254246 23.2876358,3.86696471 23.7898528,4.62277219 C24.6507962,5.95419465 26.3511594,7.61096471 28.9003245,9.58807701 L7.29726792,9.58807701 C4.74865472,7.61096471 3.04773962,5.95419465 2.18734811,4.62277219 C1.68457925,3.86696471 0.959951887,2.4254246 0.0129141509,0.303157219" id="Fill-36" fill="#D98106" mask="url(#mask-6)"></path>
                </g>
                <g id="Group-56">
                    <path d="M100.150068,22.3076663 C99.0220118,18.9991316 97.7079693,15.6905968 96.1969033,12.3770567 C94.9822005,9.71421176 93.4297429,6.94625455 91.5356675,4.06817968 L69.9326108,4.06817968 C71.8272382,6.94625455 73.3796958,9.71421176 74.5943986,12.3770567 C76.1054646,15.6905968 77.4189552,18.9991316 78.5470118,22.3076663 L79.6552005,25.4910674 L101.257705,25.4910674 L100.150068,22.3076663 Z" id="Fill-39" fill="#D98106"></path>
                    <path d="M63.0931882,25.4910674 C62.6196693,21.3216128 62.1008958,17.882939 61.5407307,15.1850567 C60.9187542,12.0917519 59.9099052,8.3827893 58.5224618,4.06817968 L69.9327212,4.06817968 C71.8267967,6.94625455 73.3792542,9.71421176 74.5939571,12.3770567 C76.105575,15.6905968 77.4190656,18.9991316 78.5471222,22.3076663 L79.654759,25.4910674 L63.0931882,25.4910674 Z" id="Fill-41" fill="#F6BA00"></path>
                    <path d="M64.1143443,45.1371123 L85.7168491,45.1371123 L101.525646,45.1371123 L79.9225896,45.1371123 L64.1143443,45.1371123 Z" id="Fill-43" fill="#7C5206"></path>
                    <path d="M79.9225896,45.1371123 C78.6504906,50.287615 77.5958349,53.9014759 76.7685566,55.9887059 C74.6603491,61.6102674 72.3551179,66.389262 69.8523113,70.3240214 C69.35175,71.1115294 68.8434623,71.8645561 68.3274481,72.5842139 C68.0691651,72.9440428 67.8092264,73.2949733 67.5470802,73.6381176 C66.7606415,74.6664385 65.9570943,75.619123 65.1353349,76.495615 L65.1353349,76.495615 L65.1353349,76.495615 L86.7383915,76.495615 C91.1198208,71.8206203 94.9984811,64.9833155 98.3710613,55.9887059 C99.1988915,53.9014759 100.252995,50.287615 101.525646,45.1371123 L79.9225896,45.1371123 Z" id="Fill-45" fill="#D98106"></path>
                    <path d="M80.8532363,28.1940663 L102.455741,28.1940663 L102.455741,42.3341733 L80.8532363,42.3341733 L80.8532363,28.1940663 Z" id="Fill-47" fill="#D98106"></path>
                    <path d="M57.5011401,28.1940663 L79.1036448,28.1940663 L102.456183,28.1940663 L80.8531259,28.1940663 L57.5011401,28.1940663 Z" id="Fill-49" fill="#7C5206"></path>
                    <g id="Group-53">
                        <mask id="mask-8" fill="white">
                            <use xlink:href="#path-7"></use>
                        </mask>
                        <g id="Clip-52"></g>
                        <path d="M73.6182764,73.2572107 L83.4313755,73.2572107 C83.2536679,81.2807829 82.9413,86.7716492 82.4964792,89.7197989 C81.400984,97.0626439 78.4401113,100.731564 73.6182764,100.731564 C70.5668943,100.731564 67.2809604,99.5803337 63.7604745,97.2778738 C60.1202292,94.8652963 56.8177387,91.2464299 53.856866,86.4262802 C49.6238943,89.5946652 45.8351915,91.9171465 42.4918613,93.3887187 C40.9807953,94.0744513 37.710866,95.3858524 32.6787623,97.3279273 L32.6787623,84.7544941 C39.1893708,81.1206118 44.3406821,77.5067508 48.128833,73.9079059 C45.4361774,65.8843337 43.6160547,55.3580877 42.669017,42.3341733 L30.2372151,42.3341733 L30.2372151,51.5089754 L41.7793755,49.4567829 L41.7793755,61.654815 L30.2372151,65.3787936 L30.2372151,87.1270289 C30.2372151,89.8999914 29.9529934,91.952184 29.3928283,93.2836064 C28.2686349,96.0165262 26.3580028,97.9235636 23.6653472,99.0047187 C22.3926962,99.5052535 20.4081113,99.7605262 17.7149038,99.7605262 L4.30736604,99.7605262 L1.55234717,85.6204193 L13.8975028,85.6204193 L13.8975028,70.7245048 L-0.000110377358,75.2543444 L-0.000110377358,56.7996278 L13.8975028,54.3670289 L13.8975028,42.3341733 L0.131790566,42.3341733 L0.131790566,28.1940663 L13.8975028,28.1940663 L13.8975028,19.3946652 L3.54962547,19.3946652 L3.54962547,5.25455829 L23.1752717,5.25455829 C24.3320264,5.25455829 25.0859038,5.03932834 25.4396632,4.6038631 C25.7978377,4.17340321 26.1068943,3.14730695 26.3745594,1.53057968 L41.3389698,1.53057968 C40.9228472,5.8451893 40.5232811,8.8634139 40.1364085,10.5702374 C39.7533991,12.2820663 39.144116,13.7436278 38.3162858,14.969938 C36.5127198,17.6327829 33.8156491,19.089339 30.2372151,19.3396064 L30.2372151,28.1940663 L41.9151396,28.1940663 L41.9151396,27.2180235 L41.9151396,0.234194652 L57.5009745,0.234194652 L57.5009745,27.4382588 L57.5009745,27.8136599 L57.5009745,28.1940663 L80.8535123,28.1940663 L80.8535123,42.3341733 L58.0324415,42.3341733 C58.4441491,48.2004406 58.9629226,53.4510503 59.5848991,58.0910075 C61.1533613,54.9626652 62.6649792,50.6430503 64.114234,45.1371679 L79.9224792,45.1371679 C78.6503802,50.2876706 77.5962764,53.9015316 76.7684462,55.9887615 C73.395866,64.9833711 69.5172057,71.8206759 65.1357764,76.4956706 C66.0828142,78.617938 66.8074415,80.0594781 67.3096585,80.8152856 C68.1706019,82.146708 69.8709651,83.8034781 72.4201302,85.7805904 C72.5972858,84.6994353 72.9963,80.5249754 73.6182764,73.2572107" id="Fill-51" fill="#F6BA00" mask="url(#mask-8)"></path>
                    </g>
                    <path d="M83.4310995,73.2572107 L105.034156,73.2572107 C104.856449,81.2807829 104.544081,86.7716492 104.09926,89.7197989 C103.003765,97.0626439 100.042892,100.731564 95.2210571,100.731564 L73.6180005,100.731564 C78.4403873,100.731564 81.4012599,97.0626439 82.4962033,89.7197989 C82.9410241,86.7716492 83.2539439,81.2807829 83.4310995,73.2572107" id="Fill-54" fill="#D98106"></path>
                </g>
                <g id="Group-59" transform="translate(73.400943, 72.855615)">
                    <mask id="mask-10" fill="white">
                        <use xlink:href="#path-9"></use>
                    </mask>
                    <g id="Clip-58"></g>
                    <path d="M10.0301561,0.401595722 L31.6332127,0.401595722 C31.4555052,8.42516791 31.1431373,13.9160342 30.6983165,16.864184 C29.6028212,24.2070289 26.6419486,27.8759487 21.8201137,27.8759487 L0.217057075,27.8759487 C5.03944387,27.8759487 8.00031651,24.2070289 9.09525991,16.864184 C9.54008066,13.9160342 9.85300047,8.42516791 10.0301561,0.401595722" id="Fill-57" fill="#D98106" mask="url(#mask-10)"></path>
                </g>
                <g id="Group-94">
                    <path d="M73.6182764,73.2572107 L95.221333,73.2572107 L105.03388,73.2572107 L83.4313755,73.2572107 L73.6182764,73.2572107 Z" id="Fill-60" fill="#7C5206"></path>
                    <path d="M215.733596,7.65706952 L194.131091,7.65706952 L212.113218,7.65706952 L233.716275,7.65706952 L215.733596,7.65706952 Z" id="Fill-62" fill="#7C5206"></path>
                    <mask id="mask-12" fill="white">
                        <use xlink:href="#path-11"></use>
                    </mask>
                    <g id="Clip-65"></g>
                    <path d="M200.057307,26.9777112 L178.454802,26.9777112 L178.454802,21.7421176 L200.057307,21.7421176 L200.057307,26.9777112 Z" id="Fill-64" fill="#D98106" mask="url(#mask-12)"></path>
                    <path d="M200.057307,7.65706952 L178.454802,7.65706952 L178.454802,1.8808984 L200.057307,1.8808984 L200.057307,7.65706952 Z" id="Fill-66" fill="#D98106" mask="url(#mask-12)"></path>
                    <path d="M200.057141,1.8808984 L178.454636,1.8808984 L194.130981,1.8808984 L215.733485,1.8808984 L200.057141,1.8808984 Z" id="Fill-67" fill="#7C5206" mask="url(#mask-12)"></path>
                    <path d="M185.850692,7.65706952 L164.248187,7.65706952 L178.454305,7.65706952 L200.057362,7.65706952 L185.850692,7.65706952 Z" id="Fill-68" fill="#7C5206" mask="url(#mask-12)"></path>
                    <path d="M170.174292,26.9777112 L148.571788,26.9777112 L148.571788,21.7421176 L170.174292,21.7421176 L170.174292,26.9777112 Z" id="Fill-69" fill="#D98106" mask="url(#mask-12)"></path>
                    <path d="M170.174292,7.65706952 L148.571788,7.65706952 L148.571788,1.8808984 L170.174292,1.8808984 L170.174292,7.65706952 Z" id="Fill-70" fill="#D98106" mask="url(#mask-12)"></path>
                    <path d="M170.174127,1.8808984 L148.571622,1.8808984 L164.247967,1.8808984 L185.850471,1.8808984 L170.174127,1.8808984 Z" id="Fill-71" fill="#7C5206" mask="url(#mask-12)"></path>
                    <path d="M151.660477,7.65706952 L130.057421,7.65706952 L148.571567,7.65706952 L170.174072,7.65706952 L151.660477,7.65706952 Z" id="Fill-72" fill="#7C5206" mask="url(#mask-12)"></path>
                    <path d="M151.660698,21.7421176 L130.057642,21.7421176 L130.057642,7.65706952 L151.660698,7.65706952 L151.660698,21.7421176 Z" id="Fill-73" fill="#D98106" mask="url(#mask-12)"></path>
                    <path d="M215.733596,7.65706952 L233.716275,7.65706952 L233.716275,21.7421176 L215.733596,21.7421176 L215.733596,26.9777112 L200.057251,26.9777112 L200.057251,21.7421176 L185.850582,21.7421176 L185.850582,26.9777112 L170.174237,26.9777112 L170.174237,21.7421176 L151.660643,21.7421176 L151.660643,7.65706952 L170.174237,7.65706952 L170.174237,1.8808984 L185.850582,1.8808984 L185.850582,7.65706952 L200.057251,7.65706952 L200.057251,1.8808984 L215.733596,1.8808984 L215.733596,7.65706952 Z" id="Fill-74" fill="#F6BA00" mask="url(#mask-12)"></path>
                    <path d="M214.712384,88.238216 L193.10988,88.238216 L193.10988,79.3337027 L214.712384,79.3337027 L214.712384,88.238216 Z" id="Fill-75" fill="#D98106" mask="url(#mask-12)"></path>
                    <path d="M214.712384,77.4966845 L193.10988,77.4966845 L193.10988,60.928984 L214.712384,60.928984 L214.712384,77.4966845 Z" id="Fill-76" fill="#D98106" mask="url(#mask-12)"></path>
                    <path d="M214.71266,59.0920214 L193.110156,59.0920214 L193.110156,42.7946096 L214.71266,42.7946096 L214.71266,59.0920214 Z" id="Fill-77" fill="#D98106" mask="url(#mask-12)"></path>
                    <path d="M210.891065,102.05292 L189.28856,102.05292 L185.870725,88.2381604 L207.47323,88.2381604 L210.891065,102.05292 Z" id="Fill-78" fill="#D98106" mask="url(#mask-12)"></path>
                    <path d="M207.473285,88.238216 L185.870229,88.238216 L193.109328,88.238216 L214.712384,88.238216 L207.473285,88.238216 Z" id="Fill-79" fill="#7C5206" mask="url(#mask-12)"></path>
                    <path d="M204.899672,47.8150289 L183.296615,47.8150289 L190.08703,47.8150289 L211.690087,47.8150289 L204.899672,47.8150289 Z" id="Fill-80" fill="#7C5206" mask="url(#mask-12)"></path>
                    <path d="M204.854362,66.2697455 L183.251857,66.2697455 L190.086975,66.2697455 L211.690032,66.2697455 L204.854362,66.2697455 Z" id="Fill-81" fill="#7C5206" mask="url(#mask-12)"></path>
                    <path d="M189.803747,29.0299037 L168.201242,29.0299037 L208.205308,29.0299037 L229.808365,29.0299037 L189.803747,29.0299037 Z" id="Fill-82" fill="#7C5206" mask="url(#mask-12)"></path>
                    <path d="M168.200966,29.0299037 L168.200966,62.8710588 C168.200966,71.0748235 167.756145,77.1563209 166.867056,81.1155508 C166.58449,82.356877 166.240664,83.5253476 165.834475,84.622631 C165.427735,85.7193583 164.958079,86.7443422 164.424957,87.6975829 L164.424957,87.6975829 L164.424957,87.6975829 L186.027461,87.6975829 C187.094258,85.7905455 187.905532,83.5982032 188.46956,81.1155508 C189.359202,77.1563209 189.803471,71.0748235 189.803471,62.8710588 L189.803471,29.0299037 L168.200966,29.0299037 Z" id="Fill-83" fill="#D98106" mask="url(#mask-12)"></path>
                    <path d="M184.20767,104 L162.605165,104 L162.605165,91.2613904 L184.20767,91.2613904 L184.20767,104 Z" id="Fill-84" fill="#D98106" mask="url(#mask-12)"></path>
                    <path d="M172.620144,77.4416257 L151.017088,77.4416257 L151.017088,67.135615 L172.620144,67.135615 L172.620144,77.4416257 Z" id="Fill-85" fill="#D98106" mask="url(#mask-12)"></path>
                    <path d="M172.620255,66.3247487 L151.017198,66.3247487 L151.017198,44.0909947 L172.620255,44.0909947 L172.620255,66.3247487 Z" id="Fill-86" fill="#D98106" mask="url(#mask-12)"></path>
                    <path d="M169.02118,77.4416257 L147.418675,77.4416257 L151.017529,77.4416257 L172.620034,77.4416257 L169.02118,77.4416257 Z" id="Fill-87" fill="#7C5206" mask="url(#mask-12)"></path>
                    <path d="M169.02118,30.3262888 L147.418675,30.3262888 L164.425067,30.3262888 L186.027572,30.3262888 L169.02118,30.3262888 Z" id="Fill-88" fill="#7C5206" mask="url(#mask-12)"></path>
                    <path d="M168.267579,77.4416257 L146.665074,77.4416257 L147.4184,77.4416257 L169.020904,77.4416257 L168.267579,77.4416257 Z" id="Fill-89" fill="#7C5206" mask="url(#mask-12)"></path>
                    <path d="M168.267579,54.0216043 L146.665074,54.0216043 L148.884211,54.0216043 L170.487267,54.0216043 L168.267579,54.0216043 Z" id="Fill-90" fill="#7C5206" mask="url(#mask-12)"></path>
                    <path d="M154.855847,30.3262888 L133.25279,30.3262888 L147.41862,30.3262888 L169.021125,30.3262888 L154.855847,30.3262888 Z" id="Fill-91" fill="#7C5206" mask="url(#mask-12)"></path>
                    <path d="M154.855847,91.2613348 L133.25279,91.2613348 L133.25279,30.3262332 L154.855847,30.3262332 L154.855847,91.2613348 Z" id="Fill-92" fill="#D98106" mask="url(#mask-12)"></path>
                    <path d="M172.620144,77.4416257 L172.620144,67.135615 L168.267413,67.135615 L168.267413,77.4416257 L169.021291,77.4416257 L172.620144,77.4416257 M172.620144,66.3247487 L172.620144,44.0909947 L171.952913,44.0909947 L168.267413,44.0909947 L168.267413,54.0216043 L170.487102,54.0216043 L172.620144,66.3247487 M204.899451,42.7946096 L204.899451,47.8149733 L211.689866,47.8149733 L214.71255,59.0920214 L214.71255,42.7946096 L204.899451,42.7946096 M204.899451,63.3015187 C204.899451,64.5628663 204.883446,65.5539251 204.854196,66.2696898 L211.689866,66.2696898 L214.71255,77.4966845 L214.71255,60.928984 L204.899451,60.928984 L204.899451,63.3015187 M189.803692,62.8710588 L189.803692,29.0299037 L229.808309,29.0299037 L229.808309,89.8548877 C229.808309,92.4476578 229.585899,94.3697112 229.141078,95.6310588 C228.222739,98.3289412 226.654276,100.220963 224.434588,101.297112 C223.339092,101.802652 221.712682,102.05292 219.550942,102.05292 L210.891286,102.05292 L207.473451,88.2381604 L214.71255,88.2381604 L214.71255,79.3336471 L203.43364,79.3336471 C202.424791,83.5781818 200.633918,87.5374118 198.059918,91.2063316 C195.634375,94.6600214 192.82196,97.6081711 189.622673,100.055786 C188.646937,100.776556 186.842819,102.087957 184.207559,104 L184.207559,91.2613904 L171.998168,91.2613904 L154.856012,91.2613904 L154.856012,30.3262888 L169.021291,30.3262888 L186.027682,30.3262888 L186.027682,87.6975829 C187.094479,85.7905455 187.905201,83.5982032 188.469781,81.1155508 C189.358871,77.1563209 189.803692,71.0748235 189.803692,62.8710588" id="Fill-93" fill="#F6BA00" mask="url(#mask-12)"></path>
                </g>
            </g>
        </g>
    </g>
</svg>