<?xml version="1.0" encoding="UTF-8" standalone="no"?>
<svg width="1746px" height="216px" viewBox="0 0 1746 216" version="1.1" xmlns="http://www.w3.org/2000/svg" xmlns:xlink="http://www.w3.org/1999/xlink">
    <!-- Generator: Sketch 3.6.1 (26313) - http://www.bohemiancoding.com/sketch -->
    <title>背景</title>
    <desc>Created with Sketch.</desc>
    <defs>
        <polygon id="path-1" points="222.941376 0.385009762 461.936378 193 0 193 "></polygon>
        <polygon id="path-3" points="222.941376 0.385009762 461.936378 193 0 193 "></polygon>
        <path d="M56.7814271,101.618398 C56.2800754,103.837957 56,105.084027 56,105.084027 L149.441835,105.08403 C149.441835,105.08403 149.441836,105.084015 149.441838,105.083987 C149.851826,105.083056 150.258346,105.067305 150.660896,105.037237 C153.012999,106.920382 155.993253,108.045899 159.235294,108.045899 C166.837331,108.045899 173,101.857547 173,94.2238272 C173,89.4449796 170.584858,85.2325697 166.913367,82.7502215 C169.429503,80.6678026 171.033613,77.5141941 171.033613,73.9843643 C171.033613,67.7138088 165.971421,62.6305192 159.726891,62.6305192 C158.524831,62.6305192 157.366583,62.818883 156.279823,63.1678197 C156.04231,54.1063174 148.652631,46.8338653 139.571429,46.8338653 C139.431229,46.8338653 139.291432,46.8355986 139.152059,46.8390452 C139.426032,45.7308393 139.571429,44.5716436 139.571429,43.3783472 C139.571429,40.5148246 138.734174,37.8476683 137.292076,35.6102591 C138.701107,34.1829311 139.571429,32.2184866 139.571429,30.0499205 C139.571429,25.6877949 136.049904,22.1515935 131.705882,22.1515935 C129.027205,22.1515935 126.661273,23.496196 125.240925,25.549925 C123.515228,19.5934883 118.039055,15.2405574 111.55042,15.2405574 C110.353512,15.2405574 109.191054,15.3886716 108.080232,15.6676431 C108.099475,15.3632198 108.109244,15.0562114 108.109244,14.7469119 C108.109244,6.8405594 101.72648,0.431194296 93.8529412,0.431194296 C86.5907034,0.431194296 80.5967393,5.88394987 79.7097742,12.9347371 C79.0449632,13.6138061 76.8762365,15.902138 76.5563322,17.171765 C76.1286151,18.8692764 75.681415,20.6653756 75.2184279,22.54293 C73.3084954,18.6964766 69.351998,16.0542636 64.7809398,16.0542636 C58.3435365,16.0542636 53.12499,21.2945591 53.12499,27.7587912 C53.12499,28.0116744 53.1329764,28.2626844 53.1487099,28.5115808 C52.240502,28.2834938 51.2900767,28.1623956 50.3114848,28.1623956 C45.0063784,28.1623956 40.5290605,31.721351 39.1181311,36.5913324 C37.9568547,34.912204 36.0224693,33.8128573 33.8323833,33.8128573 C30.2807125,33.8128573 27.4015144,36.7040548 27.4015144,40.2705277 C27.4015144,42.0435469 28.1130892,43.6496763 29.2651124,44.8166594 C28.0860538,46.6459647 27.4015144,48.8266311 27.4015144,51.1678466 C27.4015144,52.1434854 27.5203903,53.0912436 27.7443908,53.9973125 C27.6304393,53.9944946 27.5161416,53.9930774 27.4015144,53.9930774 C19.9767255,53.9930774 13.934925,59.9390327 13.7407343,67.347715 C12.8521996,67.0624244 11.9052166,66.9084183 10.9224128,66.9084183 C5.81688604,66.9084183 1.6780388,71.0645147 1.6780388,76.1913195 C1.6780388,79.0773077 2.98955881,81.6556973 5.04675129,83.3582825 C2.04494155,85.3878499 0.0703215804,88.8319153 0.0703215804,92.7391 C0.0703215804,98.9804276 5.10891821,104.040023 11.3243421,104.040023 C13.9750344,104.040023 16.4116892,103.119801 18.3347684,101.580142 C18.663893,101.604725 18.9962638,101.617603 19.3314693,101.618361 C19.3314714,101.618388 19.3314723,101.618399 19.3314723,101.618399 L56.7814271,101.618398 Z" id="path-5"></path>
        <linearGradient x1="50%" y1="0%" x2="50%" y2="78.6529853%" id="linearGradient-7">
            <stop stop-color="#B47C00" offset="0%"></stop>
            <stop stop-color="#4B3321" offset="100%"></stop>
        </linearGradient>
        <path id="path-8" d="M52.0771639,14.3313424 L52.0771639,14.1277722 C51.9544369,13.0692071 51.6680739,12.0513561 51.2180748,11.1149332 C50.0726227,6.55496058 45.8180861,3.989976 41.3999135,4.60068662 C40.1317343,2.93141094 38.3726471,1.62856163 36.1635608,0.854994858 C32.7272043,-0.366426368 29.0453939,0.814280817 26.7544896,3.33855135 C26.7135805,3.37926539 26.7135805,3.37926539 26.6726715,3.41997943 C20.2908667,-1.83213184 10.3908874,0.692138695 7.60907501,9.07923111 C7.48634799,9.48637152 7.24089396,9.89351193 7.11816695,10.3006523 L7.11816695,10.3413664 C4.33635458,11.0335051 1.55454221,13.2727773 1.30908817,16.1227602 C1.30908817,16.2856163 1.26817917,16.4891865 1.30908817,16.6520427 C-0.163636022,20.3570204 -4.21107593e-13,24.0212841 2.2499953,27.5634057 C4.58180861,31.2683834 7.97725606,33.0598012 12.1499746,33.1412293 C12.2317926,33.2633714 12.3136106,33.3855135 12.3954286,33.5076556 L16.0772391,34.5662207 C15.9954211,34.4847926 15.9545121,34.4033645 15.9136031,34.2812224 C16.0363301,34.3626505 16.1181481,34.4847926 16.2408752,34.6069347 C17.1817823,35.5026436 18.0817804,36.4390666 18.8999605,37.4162036 L22.0908629,38.0269142 L22.0908629,37.9862001 C23.5635871,37.904772 25.0772203,37.823344 26.5908535,37.7419159 C27.1635796,37.7012018 27.7772147,37.6604878 28.3499408,37.6197738 L30.7635721,37.2940614 C30.9681171,36.846207 31.2135711,36.3983525 31.4181162,35.9912121 C31.6226612,35.6247858 31.8681152,35.4212155 32.1135693,35.3397875 C33.2181124,35.909784 34.3635646,36.3169244 35.4681077,36.5612087 C35.4681077,36.5612087 35.4681077,36.5612087 35.4681077,36.6019227 L37.799921,37.0904912 C37.84083,37.0090631 37.881739,36.886921 37.881739,36.8054929 C39.1908272,36.7240649 40.4999154,36.3169244 41.8499126,35.5026436 C43.8544538,34.2405084 45.040815,32.1233782 45.368087,29.884106 C45.6544501,29.3548235 45.9817221,29.0698252 46.6771752,28.9883971 C50.6862577,28.4184005 53.1407981,25.8534159 53.6726151,21.904154 C54.0817052,19.0948852 53.3044341,16.6927568 52.0771639,14.3313424 L52.0771639,14.3313424 Z"></path>
        <path id="path-10" d="M52.0771639,14.3313424 L52.0771639,14.1277722 C51.9544369,13.0692071 51.6680739,12.0513561 51.2180748,11.1149332 C50.0726227,6.55496058 45.8180861,3.989976 41.3999135,4.60068662 C40.1317343,2.93141094 38.3726471,1.62856163 36.1635608,0.854994858 C32.7272043,-0.366426368 29.0453939,0.814280817 26.7544896,3.33855135 C26.7135805,3.37926539 26.7135805,3.37926539 26.6726715,3.41997943 C20.2908667,-1.83213184 10.3908874,0.692138695 7.60907501,9.07923111 C7.48634799,9.48637152 7.24089396,9.89351193 7.11816695,10.3006523 L7.11816695,10.3413664 C4.33635458,11.0335051 1.55454221,13.2727773 1.30908817,16.1227602 C1.30908817,16.2856163 1.26817917,16.4891865 1.30908817,16.6520427 C-0.163636022,20.3570204 4.78506124e-14,24.0212841 2.2499953,27.5634057 C4.58180861,31.2683834 7.97725606,33.0598012 12.1499746,33.1412293 C12.2317926,33.2633714 12.3136106,33.3855135 12.3954286,33.5076556 L16.0772391,34.5662207 C15.9954211,34.4847926 15.9545121,34.4033645 15.9136031,34.2812224 C16.0363301,34.3626505 16.1181481,34.4847926 16.2408752,34.6069347 C17.1817823,35.5026436 18.0817804,36.4390666 18.8999605,37.4162036 L22.0908629,38.0269142 L22.0908629,37.9862001 C23.5635871,37.904772 25.0772203,37.823344 26.5908535,37.7419159 C27.1635796,37.7012018 27.7772147,37.6604878 28.3499408,37.6197738 L30.7635721,37.2940614 C30.9681171,36.846207 31.2135711,36.3983525 31.4181162,35.9912121 C31.6226612,35.6247858 31.8681152,35.4212155 32.1135693,35.3397875 C33.2181124,35.909784 34.3635646,36.3169244 35.4681077,36.5612087 C35.4681077,36.5612087 35.4681077,36.5612087 35.4681077,36.6019227 L37.799921,37.0904912 C37.84083,37.0090631 37.881739,36.886921 37.881739,36.8054929 C39.1908272,36.7240649 40.4999154,36.3169244 41.8499126,35.5026436 C43.8544538,34.2405084 45.040815,32.1233782 45.368087,29.884106 C45.6544501,29.3548235 45.9817221,29.0698252 46.6771752,28.9883971 C50.6862577,28.4184005 53.1407981,25.8534159 53.6726151,21.904154 C54.0817052,19.0948852 53.3044341,16.6927568 52.0771639,14.3313424 L52.0771639,14.3313424 Z"></path>
        <path id="path-12" d="M0.224298376,28.5092213 L66.2900127,28.5092213 C66.2900127,28.5092213 72.2071555,21.4497951 64.3900127,14.5532787 C59.2328698,9.99180328 54.0214412,16.8340164 54.0214412,16.8340164 C54.0214412,16.8340164 56.4642984,0 36.2157269,0 C16.8900127,0 19.4414412,14.1188525 19.4414412,14.1188525 C19.4414412,14.1188525 -2.43570162,7.87397541 0.224298376,28.5092213 L0.224298376,28.5092213 Z"></path>
    </defs>
    <g id="Page-1" stroke="none" stroke-width="1" fill="none" fill-rule="evenodd">
        <g id="背景" transform="translate(-1.000000, 0.000000)">
            <g id="山" transform="translate(1115.000000, 0.000000)">
                <g id="山-copy">
                    <g id="Path-2762-+-Rectangle-239-Mask" transform="translate(0.063622, 0.000000)">
                        <mask id="mask-2" fill="white">
                            <use xlink:href="#path-1"></use>
                        </mask>
                        <use id="Mask" fill="#8C490B" xlink:href="#path-1"></use>
                        <path d="M124.073297,80.6978419 L180.165302,54.2023946 L196.784703,74.8916274 L222.954683,47.4412272 L251.703286,73.7565165 L258.495279,55.014938 L296.310373,59.5495494 L240.706531,-19.3021581 L152.744717,1.02367588 L124.073297,80.6978419 Z" id="Path-2762" fill="#F1F1F1" mask="url(#mask-2)"></path>
                        <rect id="Rectangle-239" fill="#4A4A4A" opacity="0.481926306" mask="url(#mask-2)" x="-19" y="-38" width="242" height="240"></rect>
                    </g>
                </g>
                <g id="Path-2762-+-Rectangle-239-Mask" transform="translate(170.063622, 0.000000)">
                    <mask id="mask-4" fill="white">
                        <use xlink:href="#path-3"></use>
                    </mask>
                    <use id="Mask" fill="#8C590B" xlink:href="#path-3"></use>
                    <path d="M124.073297,80.6978419 L180.165302,54.2023946 L196.784703,74.8916274 L222.954683,47.4412272 L251.703286,73.7565165 L258.495279,55.014938 L296.310373,59.5495494 L240.706531,-19.3021581 L152.744717,1.02367588 L124.073297,80.6978419 Z" id="Path-2762" fill="#F1F1F1" mask="url(#mask-4)"></path>
                    <rect id="Rectangle-239" fill="#4A4A4A" opacity="0.481926306" mask="url(#mask-4)" x="-19" y="-38" width="242" height="240"></rect>
                </g>
            </g>
            <g id="树-copy-2" transform="translate(188.000000, 162.000000) scale(-1, 1) translate(-188.000000, -162.000000) translate(0.000000, 107.000000)">
                <g id="草丛" transform="translate(9.000000, 0.000000)">
                    <g id="Path-140" transform="translate(0.000000, 0.450184)">
                        <mask id="mask-6" fill="white">
                            <use xlink:href="#path-5"></use>
                        </mask>
                        <use id="Mask" fill="#417505" xlink:href="#path-5"></use>
                        <rect id="Rectangle-366" fill="#1B5202" mask="url(#mask-6)" x="90" y="-67" width="124" height="169"></rect>
                    </g>
                </g>
                <g id="树" transform="translate(0.771429, 27.266393)">
                    <path d="M35.4681077,36.5612087 C34.8135636,38.8004809 33.6272025,40.9176111 31.9090242,42.7090289 C30.6817541,43.9711641 29.3317569,45.0704432 28.0635777,46.2104364 C28.5544858,43.4825956 29.3726659,40.1440443 30.6817541,37.2533474 L28.2681228,37.5790597 L28.3908498,37.5790597 C28.3499408,37.7419159 28.3090318,37.904772 28.2272137,38.0269142 C27.6953967,38.9226231 27.2863066,41.2840374 26.4681265,42.5461727 C26.1817635,42.9940271 25.8135824,43.3197395 25.3635834,43.4011676 C24.5454033,43.5233097 22.663589,39.4111916 22.0090449,37.9862001 L18.8181425,37.3754895 C18.8590515,37.4162036 18.8590515,37.4162036 18.8999605,37.4569176 C19.4317776,38.1083422 19.8408676,39.4519056 20.2499577,40.7954689 C18.8999605,38.6783388 17.4681453,36.6019227 16.0363301,34.5255066 L12.3545196,33.4669416 C16.2408752,38.8004809 19.8408676,44.3783045 23.0726791,50.1596983 C22.909043,51.0961213 22.581771,52.0732583 22.1317719,53.2946795 C21.1499558,56.0225202 22.0499539,57.4067976 24.9544933,57.5289397 C25.4044924,57.5289397 25.8544914,57.5696538 26.2635815,57.5289397 L26.3453995,57.5289397 C27.9817597,57.3660836 28.8408488,56.1446623 28.3908498,54.5161007 C28.1044867,53.4168216 27.5317607,52.3582565 27.4090336,51.2589774 C27.4090336,51.2182634 27.4090336,50.9332651 27.4499426,50.5261247 C29.1272119,47.4318576 32.8090224,45.5997258 34.8953816,42.7904569 C36.2044698,41.0397532 37.1453769,39.1261933 37.718103,37.0904912 L35.4681077,36.5612087 L35.4681077,36.5612087 Z" id="Shape" fill="url(#linearGradient-7)"></path>
                    <g id="Path-140">
                        <mask id="mask-9" fill="white">
                            <use xlink:href="#path-8"></use>
                        </mask>
                        <use id="Mask" fill="#90C423" xlink:href="#path-8"></use>
                        <path d="M27.6499131,1.55959436 L27.6499137,40.0174173 L-8.78221963,32.9104392 L-18.4571429,9.27028112 L-1.66056911,-14.1188525 L27.6499131,1.55959436 Z" fill="#588103" mask="url(#mask-9)"></path>
                    </g>
                </g>
                <g id="树-copy" transform="translate(321.057143, 27.266393)">
                    <path d="M35.4681077,36.5612087 C34.8135636,38.8004809 33.6272025,40.9176111 31.9090242,42.7090289 C30.6817541,43.9711641 29.3317569,45.0704432 28.0635777,46.2104364 C28.5544858,43.4825956 29.3726659,40.1440443 30.6817541,37.2533474 L28.2681228,37.5790597 L28.3908498,37.5790597 C28.3499408,37.7419159 28.3090318,37.904772 28.2272137,38.0269142 C27.6953967,38.9226231 27.2863066,41.2840374 26.4681265,42.5461727 C26.1817635,42.9940271 25.8135824,43.3197395 25.3635834,43.4011676 C24.5454033,43.5233097 22.663589,39.4111916 22.0090449,37.9862001 L18.8181425,37.3754895 C18.8590515,37.4162036 18.8590515,37.4162036 18.8999605,37.4569176 C19.4317776,38.1083422 19.8408676,39.4519056 20.2499577,40.7954689 C18.8999605,38.6783388 17.4681453,36.6019227 16.0363301,34.5255066 L12.3545196,33.4669416 C16.2408752,38.8004809 19.8408676,44.3783045 23.0726791,50.1596983 C22.909043,51.0961213 22.581771,52.0732583 22.1317719,53.2946795 C21.1499558,56.0225202 22.0499539,57.4067976 24.9544933,57.5289397 C25.4044924,57.5289397 25.8544914,57.5696538 26.2635815,57.5289397 L26.3453995,57.5289397 C27.9817597,57.3660836 28.8408488,56.1446623 28.3908498,54.5161007 C28.1044867,53.4168216 27.5317607,52.3582565 27.4090336,51.2589774 C27.4090336,51.2182634 27.4090336,50.9332651 27.4499426,50.5261247 C29.1272119,47.4318576 32.8090224,45.5997258 34.8953816,42.7904569 C36.2044698,41.0397532 37.1453769,39.1261933 37.718103,37.0904912 L35.4681077,36.5612087 L35.4681077,36.5612087 Z" id="Shape" fill="url(#linearGradient-7)"></path>
                    <g id="Path-140">
                        <mask id="mask-11" fill="white">
                            <use xlink:href="#path-10"></use>
                        </mask>
                        <use id="Mask" fill="#90C423" xlink:href="#path-10"></use>
                        <path d="M27.6499131,1.55959436 L27.6499137,40.0174173 L-8.78221963,32.9104392 L-18.4571429,9.27028112 L-1.66056911,-14.1188525 L27.6499131,1.55959436 Z" fill="#588103" mask="url(#mask-11)"></path>
                    </g>
                </g>
                <g id="Path-140" transform="translate(108.257143, 54.418033)">
                    <mask id="mask-13" fill="white">
                        <use xlink:href="#path-12"></use>
                    </mask>
                    <use id="Mask" fill="#90C423" xlink:href="#path-12"></use>
                    <path d="M34.1641989,-2.78466793 L34.1641994,35.673155 L-2.26793392,28.5661769 L-11.9428571,4.92601883 L4.8537166,-18.4631148 L34.1641989,-2.78466793 Z" fill="#588103" mask="url(#mask-13)"></path>
                </g>
            </g>
        </g>
    </g>
</svg>