<?xml version="1.0" encoding="utf-8"?>
<!-- Generator: Adobe Illustrator 19.0.0, SVG Export Plug-In . SVG Version: 6.00 Build 0)  -->
<svg version="1.1" id="图层_1" xmlns="http://www.w3.org/2000/svg" xmlns:xlink="http://www.w3.org/1999/xlink" x="0px" y="0px"
	 viewBox="0 0 127 416" style="enable-background:new 0 0 127 416;" xml:space="preserve">
<style type="text/css">
	.st0{fill:#4A4A4A;}
	.st1{fill-rule:evenodd;clip-rule:evenodd;fill:#9B9B9B;}
	.st2{fill:#630F19;}
	.st3{fill:#D0021B;}
	.st4{fill-rule:evenodd;clip-rule:evenodd;fill:#E0DFDF;}
	.st5{fill-rule:evenodd;clip-rule:evenodd;fill:#D0021B;}
	.st6{fill-rule:evenodd;clip-rule:evenodd;fill:#FFFFFF;}
	.st7{fill:none;}
	.st8{fill-rule:evenodd;clip-rule:evenodd;fill:#4A4A4A;}
</style>
<g id="XMLID_2_">
	<g id="XMLID_15_">
		<path id="XMLID_17_" d="M47,238.5V162h-8v254h11c-1.9-2.7-3-6-3-9.5v-125c0-9.1,7.4-16.5,16.5-16.5v-10
			C54.4,255,47,247.6,47,238.5z"/>
		<path id="XMLID_18_" class="st0" d="M81,162v76.5c0,9.1-7.4,16.5-16.5,16.5h-1v10h1c9.1,0,16.5,7.4,16.5,16.5v125
			c0,3.5-1.1,6.8-3,9.5h11V162H81z"/>
	</g>
	<path class="st1" d="M63,4c0-0.6,0.4-1,1-1c0.6,0,1,0.4,1,1v78c0,0.6-0.4,1-1,1c-0.6,0-1-0.4-1-1V4z"/>
	<g id="XMLID_32_">
		<polygon id="XMLID_33_" class="st2" points="0,149 63.5,195 63.5,149 		"/>
		<polygon id="XMLID_34_" class="st3" points="63.5,149 63.5,195 127,149 		"/>
	</g>
	<path id="XMLID_1_" class="st4" d="M36.1,101.4L36.1,101.4L36,149h28h28v-47.6h-0.1C90.7,89.4,78.7,80,64,80S37.3,89.4,36.1,101.4z
		"/>
	<path id="XMLID_22_" class="st1" d="M36.1,101.4L36.1,101.4L36,149h28l0-69C49.3,80,37.3,89.4,36.1,101.4z"/>
	<circle class="st5" cx="64" cy="3" r="3"/>
	<path class="st6" d="M79,99.4c0-1.3,1.1-2.4,2.4-2.4c1.3,0,2.4,1.1,2.4,2.4v15.9c0,1.3-1.1,2.4-2.4,2.4c-1.3,0-2.4-1.1-2.4-2.4
		V99.4z"/>
	<circle class="st6" cx="81.4" cy="120.7" r="1.6"/>
	<path id="XMLID_19_" class="st7" d="M63.5,152"/>
	<path id="XMLID_16_" class="st7" d="M64,80"/>
	<path class="st8" d="M54,80.5c0-1.4,1.1-2.5,2.5-2.5h14c1.4,0,2.5,1.1,2.5,2.5c0,1.4-1.1,2.5-2.5,2.5h-14C55.1,83,54,81.9,54,80.5z
		"/>
</g>
</svg>
