<?xml version="1.0" encoding="UTF-8" standalone="no"?>
<svg width="165px" height="71px" viewBox="0 0 165 71" version="1.1" xmlns="http://www.w3.org/2000/svg" xmlns:xlink="http://www.w3.org/1999/xlink">
    <!-- Generator: Sketch 3.6.1 (26313) - http://www.bohemiancoding.com/sketch -->
    <title>飞船（移动）</title>
    <desc>Created with Sketch.</desc>
    <defs>
        <path d="M53.5885858,0 L132.767979,0 C140.700492,0 147.131064,6.42724606 147.131064,14.3595506 C147.131064,22.2901114 140.702398,28.7191011 132.767979,28.7191011 L53.5885858,28.7191011 L18.8943019,28.7191011 L0,0 L53.5885858,0 Z" id="path-1"></path>
        <radialGradient cx="53.7275881%" cy="19.36306%" fx="53.7275881%" fy="19.36306%" r="83.8302694%" id="radialGradient-3">
            <stop stop-color="#FFFFFF" stop-opacity="0.790845788" offset="0%"></stop>
            <stop stop-color="#CFCCCC" stop-opacity="0.76709692" offset="100%"></stop>
        </radialGradient>
        <path id="path-4" d="M55.7704891,37.6156239 C55.7704891,18.9266346 51.5596431,0.382022472 28.1823467,0.382022472 C4.80505039,0.382022472 0.594202899,18.9266346 0.594202899,37.6156239 L55.7704891,37.6156239 Z"></path>
    </defs>
    <g id="Page-1" stroke="none" stroke-width="1" fill="none" fill-rule="evenodd">
        <g id="Metas" transform="translate(-919.000000, -247.000000)">
            <g id="飞船（移动）" transform="translate(919.000000, 247.000000)">
                <path d="M90.0724638,7.26081116 C90.0724638,3.40218773 87.9674985,-2.61043569e-16 84.4927536,0 C81.0180087,2.61043569e-16 78.9130435,3.40218773 78.9130435,7.26081116 L90.0724638,7.26081116 Z" id="玻璃罩-copy-2" fill="#2EA7DF" opacity="0.844682836"></path>
                <g id="Rectangle-55" transform="translate(17.536232, 42.280899)">
                    <mask id="mask-2" fill="white">
                        <use xlink:href="#path-1"></use>
                    </mask>
                    <use id="Mask" fill="#EFEFEF" xlink:href="#path-1"></use>
                    <rect fill="#2EA7DF" mask="url(#mask-2)" x="11.9565217" y="22.3370787" width="139.492754" height="9.57303371"></rect>
                </g>
                <ellipse id="Oval-84" fill="#D0011B" cx="153.043478" cy="56.6404494" rx="3.1884058" ry="3.19101124"></ellipse>
                <ellipse id="Oval-84-Copy" fill="#D0011B" cx="142.681159" cy="56.6404494" rx="3.1884058" ry="3.19101124"></ellipse>
                <rect id="Rectangle-57" fill="#2EA7DF" x="112.391304" y="42.2808989" width="15.1449275" height="15.1573034"></rect>
                <g id="Rectangle-109" transform="translate(56.000000, 6.000000)">
                    <mask id="mask-5" fill="white">
                        <use xlink:href="#path-4"></use>
                    </mask>
                    <use id="Mask" fill="url(#radialGradient-3)" opacity="0.844682836" xlink:href="#path-4"></use>
                </g>
                <rect id="Rectangle-57-Copy" fill="#174A86" x="90.0724638" y="42.2808989" width="23.115942" height="15.1573034"></rect>
                <rect id="Rectangle-57-Copy-2" fill="#2EA7DF" x="61.3768116" y="42.2808989" width="29.4927536" height="15.1573034"></rect>
                <path d="M35.0724638,42.2808989 L62.5689723,42.2808989 L62.5689723,57.4382022 L42.6414361,57.4382022 L35.0724638,42.2808989 Z" id="Rectangle-57-Copy-3" fill="#184B86"></path>
                <g id="高光" transform="translate(67.956522, 14.157303)" fill="#FFFFFF">
                    <rect id="Rectangle-64" x="0" y="0" width="4.7826087" height="20.741573" rx="100"></rect>
                    <ellipse id="Oval-96" cx="2.5942029" cy="24.5955056" rx="1.5942029" ry="1.59550562"></ellipse>
                </g>
                <rect id="Rectangle-65" fill="#D8D8D8" x="0" y="51.0561798" width="10.3623188" height="2.39325843" rx="100"></rect>
                <rect id="Rectangle-65-Copy" fill="#D8D8D8" x="0" y="59.8314607" width="10.3623188" height="2.39325843" rx="100"></rect>
                <rect id="Rectangle-65-Copy-2" fill="#D8D8D8" x="0" y="68.6067416" width="10.3623188" height="2.39325843" rx="100"></rect>
            </g>
        </g>
    </g>
</svg>