<?xml version="1.0" encoding="UTF-8" standalone="no"?>
<svg width="187px" height="75px" viewBox="0 0 187 75" version="1.1" xmlns="http://www.w3.org/2000/svg" xmlns:xlink="http://www.w3.org/1999/xlink">
    <!-- Generator: Sketch 3.6.1 (26313) - http://www.bohemiancoding.com/sketch -->
    <title>Path 140</title>
    <desc>Created with Sketch.</desc>
    <defs>
        <path d="M187.413984,74.7710308 C187.439061,74.2546785 187.451734,73.735353 187.451734,73.213301 C187.451734,54.2864718 170.794863,38.9432452 150.247573,38.9432452 C149.161433,38.9432452 148.086165,38.9861177 147.023652,39.0701257 C147.262313,37.5016503 147.385714,35.8991274 147.385714,34.2700558 C147.385714,15.3432266 130.728844,0 110.181553,0 C93.1518229,0 78.7945017,10.5395755 74.3778381,24.9236881 C57.9644659,24.9358129 44.0385225,34.7383545 39.1109472,48.3338556 C38.4793768,48.3044861 37.843653,48.2896241 37.2041609,48.2896241 C19.5653898,48.2896241 4.79359476,59.5965414 0.965056623,74.7710308 L187.413984,74.7710308 Z" id="path-1"></path>
    </defs>
    <g id="Page-1" stroke="none" stroke-width="1" fill="none" fill-rule="evenodd">
        <g id="欢迎页" transform="translate(-96.000000, -497.000000)">
            <g id="云" transform="translate(95.000000, 67.000000)">
                <g id="Path-140" transform="translate(0.000000, 430.000000)">
                    <mask id="mask-2" fill="white">
                        <use xlink:href="#path-1"></use>
                    </mask>
                    <use id="Mask" fill="#8BCDFB" xlink:href="#path-1"></use>
                    <path d="M98.1567349,-4.41108089 L98.1567336,102.407365 L-30.9611416,82.0401236 L-64.6668746,31.8857863 L25.4557218,-46.7318943 L98.1567349,-4.41108089 Z" fill="#359EE6" mask="url(#mask-2)"></path>
                </g>
            </g>
        </g>
    </g>
</svg>