<?xml version="1.0" encoding="UTF-8" standalone="no"?>
<svg width="66px" height="39px" viewBox="0 0 66 39" version="1.1" xmlns="http://www.w3.org/2000/svg" xmlns:xlink="http://www.w3.org/1999/xlink">
    <!-- Generator: Sketch 3.6.1 (26313) - http://www.bohemiancoding.com/sketch -->
    <title>Page 1 Copy 7</title>
    <desc>Created with Sketch.</desc>
    <defs></defs>
    <g id="Page-1" stroke="none" stroke-width="1" fill="none" fill-rule="evenodd">
        <g id="欢迎页" transform="translate(-1198.000000, -897.000000)">
            <g id="草" transform="translate(315.000000, 897.000000)">
                <g id="Page-1-Copy-7" transform="translate(883.000000, 0.000000)">
                    <path d="M42,37.7312229 C42.098,37.7436813 41.806,33.0338083 44.313,26.5990792 C45.579,23.4222042 47.806,19.8011896 51.454,16.7470292 C55.035,13.6729354 60.349,11.4665646 65.278,11 C65.389,11.0560625 61.205,14.06475 59.741,19.0325104 C57.994,23.969125 58.564,30.7234104 57.983,37.5972958 L42,37.7312229 Z" id="Fill-6-Copy-2" fill="#A2D228"></path>
                    <path d="M22.2873,38.1333333 C22.2303,38.1345792 22.3693,32.5432792 22.0613,25.1417833 C21.5223,17.6792417 21.3113,8.69366875 16.0023,0.782627083 C15.8513,0.707877083 23.9713,4.04172708 29.4003,11.3672271 C35.0683,18.5014917 38.5923,28.5298271 38.2623,37.7782708 L22.2873,38.1333333 Z" id="Fill-3" fill="#A2D129"></path>
                    <path d="M0.654,37.7026488 C0.752,37.7151071 0.46,33.0052342 2.967,26.570505 C4.233,23.39363 6.46,19.7726154 10.108,16.718455 C13.689,13.6443613 19.003,11.4379904 23.932,10.9714258 C24.043,11.0274883 19.859,14.0361758 18.395,19.0039363 C16.648,23.9405508 17.218,30.6948363 16.637,37.5687217 L0.654,37.7026488 Z" id="Fill-6-Copy" fill="#7DDC2F" transform="translate(12.294083, 24.337050) scale(-1, 1) translate(-12.294083, -24.337050) "></path>
                    <path d="M11.287076,38.2186016 C11.230076,38.2198474 11.369076,32.6285474 11.061076,25.2270516 C10.522076,17.7645099 10.311076,8.77893701 5.00207597,0.86789534 C4.85107597,0.79314534 12.971076,4.12699534 18.400076,11.4524953 C24.068076,18.5867599 27.592076,28.6150953 27.262076,37.8635391 L11.287076,38.2186016 Z" id="Fill-3-Copy-2" fill="#6EC844"></path>
                    <path d="M30.654,37.7026488 C30.752,37.7151071 30.46,33.0052342 32.967,26.570505 C34.233,23.39363 36.46,19.7726154 40.108,16.718455 C43.689,13.6443613 49.003,11.4379904 53.932,10.9714258 C54.043,11.0274883 49.859,14.0361758 48.395,19.0039363 C46.648,23.9405508 47.218,30.6948363 46.637,37.5687217 L30.654,37.7026488 Z" id="Fill-6" fill="#6EC844"></path>
                </g>
            </g>
        </g>
    </g>
</svg>