<?xml version="1.0" encoding="UTF-8" standalone="no"?>
<svg width="1440px" height="88px" viewBox="0 0 1440 88" version="1.1" xmlns="http://www.w3.org/2000/svg" xmlns:xlink="http://www.w3.org/1999/xlink">
    <!-- Generator: Sketch 3.6.1 (26313) - http://www.bohemiancoding.com/sketch -->
    <title>地</title>
    <desc>Created with Sketch.</desc>
    <defs></defs>
    <g id="Page-1" stroke="none" stroke-width="1" fill="none" fill-rule="evenodd">
        <g id="欢迎页" transform="translate(0.000000, -936.000000)">
            <g id="地" transform="translate(-2.000000, 936.000000)">
                <rect id="Rectangle-4" fill="#946841" x="0.751300728" y="30" width="1442.4974" height="60"></rect>
                <rect id="Rectangle-4" fill="#90DA4F" x="0.751300728" y="0" width="1442.4974" height="30"></rect>
                <g id="Group" transform="translate(0.000000, 19.500000)" fill="#946841">
                    <polygon id="Polygon-1" points="11.2695109 -3.55271368e-15 22.5390219 11.25 11.2695109 22.5 0 11.25 "></polygon>
                    <polygon id="Polygon-1-Copy" points="33.8085328 -3.55271368e-15 45.0780437 11.25 33.8085328 22.5 22.5390219 11.25 "></polygon>
                    <polygon id="Polygon-1-Copy" points="56.3475546 -3.55271368e-15 67.6170656 11.25 56.3475546 22.5 45.0780437 11.25 "></polygon>
                    <polygon id="Polygon-1-Copy-2" points="78.8865765 -3.55271368e-15 90.1560874 11.25 78.8865765 22.5 67.6170656 11.25 "></polygon>
                    <polygon id="Polygon-1-Copy-6" points="101.425598 -3.55271368e-15 112.695109 11.25 101.425598 22.5 90.1560874 11.25 "></polygon>
                    <polygon id="Polygon-1-Copy-5" points="123.96462 -3.55271368e-15 135.234131 11.25 123.96462 22.5 112.695109 11.25 "></polygon>
                    <polygon id="Polygon-1-Copy-4" points="146.503642 -3.55271368e-15 157.773153 11.25 146.503642 22.5 135.234131 11.25 "></polygon>
                    <polygon id="Polygon-1-Copy-3" points="169.042664 -3.55271368e-15 180.312175 11.25 169.042664 22.5 157.773153 11.25 "></polygon>
                    <polygon id="Polygon-1-Copy-14" points="191.581686 -3.55271368e-15 202.851197 11.25 191.581686 22.5 180.312175 11.25 "></polygon>
                    <polygon id="Polygon-1-Copy-13" points="214.120708 -3.55271368e-15 225.390219 11.25 214.120708 22.5 202.851197 11.25 "></polygon>
                    <polygon id="Polygon-1-Copy-12" points="236.659729 -3.55271368e-15 247.92924 11.25 236.659729 22.5 225.390219 11.25 "></polygon>
                    <polygon id="Polygon-1-Copy-11" points="259.198751 -3.55271368e-15 270.468262 11.25 259.198751 22.5 247.92924 11.25 "></polygon>
                    <polygon id="Polygon-1-Copy-10" points="281.737773 -3.55271368e-15 293.007284 11.25 281.737773 22.5 270.468262 11.25 "></polygon>
                    <polygon id="Polygon-1-Copy-9" points="304.276795 -3.55271368e-15 315.546306 11.25 304.276795 22.5 293.007284 11.25 "></polygon>
                    <polygon id="Polygon-1-Copy-8" points="326.815817 -3.55271368e-15 338.085328 11.25 326.815817 22.5 315.546306 11.25 "></polygon>
                    <polygon id="Polygon-1-Copy-7" points="349.354839 -3.55271368e-15 360.62435 11.25 349.354839 22.5 338.085328 11.25 "></polygon>
                    <polygon id="Polygon-1-Copy-30" points="372.645161 -3.55271368e-15 383.914672 11.25 372.645161 22.5 361.37565 11.25 "></polygon>
                    <polygon id="Polygon-1-Copy-29" points="395.184183 -3.55271368e-15 406.453694 11.25 395.184183 22.5 383.914672 11.25 "></polygon>
                    <polygon id="Polygon-1-Copy-28" points="417.723205 -3.55271368e-15 428.992716 11.25 417.723205 22.5 406.453694 11.25 "></polygon>
                    <polygon id="Polygon-1-Copy-27" points="440.262227 -3.55271368e-15 451.531738 11.25 440.262227 22.5 428.992716 11.25 "></polygon>
                    <polygon id="Polygon-1-Copy-26" points="462.801249 -3.55271368e-15 474.07076 11.25 462.801249 22.5 451.531738 11.25 "></polygon>
                    <polygon id="Polygon-1-Copy-25" points="485.340271 -3.55271368e-15 496.609781 11.25 485.340271 22.5 474.07076 11.25 "></polygon>
                    <polygon id="Polygon-1-Copy-24" points="507.879292 -3.55271368e-15 519.148803 11.25 507.879292 22.5 496.609781 11.25 "></polygon>
                    <polygon id="Polygon-1-Copy-23" points="530.418314 -3.55271368e-15 541.687825 11.25 530.418314 22.5 519.148803 11.25 "></polygon>
                    <polygon id="Polygon-1-Copy-22" points="552.957336 -3.55271368e-15 564.226847 11.25 552.957336 22.5 541.687825 11.25 "></polygon>
                    <polygon id="Polygon-1-Copy-21" points="575.496358 -3.55271368e-15 586.765869 11.25 575.496358 22.5 564.226847 11.25 "></polygon>
                    <polygon id="Polygon-1-Copy-20" points="598.03538 -3.55271368e-15 609.304891 11.25 598.03538 22.5 586.765869 11.25 "></polygon>
                    <polygon id="Polygon-1-Copy-19" points="620.574402 -3.55271368e-15 631.843913 11.25 620.574402 22.5 609.304891 11.25 "></polygon>
                    <polygon id="Polygon-1-Copy-18" points="643.113424 -3.55271368e-15 654.382934 11.25 643.113424 22.5 631.843913 11.25 "></polygon>
                    <polygon id="Polygon-1-Copy-17" points="665.652445 -3.55271368e-15 676.921956 11.25 665.652445 22.5 654.382934 11.25 "></polygon>
                    <polygon id="Polygon-1-Copy-16" points="688.191467 -3.55271368e-15 699.460978 11.25 688.191467 22.5 676.921956 11.25 "></polygon>
                    <polygon id="Polygon-1-Copy-15" points="710.730489 -3.55271368e-15 722 11.25 710.730489 22.5 699.460978 11.25 "></polygon>
                    <polygon id="Polygon-1-Copy-62" points="733.269511 -3.55271368e-15 744.539022 11.25 733.269511 22.5 722 11.25 "></polygon>
                    <polygon id="Polygon-1-Copy-61" points="755.808533 -3.55271368e-15 767.078044 11.25 755.808533 22.5 744.539022 11.25 "></polygon>
                    <polygon id="Polygon-1-Copy-60" points="778.347555 -3.55271368e-15 789.617066 11.25 778.347555 22.5 767.078044 11.25 "></polygon>
                    <polygon id="Polygon-1-Copy-59" points="800.886576 -3.55271368e-15 812.156087 11.25 800.886576 22.5 789.617066 11.25 "></polygon>
                    <polygon id="Polygon-1-Copy-58" points="823.425598 -3.55271368e-15 834.695109 11.25 823.425598 22.5 812.156087 11.25 "></polygon>
                    <polygon id="Polygon-1-Copy-57" points="845.96462 -3.55271368e-15 857.234131 11.25 845.96462 22.5 834.695109 11.25 "></polygon>
                    <polygon id="Polygon-1-Copy-56" points="868.503642 -3.55271368e-15 879.773153 11.25 868.503642 22.5 857.234131 11.25 "></polygon>
                    <polygon id="Polygon-1-Copy-55" points="891.042664 -3.55271368e-15 902.312175 11.25 891.042664 22.5 879.773153 11.25 "></polygon>
                    <polygon id="Polygon-1-Copy-54" points="913.581686 -3.55271368e-15 924.851197 11.25 913.581686 22.5 902.312175 11.25 "></polygon>
                    <polygon id="Polygon-1-Copy-53" points="936.120708 -3.55271368e-15 947.390219 11.25 936.120708 22.5 924.851197 11.25 "></polygon>
                    <polygon id="Polygon-1-Copy-52" points="958.659729 -3.55271368e-15 969.92924 11.25 958.659729 22.5 947.390219 11.25 "></polygon>
                    <polygon id="Polygon-1-Copy-51" points="981.198751 -3.55271368e-15 992.468262 11.25 981.198751 22.5 969.92924 11.25 "></polygon>
                    <polygon id="Polygon-1-Copy-50" points="1003.73777 -3.55271368e-15 1015.00728 11.25 1003.73777 22.5 992.468262 11.25 "></polygon>
                    <polygon id="Polygon-1-Copy-49" points="1026.2768 -3.55271368e-15 1037.54631 11.25 1026.2768 22.5 1015.00728 11.25 "></polygon>
                    <polygon id="Polygon-1-Copy-48" points="1048.81582 -3.55271368e-15 1060.08533 11.25 1048.81582 22.5 1037.54631 11.25 "></polygon>
                    <polygon id="Polygon-1-Copy-47" points="1071.35484 -3.55271368e-15 1082.62435 11.25 1071.35484 22.5 1060.08533 11.25 "></polygon>
                    <polygon id="Polygon-1-Copy-46" points="1094.64516 -3.55271368e-15 1105.91467 11.25 1094.64516 22.5 1083.37565 11.25 "></polygon>
                    <polygon id="Polygon-1-Copy-45" points="1117.18418 -3.55271368e-15 1128.45369 11.25 1117.18418 22.5 1105.91467 11.25 "></polygon>
                    <polygon id="Polygon-1-Copy-44" points="1139.7232 -3.55271368e-15 1150.99272 11.25 1139.7232 22.5 1128.45369 11.25 "></polygon>
                    <polygon id="Polygon-1-Copy-43" points="1162.26223 -3.55271368e-15 1173.53174 11.25 1162.26223 22.5 1150.99272 11.25 "></polygon>
                    <polygon id="Polygon-1-Copy-42" points="1184.80125 -3.55271368e-15 1196.07076 11.25 1184.80125 22.5 1173.53174 11.25 "></polygon>
                    <polygon id="Polygon-1-Copy-41" points="1207.34027 -3.55271368e-15 1218.60978 11.25 1207.34027 22.5 1196.07076 11.25 "></polygon>
                    <polygon id="Polygon-1-Copy-40" points="1229.87929 -3.55271368e-15 1241.1488 11.25 1229.87929 22.5 1218.60978 11.25 "></polygon>
                    <polygon id="Polygon-1-Copy-39" points="1252.41831 -3.55271368e-15 1263.68783 11.25 1252.41831 22.5 1241.1488 11.25 "></polygon>
                    <polygon id="Polygon-1-Copy-38" points="1274.95734 -3.55271368e-15 1286.22685 11.25 1274.95734 22.5 1263.68783 11.25 "></polygon>
                    <polygon id="Polygon-1-Copy-37" points="1297.49636 -3.55271368e-15 1308.76587 11.25 1297.49636 22.5 1286.22685 11.25 "></polygon>
                    <polygon id="Polygon-1-Copy-36" points="1320.03538 -3.55271368e-15 1331.30489 11.25 1320.03538 22.5 1308.76587 11.25 "></polygon>
                    <polygon id="Polygon-1-Copy-35" points="1342.5744 -3.55271368e-15 1353.84391 11.25 1342.5744 22.5 1331.30489 11.25 "></polygon>
                    <polygon id="Polygon-1-Copy-34" points="1365.11342 -3.55271368e-15 1376.38293 11.25 1365.11342 22.5 1353.84391 11.25 "></polygon>
                    <polygon id="Polygon-1-Copy-33" points="1387.65245 -3.55271368e-15 1398.92196 11.25 1387.65245 22.5 1376.38293 11.25 "></polygon>
                    <polygon id="Polygon-1-Copy-32" points="1410.19147 -3.55271368e-15 1421.46098 11.25 1410.19147 22.5 1398.92196 11.25 "></polygon>
                    <polygon id="Polygon-1-Copy-31" points="1432.73049 -3.55271368e-15 1444 11.25 1432.73049 22.5 1421.46098 11.25 "></polygon>
                </g>
            </g>
        </g>
    </g>
</svg>