<?xml version="1.0" encoding="UTF-8" standalone="no"?>
<svg width="24px" height="23px" viewBox="0 0 24 23" version="1.1" xmlns="http://www.w3.org/2000/svg" xmlns:xlink="http://www.w3.org/1999/xlink">
    <!-- Generator: Sketch 3.6.1 (26313) - http://www.bohemiancoding.com/sketch -->
    <title>Shape</title>
    <desc>Created with Sketch.</desc>
    <defs></defs>
    <g id="Page-1" stroke="none" stroke-width="1" fill="none" fill-rule="evenodd">
        <g id="奇思能达" transform="translate(-1194.000000, -796.000000)" fill="#FFFFFF">
            <g id="介绍" transform="translate(1125.000000, 0.000000)">
                <g id="网站" transform="translate(53.000000, 788.000000)">
                    <path d="M39.3029616,16.1511429 L29.0873311,8.36649756 C28.4460662,7.87783415 27.5539338,7.87783415 26.9126689,8.36649756 L16.6970384,16.1511429 C16.091102,16.6129139 15.8491557,17.4058862 16.0950274,18.1231351 C16.2434782,18.5562444 16.5496581,18.9037227 16.9375573,19.1110774 L16.9375573,29.2307624 C16.9375573,30.2080893 17.7365511,31 18.7218222,31 L37.2781778,31 C38.2638057,31 39.0624427,30.2080893 39.0624427,29.2307624 L39.0624427,19.1110774 C39.4499851,18.9037227 39.7565218,18.5562444 39.9049726,18.1231351 C40.1508443,17.4058862 39.908898,16.61256 39.3029616,16.1511429 L39.3029616,16.1511429 Z M35.4939128,27.4615249 L29.784265,27.4615249 L29.784265,23.2153547 C29.784265,22.2380278 28.985628,21.4461171 28,21.4461171 C27.0147289,21.4461171 26.215735,22.2380278 26.215735,23.2153547 L26.215735,27.4615249 L20.5060872,27.4615249 L20.5060872,17.7109027 L28,12.0005115 L35.4939128,17.7109027 L35.4939128,27.4615249 L35.4939128,27.4615249 Z" id="Shape"></path>
                </g>
            </g>
        </g>
    </g>
</svg>